{
.formatVersion = 3;
DisplayStrings = (
"/kn_test"
);
classes = (
{
code = "kn_k kn_kh kn_g kn_gh kn_ng kn_c kn_ch kn_j kn_jh kn_ny kn_tt kn_tth kn_dd kn_ddh kn_nn kn_t kn_th kn_d kn_dh kn_n kn_p kn_ph kn_b kn_bh kn_m kn_y kn_r kn_l kn_ll kn_v kn_sh kn_ss kn_s kn_h";
name = Muula;
},
{
code = "kn_k_v kn_kh_v kn_g_v kn_gh_v kn_ng_v kn_c_v kn_ch_v kn_j_v kn_jh_v kn_ny_v kn_tt_v kn_tth_v kn_dd_v kn_ddh_v kn_nn_v kn_t_v kn_th_v kn_d_v kn_dh_v kn_n_v kn_p_v kn_ph_v kn_b_v kn_bh_v kn_m_v kn_y_v kn_r_v kn_l_v kn_ll_v kn_v_v kn_sh_v kn_ss_v kn_s_v kn_h_v";
name = Halant;
},
{
code = "kn_k_ottu kn_kh_ottu kn_g_ottu kn_gh_ottu kn_ng_ottu kn_c_ottu kn_ch_ottu kn_j_ottu kn_jh_ottu kn_ny_ottu kn_tt_ottu kn_tth_ottu kn_dd_ottu kn_ddh_ottu kn_nn_ottu kn_t_ottu kn_th_ottu kn_d_ottu kn_dh_ottu kn_n_ottu kn_p_ottu kn_ph_ottu kn_b_ottu kn_bh_ottu kn_m_ottu kn_y_ottu kn_r_ottu kn_l_ottu kn_ll_ottu kn_v_ottu kn_sh_ottu kn_ss_ottu kn_s_ottu kn_h_ottu";
name = Ottu;
},
{
code = "kn_k_ottu2 kn_kh_ottu2 kn_g_ottu2 kn_gh_ottu2 kn_ng_ottu2 kn_c_ottu2 kn_ch_ottu2 kn_j_ottu2 kn_jh_ottu2 kn_ny_ottu2 kn_tt_ottu2 kn_tth_ottu2 kn_dd_ottu2 kn_ddh_ottu2 kn_nn_ottu2 kn_t_ottu2 kn_th_ottu2 kn_d_ottu2 kn_dh_ottu2 kn_n_ottu2 kn_p_ottu2 kn_ph_ottu2 kn_b_ottu2 kn_bh_ottu2 kn_m_ottu2 kn_y_ottu2 kn_r_ottu2 kn_l_ottu2 kn_ll_ottu2 kn_v_ottu2 kn_sh_ottu2 kn_ss_ottu2 kn_s_ottu2 kn_h_ottu2";
name = Ottu2;
},
{
code = "kn_ma_aa kn_ma_i kn_ma_ii kn_ma_u kn_ma_uu kn_ma_r rrvocalsign-knda kn_ma_e kn_ma_ee kn_ma_ai kn_ma_o kn_ma_oo kn_ma_au kn_virama kn_dherge_e kn_dherge_ai uni0CDD";
name = Matra;
}
);
familyName = "Karnata Wesleyan Mission Press";
customParameters = (
{
name = glyphOrder;
value = (
kn_am,
kn_ah,
kn_a,
kn_aa,
kn_i,
kn_ii,
kn_u,
kn_uu,
kn_r_ext,
kn_e,
kn_ee,
kn_ai,
kn_o,
kn_oo,
kn_au,
kn_k,
kn_kh,
kn_g,
kn_gh,
kn_ng,
kn_c,
kn_ch,
kn_j,
kn_jh,
kn_ny,
kn_tt,
kn_tth,
kn_dd,
kn_ddh,
kn_nn,
kn_t,
kn_th,
kn_d,
kn_dh,
kn_n,
kn_p,
kn_ph,
kn_b,
kn_bh,
kn_m,
kn_y,
kn_r,
kn_l,
kn_ll,
kn_v,
kn_sh,
kn_ss,
kn_s,

glyphs = (
{
color = (255, 153, 153, 255);
glyphname = kn_am;
layers = (
{
layerId = "CC7AEE9D-2AED-49C0-8074-4E98D62561AB";
shapes = (
{
closed = 1;
nodes = (
(103,2,o),
(41,221,o),
(52,323,cs),
(69,488,o),
(150,544,o),
(247,568,cs),
(388,603,o),
(546,473,o),
(556,331,cs),
(568,171,o),
(470,84,o),
(334,54,cs)
);
},
{
closed = 1;
nodes = (
(393,170,o),
(518,229,o),
(485,383,cs),
(471,450,o),
(388,523,o),
(261,494,cs),
(188,478,o),
(114,424,o),
(100,329,cs),
(80,193,o),
(201,128,o),
(316,153,cs)
);
}
);
width = 607;
}
);
unicode = 3202;
},
{
color = (255, 153, 153, 255);
glyphname = kn_ah;
layers = (
{
layerId = "CC7AEE9D-2AED-49C0-8074-4E98D62561AB";
shapes = (
{
closed = 1;
nodes = (
(109,-159,o),
(44,-66,o),
(51,52,cs),
(58,169,o),
(119,259,o),
(237,260,cs),
(362,261,o),
(457,190,o),
(457,52,cs),
(457,-90,o),
(364,-159,o),
(233,-159,cs)
);
},
{
closed = 1;
nodes = (
(316,-60,o),
(363,-7,o),
(366,50,cs),
(370,130,o),
(341,189,o),
(251,189,cs),
(160,189,o),
(123,116,o),
(122,53,cs),
(122,-10,o),
(170,-60,o),
(251,-60,cs)
);
},
{
closed = 1;
nodes = (
(148,323,o),
(62,395,o),
(63,509,cs),
(64,624,o),
(125,734,o),
(257,730,cs),
(362,727,o),
(483,649,o),
(483,534,cs),
(483,393,o),
(395,311,o),
(256,318,cs)
);
},
{
closed = 1;
nodes = (
(392,569,o),
(339,633,o),
(266,633,cs),
(208,633,o),
(142,588,o),
(142,522,cs),
(142,440,o),
(184,386,o),
(269,386,cs),
(347,386,o),
(392,426,o),
(392,517,cs)
);
}
);
width = 533;
}
);
unicode = 3203;
},
{
color = (255, 153, 153, 255);
glyphname = kn_a;
layers = (
{
layerId = "CC7AEE9D-2AED-49C0-8074-4E98D62561AB";
shapes = (
{
closed = 1;
nodes = (
(50,515,o),
(121,620,o),
(215,620,cs),
(304,620,o),
(339,549,o),
(339,475,cs),
(339,388,o),
(292,340,o),
(215,341,cs),
(151,342,o),
(107,378,o),
(95,399,c),
(91,200,o),
(259,100,o),
(407,100,cs),
(579,100,o),
(779,219,o),
(716,439,cs),
(690,530,o),
(625,531,o),
(582,531,cs),
(537,531,o),
(504,502,o),
(504,446,cs),
(504,396,o),
(519,370,o),
(572,356,cs),
(594,350,o),
(598,347,o),
(602,329,cs),
(604,319,o),
(608,285,o),
(589,285,cs),
(559,285,o),
(350,285,o),
(324,285,cs),
(296,285,o),
(305,356,o),
(356,356,cs),
(371,356,o),
(412,355,o),
(445,356,c),
(429,413,o),
(437,470,o),
(440,488,cs),
(455,565,o),
(518,620,o),
(582,620,cs),
(662,620,o),
(727,564,o),
(760,439,cs),
(824,193,o),
(650,0,o),
(407,0,cs),
(177,0,o),
(23,211,o),
(42,426,cs)
);
},
{
closed = 1;
nodes = (
(244,426,o),
(275,452,o),
(275,475,cs),
(275,510,o),
(248,531,o),
(215,531,cs),
(177,531,o),
(156,510,o),
(156,475,cs),
(156,453,o),
(183,426,o),
(215,426,cs)
);
}
);
width = 814;
}
);
unicode = 3205;
},
{
color = (255, 153, 153, 255);
glyphname = kn_aa;
layers = (
{
guides = (
{
locked = 1;
position = "{0, 733}";
}
);
layerId = "CC7AEE9D-2AED-49C0-8074-4E98D62561AB";
shapes = (
{
closed = 1;
nodes = (
(58,501,o),
(89,620,o),
(219,620,cs),
(293,620,o),
(355,586,o),
(355,474,cs),
(355,406,o),
(287,348,o),
(219,348,cs),
(144,348,o),
(122,391,o),
(104,418,c),
(86,342,o),
(132,100,o),
(391,100,cs),
(515,100,o),
(640,186,o),
(640,281,cs),
(640,301,o),
(640,346,o),
(617,379,cs),
(605,396,o),
(550,399,o),
(498,399,cs),
(445,399,o),
(427,399,o),
(413,399,cs),
(405,399,o),
(395,445,o),
(427,445,cs),
(440,445,o),
(471,445,o),
(500,445,cs),
(587,445,o),
(518,457,o),
(518,533,cs),
(518,610,o),
(571,683,o),
(649,683,cs),
(738,683,o),
(810,656,o),
(810,533,cs),
(810,451,o),
(747,383,o),
(671,383,cs),
(657,383,o),
(714,324,o),
(714,263,cs),
(714,89,o),
(532,1,o),
(391,1,cs),
(167,0,o),
(7,239,o),
(47,444,cs)
);
},
{
closed = 1;
nodes = (
(277,530,o),
(248,539,o),
(219,539,cs),
(179,539,o),
(169,513,o),
(169,490,cs),
(169,461,o),
(187,440,o),
(219,440,cs),
(246,440,o),
(277,451,o),
(277,490,cs)
);
},
{
closed = 1;
nodes = (
(713,438,o),
(727,494,o),
(727,533,cs),
(727,604,o),
(695,634,o),
(649,634,cs),
(594,634,o),
(574,581,o),
(574,533,cs),
(574,483,o),
(619,438,o),
(642,438,cs)
);
}
);
width = 850;
}
);
unicode = 3206;
},
{
color = (255, 153, 153, 255);
glyphname = kn_i;
layers = (
{
layerId = "CC7AEE9D-2AED-49C0-8074-4E98D62561AB";
shapes = (
{
closed = 1;
nodes = (
(867,-134,o),
(851,-19,o),
(833,44,cs),
(825,73,o),
(787,129,o),
(783,120,cs),
(768,86,o),
(695,14,o),
(608,0,cs),
(485,-20,o),
(424,51,o),
(424,118,cs),
(424,208,o),
(538,276,o),
(622,271,cs),
(740,264,o),
(768,202,o),
(771,205,cs),
(802,236,o),
(821,305,o),
(821,354,cs),
(821,453,o),
(765,520,o),
(636,520,cs),
(570,520,o),
(484,464,o),
(463,401,cs),
(448,358,o),
(458,344,o),
(458,313,cs),
(458,270,o),
(405,270,o),
(405,313,cs),
(405,344,o),
(425,357,o),
(405,401,cs),
(369,480,o),
(316,524,o),
(221,507,cs),
(163,497,o),
(92,420,o),
(129,322,cs),
(144,282,o),
(198,221,o),
(205,192,cs),
(212,163,o),
(193,133,o),
(159,152,cs),
(63,206,o),
(30,325,o),
(43,429,cs),
(60,545,o),
(152,620,o),
(260,620,cs),
(328,620,o),
(389,567,o),
(415,510,cs),
(440,456,o),
(429,456,o),
(464,510,cs),
(496,560,o),
(561,620,o),
(636,620,cs),
(780,620,o),
(875,494,o),
(875,354,cs),
(875,261,o),
(830,191,o),
(806,161,cs),
(798,151,o),
(854,94,o),
(881,40,cs),
(925,-48,o),
(937,-141,o),
(931,-164,cs),
(924,-195,o),
(867,-213,o),
(867,-174,cs)
);
},
{
closed = 1;
nodes = (
(686,112,o),
(739,163,o),
(735,170,cs),
(725,187,o),
(675,213,o),
(622,214,cs),
(540,216,o),
(463,163,o),
(518,114,cs),
(545,90,o),
(579,96,o),
(608,100,cs)
);
}
);
width = 973;
}
);
unicode = 3207;
},
{
color = (255, 153, 153, 255);
glyphname = kn_ii;
layers = (
{
guides = (
{
locked = 1;
position = "{0, -310}";
}
);
layerId = "CC7AEE9D-2AED-49C0-8074-4E98D62561AB";
shapes = (
{
closed = 1;
nodes = (
(830,11,o),
(943,72,o),
(960,82,cs),
(1065,145,o),
(872,246,o),
(841,269,cs),
(827,280,o),
(818,276,o),
(660,264,cs),
(592,259,o),
(164,276,o),
(140,270,cs),
(114,264,o),
(103,267,o),
(74,292,cs),
(44,318,o),
(33,345,o),
(46,355,cs),
(70,373,o),
(135,346,o),
(167,346,cs),
(261,346,o),
(673,331,o),
(722,332,cs),
(832,335,o),
(773,320,o),
(762,394,cs),
(749,486,o),
(781,550,o),
(854,587,cs),
(943,633,o),
(1057,566,o),
(1080,487,cs),
(1141,277,o),
(889,303,o),
(906,287,cs),
(945,251,o),
(1043,246,o),
(1077,160,cs),
(1099,104,o),
(1084,26,o),
(1021,3,cs),
(1010,-1,o),
(909,-4,o),
(890,0,cs)
);
},
{
closed = 1;
nodes = (
(966,358,o),
(1018,399,o),
(992,470,cs),
(972,525,o),
(902,532,o),
(866,508,cs),
(825,480,o),
(809,442,o),
(816,397,cs),
(827,321,o),
(868,342,o),
(893,346,cs)
);
},
{
closed = 1;
nodes = (
(307,0,o),
(174,123,o),
(174,265,cs),
(174,413,o),
(258,510,o),
(284,535,c),
(271,535,o),
(180,535,o),
(149,535,cs),
(91,535,o),
(76,635,o),
(158,635,cs),
(297,635,o),
(294,635,o),
(422,635,cs),
(596,635,o),
(629,633,o),
(655,658,cs),
(680,681,o),
(700,749,o),
(647,807,cs),
(627,829,o),
(677,861,o),
(701,835,cs),
(701,835,o),
(767,751,o),
(748,657,cs),
(731,569,o),
(653,537,o),
(608,537,cs),
(602,537,o),
(605,536,o),
(608,534,cs),
(660,494,o),
(727,421,o),
(727,265,cs),
(727,108,o),
(618,0,o),
(446,0,cs)
);
},
{
closed = 1;
nodes = (
(569,100,o),
(687,220,o),
(670,353,cs),
(661,421,o),
(605,509,o),
(548,520,cs),
(506,528,o),
(392,529,o),
(336,520,cs),
(283,511,o),
(239,400,o),
(233,353,cs),
(214,215,o),
(316,100,o),
(446,100,cs)
);
}
);
width = 1130;
}
);
unicode = 3208;
},
{
color = (255, 153, 153, 255);
glyphname = kn_u;
layers = (
{
layerId = "CC7AEE9D-2AED-49C0-8074-4E98D62561AB";
shapes = (
{
closed = 1;
nodes = (
(141,0,o),
(70,116,o),
(54,177,cs),
(27,276,o),
(42,418,o),
(95,509,cs),
(109,534,o),
(192,665,o),
(303,604,cs),
(339,585,o),
(354,545,o),
(354,504,cs),
(354,423,o),
(314,379,o),
(230,379,cs),
(171,379,o),
(127,434,o),
(121,427,cs),
(101,403,o),
(101,303,o),
(101,286,cs),
(103,155,o),
(181,100,o),
(277,100,cs),
(446,100,o),
(448,260,o),
(448,344,cs),
(448,433,o),
(456,531,o),
(549,577,cs),
(598,601,o),
(658,593,o),
(701,557,cs),
(805,469,o),
(755,376,o),
(764,269,cs),
(770,195,o),
(828,100,o),
(913,100,cs),
(1094,100,o),
(1086,359,o),
(989,494,cs),
(940,563,o),
(862,544,o),
(862,585,cs),
(862,611,o),
(901,621,o),
(921,621,cs),
(958,621,o),
(1023,591,o),
(1063,520,cs),
(1167,336,o),
(1156,0,o),
(905,0,cs),
(756,0,o),
(713,142,o),
(713,272,cs),
(713,346,o),
(713,487,o),
(603,487,cs),
(544,487,o),
(513,421,o),
(499,344,cs),
(474,208,o),
(528,0,o),
(278,0,cs)
);
},
{
closed = 1;
nodes = (
(267,531,o),
(251,540,o),
(226,542,cs),
(203,544,o),
(180,523,o),
(180,497,cs),
(180,476,o),
(183,449,o),
(247,453,cs),
(273,455,o),
(303,479,o),
(283,508,cs)
);
}
);
width = 1165;
}
);
unicode = 3209;
},
{
color = (255, 153, 153, 255);
glyphname = kn_uu;
layers = (
{
layerId = "CC7AEE9D-2AED-49C0-8074-4E98D62561AB";
shapes = (
{
closed = 1;
nodes = (
(778,312,o),
(764,514,o),
(656,513,cs),
(563,512,o),
(561,336,o),
(562,268,cs),
(564,121,o),
(465,0,o),
(275,0,cs),
(77,0,o),
(26,226,o),
(44,410,cs),
(51,486,o),
(112,595,o),
(188,620,cs),
(258,643,o),
(347,597,o),
(368,525,cs),
(390,447,o),
(346,353,o),
(237,364,cs),
(166,371,o),
(134,437,o),
(113,468,cs),
(106,479,o),
(81,415,o),
(81,306,cs),
(81,213,o),
(149,122,o),
(239,100,cs),
(346,73,o),
(492,141,o),
(502,262,cs),
(512,372,o),
(473,558,o),
(590,613,cs),
(628,631,o),
(675,629,o),
(714,613,cs),
(809,575,o),
(833,453,o),
(831,338,cs),
(827,111,o),
(941,92,o),
(968,92,cs),
(1104,93,o),
(1097,207,o),
(1064,336,cs),
(1035,448,o),
(1044,639,o),
(1196,650,cs),
(1288,656,o),
(1389,588,o),
(1442,484,cs),
(1507,354,o),
(1497,161,o),
(1385,57,cs),
(1372,45,o),
(1351,54,o),
(1346,65,cs),
(1325,111,o),
(1457,167,o),
(1420,376,cs),
(1398,503,o),
(1284,624,o),
(1177,539,cs),
(1110,486,o),
(1135,289,o),
(1155,207,cs),
(1189,62,o),
(1070,-8,o),
(968,-8,cs),
(852,-8,o),
(800,144,o),
(787,240,cs)
);
},
{
closed = 1;
nodes = (
(321,435,o),
(326,461,o),
(303,491,cs),
(260,550,o),
(158,531,o),
(158,488,cs),
(158,444,o),
(247,405,o),
(291,423,cs)
);
}
);
width = 1523;
}
);
unicode = 3210;
},
{
color = (255, 153, 153, 255);
glyphname = kn_r_ext;
layers = (
{
layerId = "CC7AEE9D-2AED-49C0-8074-4E98D62561AB";
shapes = (
{
closed = 1;
nodes = (
(164,300,o),
(280,300,o),
(300,213,cs),
(317,142,o),
(285,92,o),
(241,80,cs),
(229,77,o),
(316,38,o),
(399,103,cs),
(516,194,o),
(480,366,o),
(400,464,cs),
(365,507,o),
(288,537,o),
(289,524,cs),
(293,492,o),
(312,377,o),
(217,356,cs),
(95,330,o),
(51,408,o),
(42,474,cs),
(27,576,o),
(120,620,o),
(203,620,cs),
(298,620,o),
(352,591,o),
(415,518,cs),
(524,390,o),
(544,302,o),
(549,294,cs),
(594,229,o),
(598,125,o),
(694,116,cs),
(741,112,o),
(787,160,o),
(796,205,cs),
(815,304,o),
(771,413,o),
(699,482,cs),
(653,527,o),
(549,563,o),
(439,563,cs),
(426,563,o),
(371,665,o),
(414,665,cs),
(454,665,o),
(566,665,o),
(629,665,cs),
(656,665,o),
(672,668,o),
(676,670,cs),
(775,715,o),
(734,792,o),
(700,832,cs),
(690,844,o),
(710,861,o),
(724,852,cs),
(783,813,o),
(821,763,o),
(821,706,cs),
(821,607,o),
(743,567,o),
(701,567,cs),
(662,567,l),
(664,575,l),
(740,513,o),
(854,394,o),
(851,231,cs),
(851,214,o),
(851,217,o),
(853,212,cs),
(871,173,o),
(910,109,o),
(944,95,cs),
(1090,37,o),
(1106,418,o),
(916,522,cs),
(875,544,o),
(866,553,o),
(866,575,cs),
(866,581,o),
(870,589,o),
(875,593,cs),
(886,602,o),
(901,599,o),
(921,585,cs),
(1058,493,o),
(1114,428,o),
(1133,277,cs),
(1149,153,o),
(1106,61,o),
(1070,30,cs),
(1032,-3,o),
(982,-3,o),
(937,21,cs),
(864,59,o),
(852,126,o),
(841,155,cs),
(836,168,o),
(839,168,o),
(828,139,cs),
(803,68,o),
(775,16,o),
(694,16,cs),
(638,16,o),
(591,72,o),
(570,122,cs),
(546,177,o),
(551,178,o),
(529,146,cs),
(453,39,o),
(355,0,o),
(289,0,cs),
(212,0,o),
(149,35,o),
(113,102,cs),
(89,145,o),
(87,199,o),
(120,237,c)
);
},
{
closed = 1;
nodes = (
(241,467,o),
(218,521,o),
(173,527,cs),
(146,530,o),
(120,514,o),
(115,488,cs),
(108,457,o),
(130,441,o),
(147,434,cs),
(168,426,o),
(196,421,o),
(210,436,cs)
);
},
{
closed = 1;
nodes = (
(152,150,o),
(178,117,o),
(217,120,cs),
(242,122,o),
(255,144,o),
(257,160,cs),
(261,201,o),
(233,235,o),
(188,232,cs),
(165,230,o),
(152,208,o),
(152,178,cs)
);
}
);
width = 1177;
}
);
unicode = 3211;
},
{
color = (255, 153, 153, 255);
glyphname = kn_e;
layers = (
{
layerId = "CC7AEE9D-2AED-49C0-8074-4E98D62561AB";
shapes = (
{
closed = 1;
nodes = (
(11,176,o),
(72,345,o),
(195,322,cs),
(312,301,o),
(295,196,o),
(340,132,cs),
(377,81,o),
(453,80,o),
(515,116,cs),
(713,230,o),
(559,592,o),
(408,754,cs),
(397,765,o),
(468,816,o),
(478,806,cs),
(525,760,o),
(630,514,o),
(654,400,cs),
(678,281,o),
(662,76,o),
(544,19,cs),
(512,4,o),
(483,-1,o),
(437,8,cs),
(380,18,o),
(339,59,o),
(298,96,c),
(310,96,l),
(283,66,o),
(261,36,o),
(224,18,cs),
(152,-18,o),
(85,2,o),
(54,75,cs)
);
},
{
closed = 1;
nodes = (
(267,105,o),
(272,164,o),
(239,197,cs),
(216,219,o),
(190,242,o),
(150,231,cs),
(115,222,o),
(96,171,o),
(119,138,cs),
(139,111,o),
(181,81,o),
(216,91,cs)
);
}
);
width = 704;
}
);
unicode = 3214;
},
{
color = (255, 153, 153, 255);
glyphname = kn_ee;
layers = (
{
layerId = "CC7AEE9D-2AED-49C0-8074-4E98D62561AB";
shapes = (
{
closed = 1;
nodes = (
(67,172,o),
(127,337,o),
(247,315,cs),
(361,294,o),
(344,190,o),
(389,129,cs),
(424,78,o),
(494,77,o),
(553,111,cs),
(749,224,o),
(570,581,o),
(375,657,cs),
(361,662,o),
(398,698,o),
(411,691,cs),
(485,655,o),
(651,487,o),
(682,333,cs),
(697,259,o),
(704,73,o),
(588,18,cs),
(557,3,o),
(529,-1,o),
(484,7,cs),
(428,17,o),
(388,57,o),
(348,94,c),
(359,94,l),
(333,64,o),
(312,35,o),
(275,17,cs),
(205,-18,o),
(139,2,o),
(109,73,cs)
);
},
{
closed = 1;
nodes = (
(317,102,o),
(322,160,o),
(290,192,cs),
(268,214,o),
(242,236,o),
(203,226,cs),
(169,217,o),
(150,167,o),
(173,135,cs),
(192,108,o),
(233,79,o),
(268,89,cs)
);
},
{
closed = 1;
nodes = (
(425,640,o),
(274,470,o),
(140,523,cs),
(8,576,o),
(24,796,o),
(91,902,cs),
(244,1144,o),
(512,1050,o),
(658,864,cs),
(680,836,o),
(696,809,o),
(700,791,cs),
(706,762,o),
(675,753,o),
(662,771,cs),
(647,793,o),
(643,820,o),
(630,840,cs),
(494,1049,o),
(203,1053,o),
(130,832,cs),
(103,750,o),
(117,642,o),
(162,604,cs),
(219,556,o),
(355,597,o),
(379,671,c),
(399,666,o),
(404,673,o),
(425,640,c)
);
}
);
width = 741;
}
);
unicode = 3215;
},
{
color = (255, 153, 153, 255);
glyphname = kn_ai;
layers = (
{
layerId = "CC7AEE9D-2AED-49C0-8074-4E98D62561AB";
shapes = (
{
closed = 1;
nodes = (
(133,0,o),
(57,65,o),
(76,159,cs),
(86,211,o),
(129,268,o),
(190,286,cs),
(272,311,o),
(328,260,o),
(373,201,cs),
(431,124,o),
(473,100,o),
(530,100,cs),
(708,100,o),
(731,350,o),
(637,433,cs),
(600,466,o),
(513,496,o),
(437,411,cs),
(420,393,o),
(422,371,o),
(407,371,cs),
(395,371,o),
(390,395,o),
(385,424,cs),
(372,508,o),
(285,540,o),
(218,531,cs),
(142,521,o),
(66,453,o),
(79,374,cs),
(80,365,o),
(65,358,o),
(61,364,cs),
(-1,463,o),
(89,626,o),
(221,626,cs),
(310,626,o),
(380,558,o),
(423,477,c),
(470,524,o),
(527,573,o),
(600,557,cs),
(659,546,o),
(717,496,o),
(745,425,cs),
(809,260,o),
(702,0,o),
(533,0,cs),
(476,0,o),
(424,39,o),
(393,101,cs),
(359,168,o),
(322,212,o),
(317,212,cs),
(314,212,o),
(330,182,o),
(337,138,cs),
(349,59,o),
(294,0,o),
(213,0,cs)
);
},
{
closed = 1;
nodes = (
(254,81,o),
(293,87,o),
(297,138,cs),
(300,176,o),
(276,205,o),
(229,214,cs),
(194,221,o),
(157,201,o),
(150,168,cs),
(139,117,o),
(181,65,o),
(242,78,cs)
);
}
);
width = 804;
}
);
unicode = 3216;
},
{
color = (255, 153, 153, 255);
glyphname = kn_o;
layers = (
{
guides = (
{
position = "{0, 100}";
}
);
layerId = "CC7AEE9D-2AED-49C0-8074-4E98D62561AB";
shapes = (
{
closed = 1;
nodes = (
(405,48,o),
(322,0,o),
(219,0,cs),
(78,0,o),
(23,168,o),
(187,286,cs),
(231,317,o),
(322,397,o),
(321,469,cs),
(319,630,o),
(59,569,o),
(109,408,cs),
(120,373,o),
(127,344,o),
(95,351,cs),
(41,363,o),
(34,440,o),
(45,489,cs),
(63,570,o),
(141,620,o),
(227,619,cs),
(342,617,o),
(403,525,o),
(383,448,cs),
(350,316,o),
(82,224,o),
(179,123,cs),
(188,113,o),
(203,107,o),
(220,103,cs),
(339,76,o),
(437,168,o),
(437,264,cs),
(437,285,o),
(469,283,o),
(469,262,cs),
(469,234,o),
(500,100,o),
(597,100,cs),
(720,100,o),
(760,225,o),
(708,332,cs),
(693,361,o),
(663,405,o),
(624,405,cs),
(587,405,o),
(606,443,o),
(636,443,cs),
(699,443,o),
(736,397,o),
(761,344,cs),
(824,212,o),
(772,0,o),
(612,0,cs),
(522,0,o),
(475,47,o),
(451,123,c)
);
}
);
width = 828;
}
);
unicode = 3218;
},
{
color = (255, 153, 153, 255);
glyphname = kn_oo;
layers = (
{
layerId = "CC7AEE9D-2AED-49C0-8074-4E98D62561AB";
shapes = (
{
closed = 1;
nodes = (
(405,48,o),
(322,0,o),
(219,0,cs),
(78,0,o),
(23,168,o),
(187,286,cs),
(231,317,o),
(322,397,o),
(321,469,cs),
(319,630,o),
(59,569,o),
(109,408,cs),
(120,373,o),
(127,344,o),
(95,351,cs),
(41,363,o),
(34,440,o),
(45,489,cs),
(63,570,o),
(141,620,o),
(229,619,cs),
(342,617,o),
(381,532,o),
(371,465,cs),
(350,316,o),
(82,224,o),
(179,123,cs),
(188,113,o),
(203,107,o),
(220,103,cs),
(339,76,o),
(437,168,o),
(437,264,cs),
(437,285,o),
(469,283,o),
(469,262,cs),
(469,234,o),
(500,100,o),
(597,100,cs),
(720,100,o),
(760,225,o),
(708,332,cs),
(693,361,o),
(663,405,o),
(624,405,cs),
(587,405,o),
(606,443,o),
(636,443,cs),
(699,443,o),
(736,397,o),
(761,344,cs),
(824,212,o),
(772,0,o),
(612,0,cs),
(522,0,o),
(475,47,o),
(451,123,c)
);
},
{
closed = 1;
nodes = (
(196,646,o),
(162,689,o),
(144,731,cs),
(129,766,o),
(134,803,o),
(149,838,cs),
(170,889,o),
(240,928,o),
(295,921,cs),
(375,910,o),
(471,800,o),
(488,724,cs),
(496,687,o),
(494,671,o),
(481,671,cs),
(466,671,o),
(452,688,o),
(446,713,cs),
(428,788,o),
(318,888,o),
(253,800,cs),
(221,756,o),
(245,651,o),
(273,607,c),
(252,608,o),
(245,608,o),
(225,610,c)
);
}
);
width = 828;
}
);
unicode = 3219;
},
{
color = (255, 153, 153, 255);
glyphname = kn_au;
layers = (
{
layerId = "CC7AEE9D-2AED-49C0-8074-4E98D62561AB";
shapes = (
{
closed = 1;
nodes = (
(444,48,o),
(361,0,o),
(258,0,cs),
(117,0,o),
(62,168,o),
(226,286,cs),
(270,317,o),
(361,397,o),
(360,469,cs),
(358,630,o),
(98,569,o),
(148,408,cs),
(159,373,o),
(166,344,o),
(134,351,cs),
(80,363,o),
(73,440,o),
(84,489,cs),
(102,570,o),
(180,620,o),
(274,619,cs),
(381,617,o),
(440,549,o),
(422,467,cs),
(389,316,o),
(121,224,o),
(218,123,cs),
(227,113,o),
(242,107,o),
(259,103,cs),
(378,76,o),
(476,168,o),
(476,264,cs),
(476,285,o),
(508,283,o),
(508,262,cs),
(508,234,o),
(539,100,o),
(636,100,cs),
(759,100,o),
(799,225,o),
(747,332,cs),
(732,361,o),
(702,405,o),
(663,405,cs),
(626,405,o),
(645,443,o),
(675,443,cs),
(738,443,o),
(775,397,o),
(800,344,cs),
(863,212,o),
(811,0,o),
(651,0,cs),
(561,0,o),
(514,47,o),
(490,123,c)
);
},
{
closed = 1;
nodes = (
(87,568,o),
(54,566,o),
(43,564,c),
(43,585,o),
(45,648,o),
(66,661,cs),
(69,663,o),
(91,654,o),
(117,650,cs),
(223,634,o),
(388,642,o),
(397,660,cs),
(411,684,o),
(395,746,o),
(367,758,cs),
(286,793,o),
(87,753,o),
(62,774,cs),
(40,796,o),
(27,851,o),
(63,870,c),
(159,870,o),
(694,873,o),
(778,870,c),
(875,860,o),
(952,777,o),
(952,680,cs),
(952,506,o),
(731,419,o),
(637,554,cs),
(614,586,o),
(608,640,o),
(640,673,cs),
(668,702,o),
(724,714,o),
(752,664,cs),
(785,605,o),
(728,557,o),
(695,573,cs),
(691,575,o),
(686,579,o),
(694,566,cs),
(733,501,o),
(916,511,o),
(887,694,cs),
(879,746,o),
(835,781,o),
(780,786,c),
(737,786,o),
(524,786,o),
(434,786,c),
(464,703,o),
(426,599,o),
(371,578,c),
(328,577,o),
(194,572,o),
(139,570,cs)
);
}
);
width = 992;
}
);
unicode = 3220;
},
{
color = (255, 153, 153, 255);
glyphname = kn_tt;
layers = (
{
guides = (
{
position = "{0, 100}";
}
);
layerId = "CC7AEE9D-2AED-49C0-8074-4E98D62561AB";
shapes = (
{
closed = 1;
nodes = (
(41.49,47.339,o),
(-19.656,330.386,o),
(140.113,449.72,cs),
(150.962,457.61,o),
(159.838,462.541,o),
(159.838,469.445,cs),
(159.838,477.334,o),
(127.292,492.128,o),
(100.664,551.302,cs),
(52.339,660.773,o),
(131.237,787.01,o),
(252.543,786.024,cs),
(281.144,786.024,o),
(310.731,742.63,o),
(296.924,711.07,cs),
(275.227,661.759,o),
(216.053,693.318,o),
(176.604,624.282,cs),
(123.347,531.577,o),
(240.709,493.114,o),
(318.621,516.784,cs),
(375.822,534.536,o),
(419.216,455.637,o),
(414.285,408.298,cs),
(407.381,342.221,o),
(355.111,294.882,o),
(291.992,294.882,cs),
(209.149,294.882,o),
(192.383,359.973,o),
(192.383,408.298,cs),
(192.383,430.982,o),
(148.989,398.436,o),
(134.196,351.097,cs),
(88.829,208.094,o),
(109.54,63.119,o),
(284.103,99.609,cs),
(319.607,106.513,o),
(360.042,143.989,o),
(360.042,179.494,cs),
(360.042,224.86,o),
(423.161,224.86,o),
(423.161,178.507,cs),
(423.161,114.402,o),
(498.114,92.705,o),
(543.481,92.705,cs),
(721.002,92.705,o),
(668.732,364.904,o),
(568.136,408.298,cs),
(529.673,425.064,o),
(517.839,416.188,o),
(490.224,426.051,cs),
(458.665,437.885,o),
(453.734,474.376,o),
(471.486,498.045,cs),
(484.307,514.811,o),
(526.715,519.742,o),
(549.398,519.742,cs),
(674.649,519.742,o),
(640.131,644.007,o),
(558.274,678.525,cs),
(524.742,692.332,o),
(518.825,764.327,o),
(579.971,764.327,cs),
(619.42,764.327,o),
(642.103,736.712,o),
(662.814,706.139,cs),
(683.525,676.552,o),
(770.313,542.425,o),
(610.544,475.362,cs),
(584.902,464.513,o),
(588.847,455.637,o),
(625.337,426.051,cs),
(778.203,305.731,o),
(755.52,-19.725,o),
(524.742,-0.986,cs),
(480.362,2.959,o),
(419.216,28.601,o),
(399.491,83.829,cs),
(385.684,120.32,o),
(381.739,124.265,o),
(360.042,88.761,cs),
(322.565,29.587,o),
(260.433,-19.725,o),
(183.507,3.945,cs)
);
},
{
closed = 1;
nodes = (
(360.042,380.684,o),
(349.194,422.106,o),
(318.621,440.844,cs),
(284.103,461.555,o),
(246.626,446.761,o),
(246.626,422.106,cs),
(246.626,393.505,o),
(263.392,374.767,o),
(277.199,366.877,cs),
(281.144,364.904,o),
(308.758,351.097,o),
(335.386,365.891,cs)
);
}
);
width = 768;
}
);
unicode = 3231;
},
{
color = (169, 255, 153, 255);
glyphname = kn_k.base;
layers = (
{
layerId = "CC7AEE9D-2AED-49C0-8074-4E98D62561AB";
shapes = (
{
closed = 1;
nodes = (
(173,0,o),
(89,212,o),
(220,343,cs),
(254,378,o),
(231,374,o),
(226,374,cs),
(144,374,o),
(128,374,o),
(66,374,cs),
(37,374,o),
(25,454,o),
(70,454,cs),
(80,454,o),
(325,454,o),
(353,454,c),
(356,481,o),
(339,530,o),
(312,530,cs),
(277,530,o),
(172,530,o),
(75,530,cs),
(27,530,o),
(23,630,o),
(85,630,cs),
(494,630,l),
(494,587,o),
(494,567,o),
(494,530,c),
(418,530,l),
(388,530,o),
(404,475,o),
(411,454,c),
(507,454,o),
(575,454,o),
(638,454,cs),
(685,454,o),
(687,374,o),
(634,374,cs),
(594,374,o),
(484,376,o),
(475,376,cs),
(467,376,o),
(470,377,o),
(492,355,cs),
(633,214,o),
(551,0,o),
(347,0,cs)
);
},
{
closed = 1;
nodes = (
(471,169,o),
(490,240,o),
(459,298,cs),
(405,399,o),
(285,355,o),
(251,299,cs),
(217,244,o),
(226,156,o),
(279,119,cs),
(300,104,o),
(369,79,o),
(423,126,cs)
);
}
);
width = 730;
}
);
},
{
color = (169, 255, 153, 255);
glyphname = kn_kh.base;
layers = (
{
guides = (
{
locked = 1;
position = "{0, 683}";
}
);
layerId = "CC7AEE9D-2AED-49C0-8074-4E98D62561AB";
shapes = (
{
closed = 1;
nodes = (
(347.895,245.872,o),
(387.823,193.336,o),
(395.179,195.437,cs),
(461.375,210.147,o),
(508.658,422.396,o),
(367.859,533.774,cs),
(282.75,601.021,o),
(137.748,560.043,o),
(137.748,503.303,cs),
(137.748,480.187,o),
(155.611,519.064,o),
(208.147,508.557,cs),
(251.228,500.151,o),
(260.684,460.223,o),
(260.684,433.954,cs),
(260.684,368.809,o),
(171.372,344.642,o),
(124.088,374.062,cs),
(99.921,388.773,o),
(77.856,417.143,o),
(72.602,453.918,cs),
(42.131,668.269,o),
(300.612,690.334,o),
(431.954,577.905,cs),
(541.231,483.339,o),
(553.84,300.511,o),
(476.085,187.031,cs),
(455.071,156.56,o),
(458.223,155.509,o),
(500.252,133.444,cs),
(540.18,112.429,o),
(580.108,101.921,o),
(614.782,105.074,cs),
(905.837,131.342,o),
(860.655,646.203,o),
(578.007,675.624,cs),
(558.043,677.725,o),
(561.195,702.943,o),
(578.007,711.349,cs),
(595.869,719.755,o),
(599.021,719.755,o),
(634.746,712.4,cs),
(1013.012,634.645,o),
(979.388,71.45,o),
(662.066,18.913,cs),
(599.021,8.406,o),
(496.049,19.964,o),
(455.071,101.921,cs),
(449.817,112.429,o),
(443.512,122.936,o),
(440.36,125.038,cs),
(433.005,129.241,o),
(397.28,109.277,o),
(367.859,84.059,cs),
(328.982,50.435,o),
(302.714,35.725,o),
(256.481,19.964,cs),
(155.611,-13.66,o),
(40.029,18.913,o),
(40.029,141.849,cs),
(40.029,260.583,o),
(194.488,302.612,o),
(289.054,267.938,cs)
);
},
{
closed = 1;
nodes = (
(120.936,232.213,o),
(76.805,151.306,o),
(81.008,129.241,cs),
(91.516,58.841,o),
(236.517,61.993,o),
(323.728,145.002,cs),
(347.895,167.067,o),
(342.642,172.321,o),
(305.866,196.488,cs),
(277.496,214.35,o),
(242.822,228.01,o),
(216.553,229.061,cs)
);
}
);
width = 950;
}
);
},
{
color = (169, 255, 153, 255);
glyphname = kn_g.base;
layers = (
{
layerId = "CC7AEE9D-2AED-49C0-8074-4E98D62561AB";
shapes = (
{
closed = 1;
nodes = (
(93,77,o),
(310,436,o),
(376,506,cs),
(390,520,o),
(420,516,o),
(440,488,cs),
(520,373,o),
(603,216,o),
(701,44,cs),
(719,12,o),
(665,-33,o),
(627,50,cs),
(580,152,o),
(509,297,o),
(451,385,cs),
(427,422,o),
(412,425,o),
(398,403,cs),
(328,297,o),
(256,120,o),
(203,31,cs),
(172,-21,o),
(93,-5,o),
(93,62,cs)
);
},
{
closed = 1;
nodes = (
(75,530,l),
(4,530,o),
(-9,629,o),
(95,630,c),
(560,630,l),
(560,589,o),
(560,565,o),
(560,530,c)
);
}
);
width = 785;
}
);
},
{
color = (169, 255, 153, 255);
glyphname = kn_gh.base;
layers = (
{
guides = (
{
position = "{0, 844}";
}
);
layerId = "CC7AEE9D-2AED-49C0-8074-4E98D62561AB";
shapes = (
{
closed = 1;
nodes = (
(271,-12,o),
(182,42,o),
(187,145,cs),
(192,234,o),
(231,328,o),
(340,328,cs),
(438,328,o),
(450,199,o),
(500,140,cs),
(560,67,o),
(682,21,o),
(763,85,cs),
(876,175,o),
(846,309,o),
(795,431,cs),
(773,483,o),
(733,508,o),
(725,551,cs),
(723,563,o),
(724,588,o),
(743,588,cs),
(810,588,o),
(839,469,o),
(852,445,cs),
(900,361,o),
(952,134,o),
(1031,85,cs),
(1274,-67,o),
(1442,375,o),
(1107,572,cs),
(1031,617,o),
(980,637,o),
(1032,647,cs),
(1166,672,o),
(1289,520,o),
(1326,462,cs),
(1383,372,o),
(1410,212,o),
(1343,77,cs),
(1306,3,o),
(1191,-54,o),
(1093,-37,cs),
(962,-15,o),
(902,172,o),
(902,170,cs),
(895,126,o),
(896,79,o),
(837,14,cs),
(764,-67,o),
(622,-30,o),
(571,6,cs),
(524,39,o),
(467,104,o),
(445,74,cs),
(422,42,o),
(405,0,o),
(350,-5,cs)
);
},
{
closed = 1;
nodes = (
(459,66,o),
(490,55,o),
(506,3,cs),
(520,-44,o),
(544,-135,o),
(555,-172,cs),
(572,-228,o),
(582,-281,o),
(561,-306,cs),
(545,-324,o),
(495,-340,o),
(473,-318,cs),
(425,-270,o),
(448,-77,o),
(454,-1,cs)
);
},
{
closed = 1;
nodes = (
(431,138,o),
(409,191,o),
(381,217,cs),
(359,239,o),
(297,245,o),
(271,221,cs),
(234,186,o),
(246,136,o),
(282,105,cs),
(310,81,o),
(360,80,o),
(391,105,cs)
);
},
{
closed = 1;
nodes = (
(233,383,o),
(249,518,o),
(286,518,cs),
(303,518,o),
(194,518,o),
(105,518,cs),
(12,518,o),
(29,618,o),
(95,618,c),
(459,618,l),
(459,585,o),
(459,551,o),
(459,518,c),
(395,518,l),
(415,518,o),
(442,383,o),
(333,383,cs)
);
}
);
width = 1423;
}
);
},
{
color = (169, 255, 153, 255);
glyphname = kn_gh.base2;
layers = (
{
guides = (
{
position = "{0, 844}";
}
);
layerId = "CC7AEE9D-2AED-49C0-8074-4E98D62561AB";
shapes = (
{
closed = 1;
nodes = (
(271,-12,o),
(182,42,o),
(187,145,cs),
(192,234,o),
(231,328,o),
(340,328,cs),
(438,328,o),
(450,199,o),
(500,140,cs),
(560,67,o),
(682,21,o),
(763,85,cs),
(876,175,o),
(846,309,o),
(795,431,cs),
(773,483,o),
(733,508,o),
(725,551,cs),
(723,563,o),
(724,588,o),
(743,588,cs),
(810,588,o),
(839,469,o),
(852,445,cs),
(900,361,o),
(952,134,o),
(1031,85,cs),
(1274,-67,o),
(1442,375,o),
(1107,572,cs),
(1031,617,o),
(980,637,o),
(1032,647,cs),
(1166,672,o),
(1289,520,o),
(1326,462,cs),
(1383,372,o),
(1410,212,o),
(1343,77,cs),
(1306,3,o),
(1191,-54,o),
(1093,-37,cs),
(962,-15,o),
(902,172,o),
(902,170,cs),
(895,126,o),
(896,79,o),
(837,14,cs),
(764,-67,o),
(622,-30,o),
(571,6,cs),
(524,39,o),
(467,104,o),
(445,74,cs),
(422,42,o),
(405,0,o),
(350,-5,cs)
);
},
{
closed = 1;
nodes = (
(459,66,o),
(490,55,o),
(506,3,cs),
(520,-44,o),
(544,-135,o),
(555,-172,cs),
(572,-228,o),
(582,-281,o),
(561,-306,cs),
(545,-324,o),
(495,-340,o),
(473,-318,cs),
(425,-270,o),
(448,-77,o),
(454,-1,cs)
);
},
{
closed = 1;
nodes = (
(431,138,o),
(409,191,o),
(381,217,cs),
(359,239,o),
(297,245,o),
(271,221,cs),
(234,186,o),
(246,136,o),
(282,105,cs),
(310,81,o),
(360,80,o),
(391,105,cs)
);
}
);
width = 1423;
}
);
},
{
color = (169, 255, 153, 255);
glyphname = kn_ng.base;
layers = (
{
guides = (
{
position = "{0, 620}";
}
);
layerId = "CC7AEE9D-2AED-49C0-8074-4E98D62561AB";
shapes = (
{
closed = 1;
nodes = (
(405,48,o),
(322,0,o),
(219,0,cs),
(78,0,o),
(23,168,o),
(187,286,cs),
(231,317,o),
(322,397,o),
(321,469,cs),
(319,630,o),
(59,569,o),
(109,408,cs),
(120,373,o),
(127,344,o),
(95,351,cs),
(41,363,o),
(34,440,o),
(45,489,cs),
(63,570,o),
(141,620,o),
(239,619,cs),
(342,617,o),
(414,560,o),
(390,469,cs),
(350,316,o),
(82,224,o),
(179,123,cs),
(188,113,o),
(203,107,o),
(220,103,cs),
(339,76,o),
(437,168,o),
(437,264,cs),
(437,285,o),
(469,283,o),
(469,262,cs),
(469,234,o),
(500,100,o),
(597,100,cs),
(709,100,o),
(715,171,o),
(698,252,cs),
(694,271,o),
(673,285,o),
(664,285,cs),
(627,285,o),
(646,323,o),
(676,323,cs),
(709,323,o),
(736,307,o),
(751,264,cs),
(791,148,o),
(760,0,o),
(612,0,cs),
(522,0,o),
(475,47,o),
(451,123,c)
);
},
{
closed = 1;
nodes = (
(368,489,l),
(544,479,o),
(470,661,o),
(582,660,cs),
(668,660,o),
(751,459,o),
(762,388,cs),
(767,354,o),
(719,368,o),
(714,377,cs),
(688,424,o),
(639,559,o),
(581,561,cs),
(524,562,o),
(512,411,o),
(358,411,c)
);
}
);
width = 807;
}
);
},
{
color = (169, 255, 153, 255);
glyphname = kn_c.base;
layers = (
{
layerId = "CC7AEE9D-2AED-49C0-8074-4E98D62561AB";
shapes = (
{
closed = 1;
nodes = (
(0,504,o),
(72,577,o),
(125,601,cs),
(227,646,o),
(328,614,o),
(375,512,cs),
(401,454,o),
(396,408,o),
(368,377,cs),
(318,320,o),
(80,259,o),
(154,138,cs),
(208,49,o),
(377,89,o),
(426,183,cs),
(431,192,o),
(436,248,o),
(455,248,cs),
(476,248,o),
(483,133,o),
(559,100,cs),
(713,34,o),
(804,204,o),
(784,259,cs),
(753,343,o),
(537,311,o),
(504,311,cs),
(487,311,o),
(487,378,o),
(510,378,cs),
(544,378,o),
(699,378,o),
(721,378,cs),
(735,378,o),
(735,501,o),
(681,501,cs),
(616,501,o),
(526,501,o),
(499,501,cs),
(437,501,o),
(437,601,o),
(499,601,cs),
(507,601,o),
(608,601,o),
(656,601,cs),
(689,601,o),
(719,601,o),
(744,601,c),
(744,567,o),
(744,530,o),
(744,501,c),
(734,501,o),
(754,487,o),
(766,463,cs),
(787,422,o),
(783,378,o),
(802,378,cs),
(834,378,o),
(914,378,o),
(953,378,cs),
(971,378,o),
(981,363,o),
(981,343,cs),
(981,326,o),
(972,311,o),
(949,311,cs),
(914,311,o),
(897,311,o),
(880,311,cs),
(847,311,o),
(811,306,o),
(826,264,cs),
(874,131,o),
(710,-55,o),
(580,-3,cs),
(494,31,o),
(479,140,o),
(464,140,cs),
(451,140,o),
(340,-55,o),
(178,11,cs),
(85,49,o),
(59,109,o),
(59,187,cs),
(59,361,o),
(344,347,o),
(349,460,cs),
(352,530,o),
(249,553,o),
(196,540,cs),
(176,535,o),
(106,517,o),
(119,440,cs),
(124,410,o),
(148,403,o),
(148,389,cs),
(148,351,o),
(106,361,o),
(68,412,cs)
);
}
);
width = 1021;
}
);
},
{
color = (169, 255, 153, 255);
glyphname = kn_ch.base;
layers = (
{
layerId = "CC7AEE9D-2AED-49C0-8074-4E98D62561AB";
shapes = (
{
closed = 1;
nodes = (
(20,538,o),
(46,638,o),
(122,638,cs),
(298,638,o),
(430,638,o),
(606,638,cs),
(619,638,o),
(631,638,o),
(642,638,c),
(642,612,o),
(642,578,o),
(642,552,c),
(605,552,o),
(629,538,o),
(660,511,cs),
(850,345,o),
(880,19,o),
(677,12,cs),
(574,8,o),
(503,151,o),
(482,147,cs),
(475,146,o),
(477,136,o),
(477,113,cs),
(478,54,o),
(500,35,o),
(516,3,cs),
(530,-26,o),
(516,-65,o),
(492,-78,cs),
(456,-97,o),
(394,-103,o),
(394,-35,cs),
(394,5,o),
(446,109,o),
(446,131,cs),
(446,147,o),
(442,154,o),
(429,138,cs),
(393,95,o),
(320,-16,o),
(187,19,cs),
(41,59,o),
(33,292,o),
(94,399,cs),
(126,455,o),
(198,522,o),
(322,508,cs),
(375,502,o),
(421,474,o),
(416,411,cs),
(401,309,o),
(256,253,o),
(205,363,cs),
(190,394,o),
(188,396,o),
(174,396,cs),
(85,396,o),
(99,156,o),
(222,121,cs),
(307,97,o),
(429,144,o),
(429,242,cs),
(429,302,o),
(499,289,o),
(499,244,cs),
(499,182,o),
(568,100,o),
(628,100,cs),
(793,100,o),
(795,302,o),
(634,445,cs),
(543,526,o),
(503,538,o),
(427,538,cs),
(348,538,o),
(79,538,o),
(57,538,cs)
);
},
{
closed = 1;
nodes = (
(347,434,o),
(325,451,o),
(304,453,cs),
(279,455,o),
(243,436,o),
(243,404,cs),
(243,377,o),
(253,358,o),
(289,354,cs),
(318,351,o),
(360,370,o),
(352,409,cs)
);
}
);
width = 869;
}
);
},
{
color = (169, 255, 153, 255);
glyphname = kn_j.base;
layers = (
{
guides = (
{
position = "{0, 100}";
}
);
layerId = "CC7AEE9D-2AED-49C0-8074-4E98D62561AB";
shapes = (
{
closed = 1;
nodes = (
(127,0,o),
(71,16,o),
(45,131,cs),
(14,275,o),
(141,314,o),
(244,350,cs),
(304,372,o),
(346,418,o),
(317,488,cs),
(262,620,o),
(71,560,o),
(121,415,cs),
(129,391,o),
(50,384,o),
(50,428,cs),
(50,716,o),
(417,671,o),
(378,405,cs),
(374,388,o),
(379,393,o),
(422,383,cs),
(688,320,o),
(688,464,o),
(612,646,cs),
(604,665,o),
(646,678,o),
(652,668,cs),
(713,567,o),
(755,381,o),
(628,315,cs),
(524,259,o),
(379,338,o),
(303,325,cs),
(240,314,o),
(167,297,o),
(123,253,cs),
(79,210,o),
(96,118,o),
(174,100,cs),
(232,87,o),
(343,130,o),
(362,184,cs),
(363,186,o),
(358,196,o),
(349,202,cs),
(339,209,o),
(340,225,o),
(346,234,cs),
(364,261,o),
(389,239,o),
(389,194,cs),
(389,119,o),
(460,93,o),
(524,100,cs),
(560,104,o),
(594,124,o),
(612,161,cs),
(616,170,o),
(620,194,o),
(613,206,cs),
(606,218,o),
(616,232,o),
(627,237,cs),
(648,247,o),
(666,229,o),
(666,166,cs),
(666,95,o),
(602,0,o),
(525,0,cs),
(412,-1,o),
(394,95,o),
(383,125,cs),
(378,139,o),
(378,155,o),
(361,129,cs),
(330,83,o),
(262,0,o),
(174,0,cs)
);
}
);
width = 751;
}
);
},
{
color = (169, 255, 153, 255);
glyphname = kn_jh.base;
layers = (
{
layerId = "CC7AEE9D-2AED-49C0-8074-4E98D62561AB";
shapes = (
{
closed = 1;
nodes = (
(671.418,149.98,o),
(723.372,70.812,o),
(829.753,70.812,cs),
(1104.364,70.812,o),
(1059.833,387.481,o),
(943.556,538.394,cs),
(908.92,582.926,o),
(950.978,590.348,o),
(980.665,570.556,cs),
(1101.89,491.389,o),
(1126.63,187.089,o),
(1126.63,48.546,cs),
(1126.63,-15.777,o),
(1116.734,-127.106,o),
(1077.151,-70.204,cs),
(1059.833,-45.465,o),
(1059.833,51.02,o),
(1059.833,83.182,cs),
(1059.833,107.922,o),
(993.035,-5.881,o),
(852.019,-5.881,cs),
(698.632,-5.881,o),
(646.678,88.13,o),
(604.621,149.98,cs),
(599.673,157.402,o),
(619.465,194.511,o),
(636.783,231.621,c)
);
},
{
closed = 1;
nodes = (
(227,0,o),
(94,123,o),
(94,265,cs),
(94,413,o),
(153,494,o),
(204,535,c),
(175,535,o),
(120,535,o),
(89,535,cs),
(31,535,o),
(16,637,o),
(98,637,cs),
(237,637,o),
(214,637,o),
(342,637,cs),
(442,637,o),
(496,637,o),
(528,637,c),
(528,604,o),
(528,583,o),
(528,537,c),
(522,537,o),
(525,536,o),
(528,534,cs),
(580,494,o),
(647,421,o),
(647,265,cs),
(647,108,o),
(538,0,o),
(366,0,cs)
);
},
{
closed = 1;
nodes = (
(489,105,o),
(607,220,o),
(590,353,cs),
(581,421,o),
(525,537,o),
(468,537,cs),
(426,537,o),
(312,537,o),
(256,537,cs),
(203,537,o),
(159,400,o),
(153,353,cs),
(134,215,o),
(236,105,o),
(366,105,cs)
);
}
);
width = 1560;
}
);
},
{
color = (169, 255, 153, 255);
glyphname = kn_ny.base;
layers = (
{
layerId = "CC7AEE9D-2AED-49C0-8074-4E98D62561AB";
shapes = (
{
closed = 1;
nodes = (
(884.878,207.132,o),
(891.783,203.186,o),
(919.404,165.7,cs),
(996.349,62.121,o),
(936.174,-106.566,o),
(823.717,-147.011,cs),
(799.055,-155.889,o),
(790.177,-142.079,o),
(812.866,-118.404,cs),
(902.634,-26.662,o),
(894.743,64.094,o),
(864.162,101.579,cs),
(859.23,107.498,o),
(857.257,110.458,o),
(853.311,103.552,cs),
(822.73,54.229,o),
(708.3,-24.689,o),
(614.585,1.946,cs),
(502.127,34.499,o),
(521.857,190.362,o),
(623.463,243.631,cs),
(680.678,274.212,o),
(769.461,287.036,o),
(835.554,238.699,cs),
(858.243,221.929,o),
(860.216,221.929,o),
(866.135,230.807,cs),
(908.553,288.022,o),
(895.729,396.534,o),
(848.378,438.952,cs),
(729.016,541.545,o),
(512.978,527.735,o),
(516.924,354.116,cs),
(517.911,312.684,o),
(492.262,312.684,o),
(489.303,354.116,cs),
(484.371,426.128,o),
(364.021,507.019,o),
(295.955,515.897,cs),
(159.822,532.667,o),
(55.256,417.25,o),
(97.674,282.104,cs),
(116.417,221.929,o),
(187.443,186.416,o),
(250.577,167.673,cs),
(267.347,162.741,o),
(290.036,140.052,o),
(273.266,123.282,cs),
(252.55,102.566,o),
(197.308,125.255,o),
(175.605,137.092,cs),
(54.269,203.186,o),
(-7.878,400.48,o),
(85.836,523.789,cs),
(219.997,702.34,o),
(409.399,573.113,o),
(483.384,483.344,c),
(537.64,585.937,o),
(664.895,667.814,o),
(821.744,566.207,cs),
(842.46,552.397,o),
(852.324,550.424,o),
(864.162,573.113,cs),
(921.377,682.611,o),
(1046.659,702.34,o),
(1131.496,586.923,cs),
(1202.522,489.262,o),
(1180.819,398.507,o),
(1135.442,351.157,cs),
(1100.915,315.644,o),
(1021.011,311.698,o),
(991.417,359.048,cs),
(956.89,414.291,o),
(997.336,447.831,o),
(1038.767,470.52,cs),
(1146.293,529.708,o),
(1079.213,584.95,o),
(1004.241,584.95,cs),
(930.256,584.95,o),
(862.189,486.303,o),
(884.878,447.831,cs),
(904.607,413.304,o),
(956.89,306.765,o),
(899.675,227.848,cs)
);
},
{
closed = 1;
nodes = (
(847.392,147.944,o),
(837.527,200.227,o),
(759.596,217.983,cs),
(707.313,229.821,o),
(599.788,186.416,o),
(599.788,121.309,cs),
(599.788,86.782,o),
(622.477,76.918,o),
(655.03,73.958,cs),
(710.273,68.039,o),
(763.542,86.782,o),
(789.19,105.525,cs)
);
}
);
width = 1218;
}
);
},
{
color = (169, 255, 153, 255);
glyphname = kn_tt.base;
layers = (
{
guides = (
{
position = "{0, 100}";
}
);
layerId = "CC7AEE9D-2AED-49C0-8074-4E98D62561AB";
shapes = (
{
closed = 1;
nodes = (
(41.49,47.339,o),
(-19.656,330.386,o),
(140.113,449.72,cs),
(150.962,457.61,o),
(159.838,462.541,o),
(159.838,469.445,cs),
(159.838,477.334,o),
(127.292,492.128,o),
(100.664,551.302,cs),
(52.339,660.773,o),
(131.237,787.01,o),
(252.543,786.024,cs),
(281.144,786.024,o),
(310.731,742.63,o),
(296.924,711.07,cs),
(275.227,661.759,o),
(216.053,693.318,o),
(176.604,624.282,cs),
(123.347,531.577,o),
(240.709,493.114,o),
(318.621,516.784,cs),
(375.822,534.536,o),
(419.216,455.637,o),
(414.285,408.298,cs),
(407.381,342.221,o),
(355.111,294.882,o),
(291.992,294.882,cs),
(209.149,294.882,o),
(192.383,359.973,o),
(192.383,408.298,cs),
(192.383,430.982,o),
(148.989,398.436,o),
(134.196,351.097,cs),
(88.829,208.094,o),
(109.54,63.119,o),
(284.103,99.609,cs),
(319.607,106.513,o),
(360.042,143.989,o),
(360.042,179.494,cs),
(360.042,224.86,o),
(423.161,224.86,o),
(423.161,178.507,cs),
(423.161,114.402,o),
(498.114,92.705,o),
(543.481,92.705,cs),
(721.002,92.705,o),
(668.732,384.629,o),
(568.136,428.023,cs),
(529.673,444.789,o),
(517.839,435.913,o),
(490.224,445.775,cs),
(458.665,457.61,o),
(453.734,494.1,o),
(471.486,517.77,cs),
(484.307,534.536,o),
(526.715,539.467,o),
(549.398,539.467,cs),
(567.15,539.467,o),
(580.957,539.467,o),
(592.792,539.467,c),
(592.792,520.728,o),
(592.792,517.77,o),
(593.778,486.21,c),
(593.778,475.362,o),
(592.792,471.417,o),
(625.337,445.775,cs),
(778.203,325.455,o),
(755.52,-19.725,o),
(524.742,-0.986,cs),
(480.362,2.959,o),
(419.216,28.601,o),
(399.491,83.829,cs),
(385.684,120.32,o),
(381.739,124.265,o),
(360.042,88.761,cs),
(322.565,29.587,o),
(260.433,-19.725,o),
(183.507,3.945,cs)
);
},
{
closed = 1;
nodes = (
(360.042,380.684,o),
(349.194,422.106,o),
(318.621,440.844,cs),
(284.103,461.555,o),
(246.626,446.761,o),
(246.626,422.106,cs),
(246.626,393.505,o),
(263.392,374.767,o),
(277.199,366.877,cs),
(281.144,364.904,o),
(308.758,351.097,o),
(335.386,365.891,cs)
);
}
);
width = 768;
}
);
},
{
color = (169, 255, 153, 255);
glyphname = kn_tth.base;
layers = (
{
guides = (
{
position = "{0, 845}";
},
{
position = "{0, 634}";
}
);
layerId = "CC7AEE9D-2AED-49C0-8074-4E98D62561AB";
shapes = (
{
closed = 1;
nodes = (
(376,358,o),
(408,391,o),
(448,391,cs),
(488,391,o),
(520,358,o),
(520,318,cs),
(520,279,o),
(488,246,o),
(448,246,cs),
(408,246,o),
(376,279,o),
(376,318,cs)
);
},
{
closed = 1;
nodes = (
(308,0,o),
(175,123,o),
(175,265,cs),
(175,413,o),
(259,510,o),
(285,535,c),
(272,535,o),
(128,535,o),
(97,535,cs),
(59,535,o),
(47,635,o),
(169,635,cs),
(268,635,o),
(295,635,o),
(423,635,cs),
(521,635,o),
(585,635,o),
(617,635,c),
(617,601,o),
(619,551,o),
(619,535,c),
(613,535,o),
(606,536,o),
(609,534,cs),
(661,494,o),
(728,421,o),
(728,265,cs),
(728,108,o),
(619,0,o),
(447,0,cs)
);
},
{
closed = 1;
nodes = (
(570,105,o),
(688,220,o),
(671,353,cs),
(662,421,o),
(607,535,o),
(549,535,cs),
(507,535,o),
(393,535,o),
(337,535,cs),
(283,535,o),
(240,400,o),
(234,353,cs),
(215,215,o),
(317,105,o),
(447,105,cs)
);
}
);
width = 793;
}
);
},
{
color = (169, 255, 153, 255);
glyphname = kn_dd.base;
layers = (
{
layerId = "CC7AEE9D-2AED-49C0-8074-4E98D62561AB";
shapes = (
{
closed = 1;
nodes = (
(424.736,496.586,o),
(571.021,447.824,o),
(564.33,378.262,cs),
(560.354,334.588,o),
(606.775,354.886,o),
(647.99,312.11,cs),
(672.713,286.767,o),
(675.289,238.379,o),
(675.995,202.871,cs),
(678.271,88.277,o),
(629.969,0.127,o),
(518.603,-2.085,cs),
(413.693,-4.169,o),
(369.154,43.385,o),
(354.082,70.534,cs),
(347.402,81.704,o),
(311.691,9.951,o),
(211.719,3.121,cs),
(90.766,-4.126,o),
(13.925,125.133,o),
(48.77,240.464,cs),
(82.098,350.921,o),
(294.098,489.147,o),
(244.064,488.153,cs),
(119.819,484.07,o),
(119.786,485.684,o),
(74.595,484.787,cs),
(37.473,484.049,o),
(36.842,597.061,o),
(77.192,597.862,cs),
(141.784,597.531,o),
(343.598,598.311,o),
(472.781,597.648,c),
(473.423,565.368,o),
(472.514,529.828,o),
(473.155,497.548,c)
);
},
{
closed = 1;
nodes = (
(175.838,102.515,o),
(216.668,79.107,o),
(266.638,83.329,cs),
(327.906,87.775,o),
(338.573,201.011,o),
(357.257,154.558,cs),
(399.723,48.836,o),
(575.36,66.857,o),
(595.808,175.444,cs),
(606.048,228.93,o),
(588.465,301.239,o),
(565.869,300.79,cs),
(549.729,300.47,o),
(544.075,259.991,o),
(534.583,250.115,cs),
(520.346,235.301,o),
(478.35,236.081,o),
(457.272,240.506,cs),
(428.091,246.385,o),
(398.334,281.316,o),
(415.222,325.246,cs),
(426.007,351.295,o),
(482.241,365.329,o),
(481.183,418.591,cs),
(480.285,463.783,o),
(403.882,489.714,o),
(366.76,488.976,cs),
(326.41,488.174,o),
(287.963,472.879,o),
(257.842,444.832,cs),
(162.701,357.366,o),
(127.92,238.807,o),
(157.025,155.424,cs)
);
}
);
width = 717;
}
);
},
{
color = (169, 255, 153, 255);
glyphname = kn_ddh.base;
layers = (
{
layerId = "CC7AEE9D-2AED-49C0-8074-4E98D62561AB";
shapes = (
{
closed = 1;
nodes = (
(361.573,9.499,o),
(361.573,-33.92,o),
(366.681,-90.109,cs),
(369.235,-119.48,o),
(374.343,-148.852,o),
(337.31,-148.852,cs),
(305.384,-148.852,o),
(290.06,-130.973,o),
(290.06,-100.325,cs),
(290.06,-50.521,o),
(333.479,13.33,o),
(337.31,56.749,cs),
(339.864,91.229,o),
(356.465,91.229,o),
(357.742,77.181,cs)
);
},
{
closed = 1;
nodes = (
(424.832,491.744,o),
(571.021,447.824,o),
(564.33,378.262,cs),
(560.354,334.588,o),
(606.775,354.886,o),
(647.99,312.11,cs),
(672.713,286.767,o),
(675.289,238.379,o),
(675.995,202.871,cs),
(678.271,88.277,o),
(629.969,0.127,o),
(518.603,-2.085,cs),
(413.693,-4.169,o),
(369.154,43.385,o),
(354.082,70.534,cs),
(347.402,81.704,o),
(311.691,9.951,o),
(211.719,3.121,cs),
(90.766,-4.126,o),
(13.925,125.133,o),
(48.77,240.464,cs),
(82.098,350.921,o),
(294.098,489.147,o),
(244.064,488.153,cs),
(119.819,484.07,o),
(119.786,485.684,o),
(74.595,484.787,cs),
(37.473,484.049,o),
(36.938,592.219,o),
(77.288,593.02,cs),
(140.266,592.657,o),
(343.694,593.469,o),
(472.878,592.806,c),
(473.519,560.526,o),
(474.288,521.79,o),
(473.252,492.706,c)
);
},
{
closed = 1;
nodes = (
(175.838,102.515,o),
(216.668,79.107,o),
(266.638,83.329,cs),
(327.906,87.775,o),
(338.573,201.011,o),
(357.257,154.558,cs),
(399.723,48.836,o),
(575.36,66.857,o),
(595.808,175.444,cs),
(606.048,228.93,o),
(588.465,301.239,o),
(565.869,300.79,cs),
(549.729,300.47,o),
(544.075,259.991,o),
(534.583,250.115,cs),
(520.346,235.301,o),
(478.35,236.081,o),
(457.272,240.506,cs),
(428.091,246.385,o),
(398.334,281.316,o),
(415.222,325.246,cs),
(426.007,351.295,o),
(482.241,365.329,o),
(481.183,418.591,cs),
(480.285,463.783,o),
(403.882,489.714,o),
(366.76,488.976,cs),
(326.41,488.174,o),
(287.963,472.879,o),
(257.842,444.832,cs),
(162.701,357.366,o),
(127.92,238.807,o),
(157.025,155.424,cs)
);
}
);
width = 717;
}
);
},
{
color = (169, 255, 153, 255);
glyphname = kn_nn.base;
layers = (
{
layerId = "CC7AEE9D-2AED-49C0-8074-4E98D62561AB";
shapes = (
{
closed = 1;
nodes = (
(114.564,-40.93,o),
(32.749,67.475,o),
(40.93,142.131,cs),
(52.18,241.332,o),
(182.062,259.741,o),
(187.175,266.9,cs),
(195.357,278.149,o),
(120.7,339.511,o),
(157.517,486.778,cs),
(177.971,569.616,o),
(247.514,627.909,o),
(343.647,634.045,cs),
(517.504,645.295,o),
(582.956,498.028,o),
(601.365,498.028,cs),
(625.909,498.028,o),
(643.295,635.068,o),
(841.697,645.295,cs),
(1024.758,654.499,o),
(1137.254,409.053,o),
(1115.778,251.559,cs),
(1104.528,165.653,o),
(1034.985,29.635,o),
(922.489,12.25,cs),
(738.405,-16.386,o),
(669.885,110.428,o),
(723.065,267.922,cs),
(754.768,360.987,o),
(859.083,391.668,o),
(924.535,326.216,cs),
(947.034,303.716,o),
(971.579,259.741,o),
(958.284,219.856,cs),
(947.034,183.039,o),
(939.875,184.062,o),
(926.58,222.924,cs),
(920.444,241.332,o),
(909.194,262.809,o),
(899.99,272.013,cs),
(868.287,307.807,o),
(792.608,288.376,o),
(774.199,247.468,cs),
(732.269,152.358,o),
(814.084,92.019,o),
(889.763,101.224,cs),
(982.828,112.473,o),
(1077.938,218.833,o),
(1059.53,322.125,cs),
(1053.394,359.964,o),
(1021.69,440.757,o),
(955.216,482.687,cs),
(914.308,508.254,o),
(847.833,537.912,o),
(723.065,483.71,cs),
(655.567,454.052,o),
(622.841,420.303,o),
(622.841,339.511,cs),
(622.841,254.627,o),
(531.822,254.627,o),
(546.139,328.261,cs),
(550.23,349.737,o),
(558.412,372.237,o),
(558.412,388.6,cs),
(558.412,445.87,o),
(470.46,514.391,o),
(418.303,523.595,cs),
(281.263,548.139,o),
(176.948,426.439,o),
(244.446,311.898,cs),
(265.922,275.081,o),
(299.671,214.742,o),
(358.987,182.016,cs),
(396.827,159.517,o),
(392.736,106.337,o),
(344.669,106.337,cs),
(307.853,106.337,o),
(305.807,139.063,o),
(291.489,171.789,cs),
(264.9,231.105,o),
(185.13,183.039,o),
(171.835,173.835,cs),
(117.632,135.995,o),
(145.245,-16.386,o),
(204.561,34.749,cs),
(222.969,50.089,o),
(276.149,32.703,o),
(281.263,9.182,cs),
(297.626,-55.248,o),
(222.969,-67.52,o),
(176.948,-56.271,cs)
);
}
);
width = 1159;
}
);
},
{
color = (169, 255, 153, 255);
glyphname = kn_t.base;
layers = (
{
guides = (
{
position = "{0, 837}";
}
);
layerId = "CC7AEE9D-2AED-49C0-8074-4E98D62561AB";
shapes = (
{
closed = 1;
nodes = (
(95,273,o),
(134,350,o),
(147,247,cs),
(175,24,o),
(592,58,o),
(592,299,cs),
(592,321,o),
(578,357,o),
(572,367,cs),
(566,377,o),
(561,369,o),
(528,334,cs),
(463,265,o),
(435,239,o),
(343,239,cs),
(256,239,o),
(99,308,o),
(178,409,cs),
(211,451,o),
(275,475,o),
(361,475,cs),
(427,475,o),
(511,448,o),
(541,430,cs),
(574,410,o),
(560,509,o),
(485,546,cs),
(464,557,o),
(452,563,o),
(408,563,cs),
(387,563,o),
(125,563,o),
(94,563,cs),
(31,563,o),
(42,663,o),
(149,663,cs),
(246,663,o),
(387,663,o),
(493,663,cs),
(527,663,o),
(519,663,o),
(539,663,c),
(539,630,o),
(539,580,o),
(539,567,c),
(544,561,o),
(546,561,o),
(555,551,cs),
(604,496,o),
(601,451,o),
(586,411,cs),
(585,407,o),
(587,398,o),
(593,390,cs),
(623,349,o),
(664,314,o),
(671,266,cs),
(697,84,o),
(510,-1,o),
(360,-1,cs),
(217,-1,o),
(108,60,o),
(98,216,cs)
);
},
{
closed = 1;
nodes = (
(404,316,o),
(472,341,o),
(498,369,cs),
(557,432,o),
(394,441,o),
(360,441,cs),
(289,440,o),
(239,422,o),
(217,388,cs),
(191,347,o),
(275,316,o),
(338,316,cs)
);
}
);
width = 749;
}
);
},
{
color = (169, 255, 153, 255);
glyphname = kn_th.base;
layers = (
{
guides = (
{
position = "{0, 815}";
}
);
layerId = "CC7AEE9D-2AED-49C0-8074-4E98D62561AB";
shapes = (
{
closed = 1;
nodes = (
(342,-186,o),
(370,-134,o),
(378,-102,cs),
(384,-77,o),
(412,43,o),
(412,60,cs),
(412,70,o),
(405,72,o),
(401,68,cs),
(382,50,o),
(347,-13,o),
(240,-3,cs),
(34,15,o),
(102,375,o),
(312,514,c),
(285,514,o),
(178,514,o),
(107,514,cs),
(55,514,o),
(49,614,o),
(154,614,c),
(556,614,l),
(556,581,o),
(556,548,o),
(556,514,c),
(548,514,o),
(552,510,o),
(557,507,cs),
(719,420,o),
(827,26,o),
(586,6,cs),
(465,-4,o),
(430,132,o),
(441,33,cs),
(447,-24,o),
(488,-203,o),
(444,-237,cs),
(426,-251,o),
(393,-262,o),
(370,-228,cs)
);
},
{
closed = 1;
nodes = (
(400,125,o),
(408,174,o),
(438,139,cs),
(480,91,o),
(612,-23,o),
(660,151,cs),
(688,253,o),
(641,420,o),
(523,478,cs),
(466,506,o),
(389,511,o),
(336,470,cs),
(49,248,o),
(218,-57,o),
(376,101,cs)
);
},
{
closed = 1;
nodes = (
(387,235,o),
(364,258,o),
(362,280,cs),
(359,309,o),
(380,336,o),
(411,336,cs),
(444,336,o),
(461,310,o),
(461,280,cs),
(461,256,o),
(436,234,o),
(411,235,cs)
);
}
);
width = 779;
}
);
},
{
color = (169, 255, 153, 255);
glyphname = kn_d.base;
layers = (
{
layerId = "CC7AEE9D-2AED-49C0-8074-4E98D62561AB";
shapes = (
{
closed = 1;
nodes = (
(419,91,o),
(419,88,o),
(401,68,cs),
(383,49,o),
(347,-13,o),
(240,-3,cs),
(34,15,o),
(102,375,o),
(312,514,c),
(285,514,o),
(178,514,o),
(107,514,cs),
(55,514,o),
(49,614,o),
(154,614,cs),
(335,614,o),
(473,614,o),
(574,614,c),
(574,581,o),
(574,549,o),
(574,514,c),
(573,514,o),
(554,514,o),
(553,514,cs),
(549,513,o),
(552,510,o),
(557,507,cs),
(719,420,o),
(827,27,o),
(586,6,cs),
(518,0,o),
(467,37,o),
(443,64,cs)
);
},
{
closed = 1;
nodes = (
(400,125,o),
(408,174,o),
(438,139,cs),
(480,91,o),
(612,-23,o),
(660,151,cs),
(688,253,o),
(641,420,o),
(523,478,cs),
(466,506,o),
(389,511,o),
(336,470,cs),
(49,248,o),
(218,-57,o),
(376,101,cs)
);
}
);
width = 779;
}
);
},
{
color = (169, 255, 153, 255);
glyphname = kn_dh.base;
layers = (
{
layerId = "CC7AEE9D-2AED-49C0-8074-4E98D62561AB";
shapes = (
{
closed = 1;
nodes = (
(342,-186,o),
(370,-134,o),
(378,-102,cs),
(384,-77,o),
(412,43,o),
(412,60,cs),
(412,70,o),
(405,72,o),
(401,68,cs),
(382,50,o),
(347,-13,o),
(240,-3,cs),
(34,15,o),
(102,375,o),
(312,514,c),
(285,514,o),
(178,514,o),
(107,514,cs),
(55,514,o),
(49,614,o),
(154,614,c),
(556,614,l),
(556,581,o),
(556,546,o),
(556,514,c),
(548,514,o),
(552,510,o),
(557,507,cs),
(719,420,o),
(827,26,o),
(586,6,cs),
(465,-4,o),
(430,132,o),
(441,33,cs),
(447,-24,o),
(488,-203,o),
(444,-237,cs),
(426,-251,o),
(393,-262,o),
(370,-228,cs)
);
},
{
closed = 1;
nodes = (
(400,125,o),
(408,174,o),
(438,139,cs),
(480,91,o),
(612,-23,o),
(660,151,cs),
(688,253,o),
(641,420,o),
(523,478,cs),
(466,506,o),
(389,511,o),
(336,470,cs),
(49,248,o),
(218,-57,o),
(376,101,cs)
);
}
);
width = 779;
}
);
},
{
color = (169, 255, 153, 255);
glyphname = kn_n.base;
layers = (
{
guides = (
{
position = "{0, 844}";
}
);
layerId = "CC7AEE9D-2AED-49C0-8074-4E98D62561AB";
shapes = (
{
closed = 1;
nodes = (
(-29,145,o),
(243,447,o),
(388,287,cs),
(547,88,o),
(730,270,o),
(498,482,cs),
(453,523,o),
(389,547,o),
(299,547,cs),
(232,547,o),
(152,547,o),
(65,547,cs),
(14,547,o),
(48,647,o),
(112,647,c),
(497,647,l),
(497,614,o),
(497,594,o),
(497,547,c),
(496,547,o),
(568,497,o),
(601,462,cs),
(702,352,o),
(730,203,o),
(614,146,cs),
(465,72,o),
(388,308,o),
(264,240,cs),
(148,180,o),
(209,24,o),
(311,-13,cs),
(336,-23,o),
(389,-91,o),
(329,-91,cs),
(302,-91,o),
(255,-56,o),
(233,-40,cs)
);
}
);
width = 736;
}
);
},
{
color = (169, 255, 153, 255);
glyphname = kn_p.base;
layers = (
{
layerId = "CC7AEE9D-2AED-49C0-8074-4E98D62561AB";
shapes = (
{
closed = 1;
nodes = (
(434,74,o),
(422,64,o),
(407,51,cs),
(368,17,o),
(312,-1,o),
(267,13,cs),
(189,37,o),
(173,99,o),
(169,140,cs),
(160,220,o),
(189,273,o),
(253,285,cs),
(348,303,o),
(415,223,o),
(478,160,cs),
(555,86,o),
(721,17,o),
(770,170,cs),
(789,225,o),
(760,371,o),
(698,418,cs),
(689,425,o),
(667,439,o),
(658,443,cs),
(636,453,o),
(633,459,o),
(649,469,cs),
(692,497,o),
(771,436,o),
(811,343,cs),
(861,227,o),
(846,52,o),
(720,-4,cs),
(586,-64,o),
(524,74,o),
(445,74,cs)
);
},
{
closed = 1;
nodes = (
(307,129,o),
(329,144,o),
(332,162,cs),
(335,185,o),
(317,210,o),
(290,209,cs),
(272,209,o),
(253,198,o),
(250,173,cs),
(247,146,o),
(268,132,o),
(282,131,cs)
);
},
{
closed = 1;
nodes = (
(274,396,o),
(243,412,o),
(234,451,cs),
(225,491,o),
(254,510,o),
(260,519,cs),
(262,522,o),
(251,522,o),
(249,522,cs),
(201,522,o),
(140,522,o),
(86,522,cs),
(27,522,o),
(23,625,o),
(91,625,cs),
(254,626,o),
(483,625,o),
(646,625,c),
(646,585,o),
(646,575,o),
(646,525,c),
(398,525,l),
(391,525,o),
(352,527,o),
(365,513,cs),
(385,491,o),
(389,468,o),
(381,442,cs),
(374,419,o),
(351,396,o),
(309,396,cs)
);
}
);
width = 878;
}
);
},
{
color = (169, 255, 153, 255);
glyphname = kn_p.base2;
layers = (
{
layerId = "CC7AEE9D-2AED-49C0-8074-4E98D62561AB";
shapes = (
{
closed = 1;
nodes = (
(434,74,o),
(422,64,o),
(407,51,cs),
(368,17,o),
(312,-1,o),
(267,13,cs),
(189,37,o),
(173,99,o),
(169,140,cs),
(160,220,o),
(189,273,o),
(253,285,cs),
(348,303,o),
(415,223,o),
(478,160,cs),
(555,86,o),
(721,17,o),
(770,170,cs),
(789,225,o),
(760,371,o),
(698,418,cs),
(689,425,o),
(667,439,o),
(658,443,cs),
(636,453,o),
(633,459,o),
(649,469,cs),
(692,497,o),
(771,436,o),
(811,343,cs),
(861,227,o),
(846,52,o),
(720,-4,cs),
(586,-64,o),
(524,74,o),
(445,74,cs)
);
},
{
closed = 1;
nodes = (
(307,129,o),
(329,144,o),
(332,162,cs),
(335,185,o),
(317,210,o),
(290,209,cs),
(272,209,o),
(253,198,o),
(250,173,cs),
(247,146,o),
(268,132,o),
(282,131,cs)
);
}
);
width = 878;
}
);
},
{
color = (169, 255, 153, 255);
glyphname = kn_ph.base;
layers = (
{
layerId = "CC7AEE9D-2AED-49C0-8074-4E98D62561AB";
shapes = (
{
closed = 1;
nodes = (
(408,-147,o),
(427,43,o),
(437,70,cs),
(447,99,o),
(484,79,o),
(492,54,cs),
(508,6,o),
(533,-179,o),
(509,-215,cs),
(471,-271,o),
(422,-227,o),
(413,-178,cs)
);
},
{
closed = 1;
nodes = (
(434,74,o),
(422,64,o),
(407,51,cs),
(368,17,o),
(312,-1,o),
(267,13,cs),
(189,37,o),
(173,99,o),
(169,140,cs),
(160,220,o),
(189,273,o),
(253,285,cs),
(348,303,o),
(415,223,o),
(478,160,cs),
(555,86,o),
(721,17,o),
(770,170,cs),
(789,225,o),
(760,371,o),
(698,418,cs),
(689,425,o),
(667,439,o),
(658,443,cs),
(636,453,o),
(633,459,o),
(649,469,cs),
(692,497,o),
(771,436,o),
(811,343,cs),
(861,227,o),
(846,52,o),
(720,-4,cs),
(586,-64,o),
(524,74,o),
(445,74,cs)
);
},
{
closed = 1;
nodes = (
(311,92,o),
(348,118,o),
(347,151,cs),
(346,186,o),
(320,212,o),
(290,212,cs),
(256,212,o),
(230,181,o),
(230,151,cs),
(230,121,o),
(255,96,o),
(281,94,cs)
);
},
{
closed = 1;
nodes = (
(274,395,o),
(243,412,o),
(234,451,cs),
(225,491,o),
(254,510,o),
(260,519,cs),
(262,522,o),
(251,522,o),
(249,522,cs),
(201,522,o),
(140,522,o),
(86,522,cs),
(27,522,o),
(23,625,o),
(91,625,cs),
(254,626,o),
(470,625,o),
(633,625,c),
(633,585,o),
(633,555,o),
(633,525,c),
(398,525,l),
(391,525,o),
(352,527,o),
(365,513,cs),
(385,491,o),
(389,468,o),
(381,442,cs),
(374,419,o),
(351,395,o),
(309,395,cs)
);
}
);
width = 878;
}
);
},
{
color = (169, 255, 153, 255);
glyphname = kn_ph.base2;
layers = (
{
layerId = "CC7AEE9D-2AED-49C0-8074-4E98D62561AB";
shapes = (
{
closed = 1;
nodes = (
(408,-147,o),
(427,43,o),
(437,70,cs),
(447,99,o),
(484,79,o),
(492,54,cs),
(508,6,o),
(533,-179,o),
(509,-215,cs),
(471,-271,o),
(422,-227,o),
(413,-178,cs)
);
},
{
closed = 1;
nodes = (
(434,74,o),
(422,64,o),
(407,51,cs),
(368,17,o),
(312,-1,o),
(267,13,cs),
(189,37,o),
(173,99,o),
(169,140,cs),
(160,220,o),
(189,273,o),
(253,285,cs),
(348,303,o),
(415,223,o),
(478,160,cs),
(555,86,o),
(721,17,o),
(770,170,cs),
(789,225,o),
(760,371,o),
(698,418,cs),
(689,425,o),
(667,439,o),
(658,443,cs),
(636,453,o),
(633,459,o),
(649,469,cs),
(692,497,o),
(771,436,o),
(811,343,cs),
(861,227,o),
(846,52,o),
(720,-4,cs),
(586,-64,o),
(524,74,o),
(445,74,cs)
);
},
{
closed = 1;
nodes = (
(311,92,o),
(348,118,o),
(347,151,cs),
(346,186,o),
(320,212,o),
(290,212,cs),
(256,212,o),
(230,181,o),
(230,151,cs),
(230,121,o),
(255,96,o),
(281,94,cs)
);
}
);
width = 878;
}
);
},
{
color = (169, 255, 153, 255);
glyphname = kn_b.base;
layers = (
{
layerId = "CC7AEE9D-2AED-49C0-8074-4E98D62561AB";
shapes = (
{
closed = 1;
nodes = (
(403,133,o),
(392,118,o),
(372,92,cs),
(337,46,o),
(258,3,o),
(199,3,cs),
(55,3,o),
(-8,179,o),
(82,259,cs),
(213,374,o),
(287,344,o),
(331,445,cs),
(354,499,o),
(305,551,o),
(250,551,cs),
(199,551,o),
(136,485,o),
(175,438,cs),
(202,406,o),
(163,394,o),
(113,419,cs),
(75,438,o),
(67,449,o),
(70,481,cs),
(77,568,o),
(151,617,o),
(231,618,cs),
(303,618,o),
(387,576,o),
(416,506,cs),
(501,315,o),
(75,312,o),
(140,151,cs),
(194,40,o),
(363,128,o),
(343,172,cs),
(337,185,o),
(386,231,o),
(406,251,cs),
(414,259,o),
(439,206,o),
(456,176,cs),
(474,144,o),
(474,92,o),
(569,105,cs),
(753,131,o),
(721,442,o),
(573,529,cs),
(561,536,o),
(558,541,o),
(558,551,cs),
(558,581,o),
(579,625,o),
(610,611,cs),
(634,600,o),
(635,588,o),
(672,536,cs),
(775,392,o),
(856,151,o),
(652,20,cs),
(569,-33,o),
(455,32,o),
(421,97,cs)
);
}
);
width = 811;
}
);
},
{
color = (169, 255, 153, 255);
glyphname = kn_bh.base;
layers = (
{
layerId = "CC7AEE9D-2AED-49C0-8074-4E98D62561AB";
shapes = (
{
closed = 1;
nodes = (
(334,-152,o),
(382,97,o),
(375,97,cs),
(359,97,o),
(285,-15,o),
(157,4,cs),
(3,27,o),
(7,234,o),
(141,305,cs),
(212,343,o),
(333,362,o),
(356,451,cs),
(375,527,o),
(300,571,o),
(247,565,cs),
(209,560,o),
(157,527,o),
(157,462,cs),
(157,395,o),
(128,387,o),
(100,405,cs),
(69,425,o),
(68,475,o),
(70,492,cs),
(84,595,o),
(160,621,o),
(247,621,cs),
(371,621,o),
(441,495,o),
(399,405,cs),
(361,325,o),
(242,294,o),
(204,279,cs),
(100,239,o),
(112,132,o),
(172,90,cs),
(236,45,o),
(364,146,o),
(371,185,cs),
(378,225,o),
(441,243,o),
(445,173,cs),
(448,126,o),
(525,101,o),
(570,101,cs),
(829,101,o),
(705,494,o),
(484,521,cs),
(459,524,o),
(453,536,o),
(454,551,cs),
(455,577,o),
(451,619,o),
(484,619,cs),
(597,619,l),
(597,586,o),
(597,564,o),
(597,519,c),
(592,519,o),
(581,516,o),
(600,502,cs),
(619,487,o),
(644,476,o),
(687,421,cs),
(783,297,o),
(852,89,o),
(695,23,cs),
(557,-36,o),
(428,94,o),
(421,97,cs),
(417,98,o),
(451,-141,o),
(451,-174,cs),
(451,-286,o),
(334,-259,o),
(334,-174,cs)
);
}
);
width = 878;
}
);
},
{
color = (169, 255, 153, 255);
glyphname = kn_m.base;
layers = (
{
layerId = "CC7AEE9D-2AED-49C0-8074-4E98D62561AB";
shapes = (
{
closed = 1;
nodes = (
(468,12,o),
(417,166,o),
(416,168,cs),
(403,188,o),
(442,84,o),
(349,24,cs),
(250,-39,o),
(142,29,o),
(115,125,cs),
(94,200,o),
(118,350,o),
(235,350,cs),
(309,350,o),
(331,309,o),
(374,261,cs),
(411,221,o),
(501,135,o),
(556,116,cs),
(752,50,o),
(846,320,o),
(543,529,c),
(92,529,ls),
(31,529,o),
(25,629,o),
(70,629,c),
(647,629,l),
(647,596,o),
(647,560,o),
(647,529,c),
(617,529,o),
(622,522,o),
(653,494,cs),
(709,443,o),
(781,379,o),
(839,268,cs),
(845,257,o),
(846,244,o),
(869,214,cs),
(1159,-162,o),
(1344,433,o),
(1131,521,cs),
(1088,539,o),
(1124,606,o),
(1162,581,cs),
(1312,484,o),
(1356,20,o),
(1070,-7,cs),
(971,-16,o),
(868,94,o),
(831,177,cs),
(826,188,o),
(821,196,o),
(819,196,cs),
(818,196,o),
(805,171,o),
(791,141,cs),
(755,66,o),
(681,-15,o),
(578,-2,cs)
);
},
{
closed = 1;
nodes = (
(333,141,o),
(349,176,o),
(333,208,cs),
(307,260,o),
(259,259,o),
(220,230,cs),
(185,205,o),
(185,149,o),
(208,126,cs),
(230,104,o),
(261,99,o),
(292,117,cs)
);
}
);
width = 1325;
}
);
},
{
color = (169, 255, 153, 255);
glyphname = kn_y.base;
layers = (
{
layerId = "CC7AEE9D-2AED-49C0-8074-4E98D62561AB";
shapes = (
{
closed = 1;
nodes = (
(960.223,-4.537,o),
(842.618,-24.75,o),
(743.39,-15.562,cs),
(589.034,-0.862,o),
(539.419,201.271,o),
(530.231,149.819,cs),
(511.856,39.565,o),
(377.713,-8.212,o),
(272.972,-2.699,cs),
(146.179,2.813,o),
(48.788,100.205,o),
(41.438,223.322,cs),
(32.25,362.977,o),
(100.24,513.658,o),
(280.322,528.359,cs),
(469.592,544.897,o),
(539.419,388.703,o),
(574.333,236.185,cs),
(631.298,-4.537,o),
(971.248,0.976,o),
(971.248,278.449,cs),
(971.248,366.652,o),
(916.121,416.267,o),
(862.832,458.531,cs),
(713.988,577.973,o),
(541.257,565.11,o),
(419.977,565.11,cs),
(359.337,565.11,o),
(350.15,664.339,o),
(407.114,664.339,cs),
(796.679,664.339,l),
(796.679,563.272,l),
(796.679,563.272,o),
(798.517,559.597,o),
(804.029,557.76,cs),
(927.147,502.633,o),
(1088.853,340.926,o),
(1046.589,190.246,cs),
(1020.863,113.068,o),
(1353.463,19.352,o),
(1357.138,276.611,cs),
(1358.976,364.815,o),
(1331.412,397.891,o),
(1221.158,441.993,cs),
(1173.381,460.368,o),
(1142.142,554.085,o),
(1230.346,544.897,cs),
(1285.473,539.384,o),
(1379.189,453.018,o),
(1408.59,383.191,cs),
(1471.067,236.185,o),
(1401.24,23.027,o),
(1197.269,23.027,cs),
(1094.365,23.027,o),
(1035.563,151.657,o),
(1024.538,127.768,cs)
);
},
{
closed = 1;
nodes = (
(111.265,129.606,o),
(192.119,61.616,o),
(309.723,67.128,cs),
(401.602,72.641,o),
(478.779,140.631,o),
(493.48,228.835,cs),
(511.856,340.926,o),
(445.703,456.693,o),
(313.398,462.206,cs),
(182.931,467.719,o),
(87.377,353.789,o),
(100.24,239.86,cs)
);
}
);
width = 1471;
}
);
},
{
glyphname = kn_y.base2;
layers = (
{
layerId = "CC7AEE9D-2AED-49C0-8074-4E98D62561AB";
shapes = (
{
closed = 1;
nodes = (
(589,-1,o),
(539,201,o),
(530,150,cs),
(512,40,o),
(378,-8,o),
(273,-3,cs),
(146,3,o),
(49,100,o),
(41,223,cs),
(32,363,o),
(100,514,o),
(280,528,cs),
(470,545,o),
(539,389,o),
(574,236,cs),
(631,-5,o),
(971,1,o),
(971,278,cs),
(971,367,o),
(916,416,o),
(863,459,cs),
(714,578,o),
(541,565,o),
(420,565,cs),
(359,565,o),
(350,664,o),
(407,664,cs),
(797,664,l),
(797,563,l),
(797,563,o),
(799,560,o),
(804,558,cs),
(927,503,o),
(1069,344,o),
(1047,190,cs),
(1029,67,o),
(942,-34,o),
(743,-16,cs)
);
},
{
closed = 1;
nodes = (
(111,130,o),
(192,62,o),
(310,67,cs),
(402,73,o),
(479,141,o),
(493,229,cs),
(512,341,o),
(446,457,o),
(313,462,cs),
(183,468,o),
(87,354,o),
(100,240,cs)
);
}
);
width = 1198;
}
);
},
{
color = (169, 255, 153, 255);
glyphname = kn_r.base;
layers = (
{
layerId = "CC7AEE9D-2AED-49C0-8074-4E98D62561AB";
shapes = (
{
closed = 1;
nodes = (
(307,0,o),
(174,123,o),
(174,265,cs),
(174,413,o),
(258,510,o),
(284,535,c),
(255,535,o),
(170,535,o),
(139,535,cs),
(81,535,o),
(66,635,o),
(148,635,cs),
(287,635,o),
(294,635,o),
(422,635,cs),
(522,635,o),
(576,635,o),
(608,635,c),
(608,601,o),
(608,565,o),
(608,535,c),
(608,534,o),
(609,533,o),
(612,531,cs),
(663,491,o),
(727,417,o),
(727,265,cs),
(727,108,o),
(618,0,o),
(446,0,cs)
);
},
{
closed = 1;
nodes = (
(569,105,o),
(687,220,o),
(670,353,cs),
(661,421,o),
(605,509,o),
(548,520,cs),
(506,528,o),
(392,529,o),
(336,520,cs),
(283,511,o),
(239,400,o),
(233,353,cs),
(214,215,o),
(316,105,o),
(446,105,cs)
);
}
);
width = 792;
}
);
},
{
color = (169, 255, 153, 255);
glyphname = kn_l.base;
layers = (
{
layerId = "CC7AEE9D-2AED-49C0-8074-4E98D62561AB";
shapes = (
{
closed = 1;
nodes = (
(105,554,o),
(131,579,o),
(159,597,cs),
(292,680,o),
(468,593,o),
(442,432,cs),
(419,289,o),
(181,291,o),
(185,451,cs),
(186,517,o),
(178,518,o),
(139,467,cs),
(32,329,o),
(166,107,o),
(328,105,cs),
(555,102,o),
(678,313,o),
(620,541,cs),
(611,575,o),
(609,613,o),
(637,623,cs),
(686,640,o),
(707,610,o),
(707,558,cs),
(707,269,o),
(674,0,o),
(331,0,cs),
(90,0,o),
(-23,288,o),
(76,494,cs)
);
},
{
closed = 1;
nodes = (
(391,497,o),
(374,534,o),
(326,541,cs),
(274,549,o),
(246,507,o),
(248,472,cs),
(250,436,o),
(268,422,o),
(302,413,cs),
(335,404,o),
(383,426,o),
(387,460,cs)
);
}
);
width = 747;
}
);
},
{
color = (169, 255, 153, 255);
glyphname = kn_ll.base;
layers = (
{
guides = (
{
position = "{0, 846}";
}
);
layerId = "CC7AEE9D-2AED-49C0-8074-4E98D62561AB";
shapes = (
{
closed = 1;
nodes = (
(260,-243,o),
(211,-186,o),
(201,-117,cs),
(189,-40,o),
(235,-5,o),
(270,31,cs),
(282,44,o),
(293,51,o),
(290,55,cs),
(287,59,o),
(275,66,o),
(260,74,cs),
(122,150,o),
(3,332,o),
(51,490,cs),
(69,549,o),
(132,627,o),
(212,629,cs),
(301,631,o),
(345,563,o),
(345,495,cs),
(345,438,o),
(325,401,o),
(280,379,cs),
(224,351,o),
(145,387,o),
(124,452,cs),
(117,473,o),
(106,471,o),
(99,447,cs),
(61,318,o),
(209,166,o),
(304,93,cs),
(318,83,o),
(319,81,o),
(335,88,cs),
(445,135,o),
(571,358,o),
(497,478,cs),
(467,527,o),
(370,522,o),
(370,591,cs),
(370,620,o),
(375,631,o),
(395,631,c),
(526,631,l),
(526,598,o),
(526,556,o),
(526,531,c),
(522,531,o),
(529,522,o),
(536,508,cs),
(581,416,o),
(549,281,o),
(502,203,cs),
(458,132,o),
(353,61,o),
(346,56,cs),
(339,52,o),
(354,43,o),
(367,30,cs),
(409,-12,o),
(449,-40,o),
(439,-117,cs),
(431,-185,o),
(391,-243,o),
(317,-243,cs)
);
},
{
closed = 1;
nodes = (
(381,-31,o),
(351,25,o),
(317,25,cs),
(290,25,o),
(254,-31,o),
(254,-77,cs),
(254,-110,o),
(269,-158,o),
(317,-158,cs),
(372,-158,o),
(381,-122,o),
(381,-77,cs)
);
},
{
closed = 1;
nodes = (
(302,532,o),
(269,565,o),
(227,556,cs),
(189,547,o),
(135,510,o),
(157,462,cs),
(173,428,o),
(216,420,o),
(246,430,cs),
(278,441,o),
(302,466,o),
(302,495,cs)
);
}
);
width = 700;
}
);
},
{
color = (169, 255, 153, 255);
glyphname = kn_v.base;
layers = (
{
layerId = "CC7AEE9D-2AED-49C0-8074-4E98D62561AB";
shapes = (
{
closed = 1;
nodes = (
(456,12,o),
(405,166,o),
(404,168,cs),
(391,188,o),
(430,84,o),
(337,24,cs),
(238,-39,o),
(130,29,o),
(103,125,cs),
(82,200,o),
(106,350,o),
(223,350,cs),
(297,350,o),
(319,309,o),
(362,261,cs),
(399,221,o),
(489,135,o),
(544,116,cs),
(740,50,o),
(842,299,o),
(539,508,cs),
(536,510,o),
(535,511,o),
(531,511,cs),
(404,511,o),
(187,507,o),
(80,511,cs),
(19,513,o),
(25,611,o),
(58,611,cs),
(300,610,o),
(432,611,o),
(617,611,c),
(617,578,o),
(617,548,o),
(617,511,c),
(617,511,o),
(610,505,o),
(641,477,cs),
(907,235,o),
(768,-28,o),
(566,-2,cs)
);
},
{
closed = 1;
nodes = (
(321,141,o),
(337,176,o),
(321,208,cs),
(295,260,o),
(238,267,o),
(199,238,cs),
(164,213,o),
(173,149,o),
(196,126,cs),
(218,104,o),
(249,99,o),
(280,117,cs)
);
}
);
width = 866;
}
);
},
{
color = (169, 255, 153, 255);
glyphname = kn_sh.base;
layers = (
{
guides = (
{
position = "{0, 843}";
}
);
layerId = "CC7AEE9D-2AED-49C0-8074-4E98D62561AB";
shapes = (
{
closed = 1;
nodes = (
(353,54,o),
(466,104,o),
(499,180,cs),
(526,243,o),
(487,368,o),
(452,337,cs),
(395,286,o),
(360,267,o),
(259,214,cs),
(204,185,o),
(231,105,o),
(276,86,cs)
);
},
{
closed = 1;
nodes = (
(448,360,o),
(442,370,o),
(438,376,cs),
(419,406,o),
(340,431,o),
(276,431,cs),
(255,431,o),
(250,412,o),
(254,407,cs),
(282,377,o),
(290,330,o),
(252,309,cs),
(222,292,o),
(189,301,o),
(169,316,cs),
(156,326,o),
(139,354,o),
(151,384,cs),
(191,483,o),
(324,488,o),
(406,445,cs),
(546,370,o),
(460,501,o),
(408,527,cs),
(395,534,o),
(391,537,o),
(377,537,cs),
(327,537,o),
(160,537,o),
(84,537,cs),
(4,537,o),
(42,637,o),
(111,637,c),
(449,637,l),
(449,562,o),
(449,560,o),
(449,540,c),
(486,511,o),
(556,425,o),
(514,394,cs),
(486,373,o),
(485,378,o),
(512,345,cs),
(547,302,o),
(561,271,o),
(564,232,cs),
(576,71,o),
(425,-1,o),
(284,5,cs),
(190,9,o),
(141,91,o),
(140,145,cs),
(138,239,o),
(290,267,o),
(397,330,cs)
);
}
);
width = 645;
}
);
},
{
color = (169, 255, 153, 255);
glyphname = kn_ss.base;
layers = (
{
layerId = "CC7AEE9D-2AED-49C0-8074-4E98D62561AB";
shapes = (
{
closed = 1;
nodes = (
(272,407,o),
(243,420,o),
(234,459,cs),
(221,515,o),
(284,530,o),
(249,530,cs),
(201,530,o),
(140,530,o),
(86,530,cs),
(27,530,o),
(23,630,o),
(91,630,cs),
(166,630,o),
(436,630,o),
(593,630,c),
(593,596,o),
(593,572,o),
(593,530,c),
(398,530,l),
(391,530,o),
(352,535,o),
(365,521,cs),
(385,499,o),
(389,476,o),
(381,450,cs),
(374,427,o),
(349,407,o),
(307,407,cs)
);
},
{
closed = 1;
nodes = (
(975,-178,o),
(827,180,o),
(818,149,cs),
(781,14,o),
(580,-71,o),
(477,14,cs),
(446,40,o),
(422,73,o),
(390,135,cs),
(354,207,o),
(381,23,o),
(248,13,cs),
(142,5,o),
(98,89,o),
(97,181,cs),
(96,272,o),
(155,334,o),
(216,334,cs),
(272,334,o),
(316,277,o),
(334,253,cs),
(385,185,o),
(422,151,o),
(492,112,cs),
(595,53,o),
(765,101,o),
(776,232,cs),
(781,293,o),
(720,403,o),
(696,460,cs),
(693,468,o),
(689,475,o),
(698,479,cs),
(721,488,o),
(767,446,o),
(793,390,cs),
(875,211,o),
(952,12,o),
(1071,-168,cs),
(1078,-179,o),
(1091,-189,o),
(1093,-202,cs),
(1098,-239,o),
(1029,-266,o),
(1007,-279,cs),
(963,-305,o),
(975,-295,o),
(975,-244,cs)
);
},
{
closed = 1;
nodes = (
(319,156,o),
(312,214,o),
(273,244,cs),
(237,272,o),
(193,263,o),
(171,234,cs),
(150,207,o),
(161,172,o),
(183,150,cs),
(206,127,o),
(238,117,o),
(271,133,cs)
);
}
);
width = 1134;
}
);
},
{
color = (169, 255, 153, 255);
glyphname = kn_ss.base2;
layers = (
{
layerId = "CC7AEE9D-2AED-49C0-8074-4E98D62561AB";
shapes = (
{
closed = 1;
nodes = (
(975,-178,o),
(827,180,o),
(818,149,cs),
(781,14,o),
(580,-71,o),
(477,14,cs),
(446,40,o),
(422,73,o),
(390,135,cs),
(354,207,o),
(381,23,o),
(248,13,cs),
(142,5,o),
(98,89,o),
(97,181,cs),
(96,272,o),
(155,334,o),
(216,334,cs),
(272,334,o),
(316,277,o),
(334,253,cs),
(385,185,o),
(422,151,o),
(492,112,cs),
(595,53,o),
(765,101,o),
(776,232,cs),
(781,293,o),
(720,403,o),
(696,460,cs),
(693,468,o),
(689,475,o),
(698,479,cs),
(721,488,o),
(767,446,o),
(793,390,cs),
(875,211,o),
(952,12,o),
(1071,-168,cs),
(1078,-179,o),
(1091,-189,o),
(1093,-202,cs),
(1098,-239,o),
(1029,-266,o),
(1007,-279,cs),
(963,-305,o),
(975,-295,o),
(975,-244,cs)
);
},
{
closed = 1;
nodes = (
(319,156,o),
(312,214,o),
(273,244,cs),
(237,272,o),
(193,263,o),
(171,234,cs),
(150,207,o),
(161,172,o),
(183,150,cs),
(206,127,o),
(238,117,o),
(271,133,cs)
);
}
);
width = 1134;
}
);
},
{
color = (169, 255, 153, 255);
glyphname = kn_s.base;
layers = (
{
guides = (
{
position = "{0, 843}";
}
);
layerId = "CC7AEE9D-2AED-49C0-8074-4E98D62561AB";
shapes = (
{
closed = 1;
nodes = (
(236,14,o),
(204,40,o),
(188,74,cs),
(118,216,o),
(166,394,o),
(343,394,cs),
(536,394,o),
(526,103,o),
(635,103,cs),
(751,103,o),
(722,329,o),
(705,396,cs),
(700,417,o),
(696,429,o),
(701,433,cs),
(709,439,o),
(726,429,o),
(734,414,cs),
(787,314,o),
(785,129,o),
(710,36,cs),
(678,-4,o),
(600,-14,o),
(557,22,cs),
(475,91,o),
(471,330,o),
(333,330,cs),
(226,330,o),
(215,153,o),
(268,85,cs),
(282,67,o),
(334,-15,o),
(270,4,cs)
);
},
{
closed = 1;
nodes = (
(309,445,o),
(286,475,o),
(282,502,cs),
(279,526,o),
(289,539,o),
(286,539,cs),
(218,539,o),
(149,539,o),
(78,539,cs),
(19,539,o),
(28,639,o),
(115,639,c),
(554,639,l),
(554,606,o),
(554,576,o),
(554,539,c),
(435,539,l),
(416,539,o),
(427,541,o),
(428,515,cs),
(429,485,o),
(413,445,o),
(346,445,cs)
);
}
);
width = 811;
}
);
},
{
color = (169, 255, 153, 255);
glyphname = kn_s.base2;
layers = (
{
guides = (
{
position = "{0, 843}";
}
);
layerId = "CC7AEE9D-2AED-49C0-8074-4E98D62561AB";
shapes = (
{
closed = 1;
nodes = (
(236,14,o),
(204,40,o),
(188,74,cs),
(118,216,o),
(166,394,o),
(343,394,cs),
(536,394,o),
(526,103,o),
(635,103,cs),
(751,103,o),
(722,329,o),
(705,396,cs),
(700,417,o),
(696,429,o),
(701,433,cs),
(709,439,o),
(726,429,o),
(734,414,cs),
(787,314,o),
(785,129,o),
(710,36,cs),
(678,-4,o),
(600,-14,o),
(557,22,cs),
(475,91,o),
(471,330,o),
(333,330,cs),
(226,330,o),
(215,153,o),
(268,85,cs),
(282,67,o),
(334,-15,o),
(270,4,cs)
);
}
);
width = 811;
}
);
},
{
color = (169, 255, 153, 255);
glyphname = kn_h.base;
layers = (
{
guides = (
{
position = "{0, 840}";
}
);
layerId = "CC7AEE9D-2AED-49C0-8074-4E98D62561AB";
shapes = (
{
closed = 1;
nodes = (
(522,-3,o),
(491,84,o),
(465,126,cs),
(461,132,o),
(453,130,o),
(450,125,cs),
(417,74,o),
(359,2,o),
(250,2,cs),
(116,2,o),
(61,162,o),
(73,249,cs),
(84,329,o),
(117,382,o),
(190,419,cs),
(212,431,o),
(232,442,o),
(234,445,cs),
(238,452,o),
(222,473,o),
(204,485,cs),
(163,512,o),
(111,508,o),
(64,508,cs),
(35,508,o),
(28,608,o),
(71,608,c),
(612,608,l),
(612,576,o),
(612,543,o),
(612,508,c),
(269,508,l),
(221,508,o),
(277,458,o),
(298,451,cs),
(368,426,o),
(422,363,o),
(444,341,cs),
(455,330,o),
(461,335,o),
(477,345,cs),
(487,351,o),
(510,374,o),
(534,393,cs),
(638,477,o),
(801,402,o),
(831,282,cs),
(862,166,o),
(774,-3,o),
(627,-3,cs)
);
},
{
closed = 1;
nodes = (
(338,102,o),
(418,154,o),
(418,252,cs),
(418,322,o),
(329,396,o),
(258,396,cs),
(173,396,o),
(125,335,o),
(115,266,cs),
(102,168,o),
(164,102,o),
(250,102,cs)
);
},
{
closed = 1;
nodes = (
(713,93,o),
(792,136,o),
(792,234,cs),
(792,330,o),
(703,396,o),
(614,385,cs),
(543,376,o),
(475,311,o),
(475,234,cs),
(475,154,o),
(551,93,o),
(628,93,cs)
);
}
);
width = 878;
}
);
},
{
color = (255, 153, 254, 255);
glyphname = talekattu;
layers = (
{
layerId = "CC7AEE9D-2AED-49C0-8074-4E98D62561AB";
shapes = (
{
closed = 1;
nodes = (
(-1,630,l),
(19,630,o),
(38,631,o),
(57,637,cs),
(147,667,o),
(123,748,o),
(103,771,cs),
(81,796,o),
(119,809,o),
(138,782,cs),
(219,670,o),
(190,530,o),
(21,530,cs),
(-1,530,l)
);
}
);
width = 184;
}
);
},
{
color = (255, 153, 254, 255);
glyphname = kn_ma_aa;
layers = (
{
layerId = "CC7AEE9D-2AED-49C0-8074-4E98D62561AB";
shapes = (
{
closed = 1;
nodes = (
(56.883,630.352,o),
(324.892,630.352,o),
(420.726,630.352,cs),
(475.952,630.352,o),
(641.63,542.64,o),
(675.74,376.962,cs),
(708.226,222.654,o),
(636.757,11.495,o),
(441.841,4.998,cs),
(334.638,1.749,o),
(248.55,100.831,o),
(248.55,201.538,cs),
(248.55,260.012,o),
(272.915,292.498,o),
(333.014,298.996,cs),
(378.494,303.868,o),
(440.217,281.128,o),
(449.963,211.283,cs),
(458.084,144.687,o),
(410.98,144.687,o),
(376.87,126.82,cs),
(370.372,123.571,o),
(363.875,117.074,o),
(363.875,108.953,cs),
(365.499,69.97,o),
(420.726,48.854,o),
(477.576,61.848,cs),
(586.404,86.213,o),
(654.624,201.538,o),
(620.514,367.216,cs),
(596.15,487.414,o),
(464.582,529.646,o),
(420.726,529.646,cs),
(329.765,529.646,o),
(82.872,529.646,o),
(-14.586,529.646,cs),
(-47.072,529.646,o),
(-47.072,630.352,o),
(-14.586,630.352,cs)
);
}
);
width = 684;
}
);
unicode = 3262;
},
{
color = (255, 153, 254, 255);
glyphname = kn_ma_aa.extra;
layers = (
{
layerId = "CC7AEE9D-2AED-49C0-8074-4E98D62561AB";
shapes = (
{
closed = 1;
nodes = (
(96.205,630.352,o),
(529.892,630.352,o),
(625.726,630.352,cs),
(680.952,630.352,o),
(846.63,542.64,o),
(880.74,376.962,cs),
(913.226,222.654,o),
(841.757,11.495,o),
(646.841,4.998,cs),
(539.638,1.749,o),
(453.55,100.831,o),
(453.55,201.538,cs),
(453.55,260.012,o),
(477.915,292.498,o),
(538.014,298.996,cs),
(583.494,303.868,o),
(645.217,281.128,o),
(654.963,211.283,cs),
(663.084,144.687,o),
(615.98,144.687,o),
(581.87,126.82,cs),
(575.372,123.571,o),
(568.875,117.074,o),
(568.875,108.953,cs),
(570.499,69.97,o),
(625.726,48.854,o),
(682.576,61.848,cs),
(791.404,86.213,o),
(859.624,201.538,o),
(825.514,367.216,cs),
(801.15,487.414,o),
(669.582,529.646,o),
(625.726,529.646,cs),
(534.765,529.646,o),
(122.194,529.646,o),
(24.736,529.646,cs),
(-7.75,529.646,o),
(-7.75,630.352,o),
(24.736,630.352,cs)
);
}
);
width = 889;
}
);
},
{
color = (255, 153, 254, 255);
glyphname = kn_ma_i;
layers = (
{
layerId = "CC7AEE9D-2AED-49C0-8074-4E98D62561AB";
shapes = (
{
closed = 1;
nodes = (
(254.169,853.277,o),
(313.385,791.101,o),
(313.385,668.228,cs),
(313.385,594.208,o),
(291.179,542.394,o),
(237.885,496.502,cs),
(91.325,372.149,o),
(45.433,450.61,o),
(91.325,468.374,cs),
(200.875,511.306,o),
(254.169,603.09,o),
(230.483,583.845,cs),
(153.502,518.708,o),
(17.306,558.679,o),
(2.502,672.669,cs),
(-10.822,777.777,o),
(55.796,853.277,o),
(146.1,853.277,cs)
);
},
{
closed = 1;
nodes = (
(83.923,654.904,o),
(109.09,634.179,o),
(138.698,628.257,cs),
(187.551,617.894,o),
(240.845,657.865,o),
(233.443,717.081,cs),
(227.522,761.493,o),
(183.11,783.699,o),
(144.62,780.738,cs),
(103.169,777.777,o),
(64.678,745.208,o),
(78.002,683.032,cs)
);
}
);
width = 314;
}
);
unicode = 3263;
},
{
color = (255, 153, 254, 255);
glyphname = kn_ma_i2;
layers = (
{
layerId = "CC7AEE9D-2AED-49C0-8074-4E98D62561AB";
shapes = (
{
closed = 1;
nodes = (
(304.76,653.773,o),
(274.829,487.014,o),
(180.76,418.6,cs),
(128.024,380.117,o),
(89.541,360.163,o),
(63.886,360.163,cs),
(38.231,360.163,o),
(25.403,378.692,o),
(46.782,392.945,cs),
(79.564,415.749,o),
(138.001,427.152,o),
(176.484,487.014,cs),
(182.185,495.566,o),
(179.335,496.991,o),
(176.484,495.566,cs),
(100.944,458.508,o),
(19.702,509.819,o),
(11.15,599.612,cs),
(1.173,716.486,o),
(122.323,770.647,o),
(195.013,725.038,cs)
);
},
{
closed = 1;
nodes = (
(185.036,552.577,o),
(209.266,579.658,o),
(209.266,612.44,cs),
(209.266,653.773,o),
(170.783,685.13,o),
(132.3,683.704,cs),
(95.242,683.704,o),
(65.311,655.198,o),
(65.311,605.313,cs),
(65.311,554.003,o),
(113.771,535.474,o),
(155.105,545.451,cs)
);
}
);
width = 276;
}
);
},
{
color = (255, 153, 254, 255);
glyphname = kn_ma_i3;
layers = (
{
layerId = "CC7AEE9D-2AED-49C0-8074-4E98D62561AB";
shapes = (
{
closed = 1;
nodes = (
(240.709,716.626,o),
(246.055,589.39,o),
(188.318,524.168,cs),
(156.241,487.815,o),
(131.65,466.43,o),
(112.404,462.153,cs),
(94.227,457.877,o),
(81.396,469.638,o),
(94.227,483.538,cs),
(114.542,504.922,o),
(156.241,523.099,o),
(174.418,573.352,cs),
(176.556,580.836,o),
(174.418,581.905,o),
(172.28,579.767,cs),
(123.096,540.206,o),
(55.735,564.798,o),
(34.351,628.951,cs),
(7.621,712.349,o),
(87.812,772.225,o),
(147.688,750.841,cs)
);
},
{
closed = 1;
nodes = (
(169.072,622.535,o),
(182.972,647.127,o),
(177.626,670.65,cs),
(170.141,700.588,o),
(136.996,717.695,o),
(109.196,710.211,cs),
(82.466,703.796,o),
(65.358,678.135,o),
(72.843,641.781,cs),
(81.396,604.359,o),
(119.888,599.013,o),
(148.757,612.913,cs)
);
}
);
width = 276;
}
);
},
{
color = (255, 153, 254, 255);
glyphname = kn_ma_e;
layers = (
{
layerId = "CC7AEE9D-2AED-49C0-8074-4E98D62561AB";
shapes = (
{
closed = 1;
nodes = (
(409.015,889.394,o),
(475.288,809.131,o),
(475.288,736.232,cs),
(475.288,622.833,o),
(407.543,530.052,o),
(311.08,530.052,cs),
(121.099,530.052,o),
(213.88,530.052,o),
(24.636,530.052,cs),
(-7.027,530.052,o),
(-7.027,630.196,o),
(24.636,630.196,cs),
(180.744,630.196,o),
(166.754,630.196,o),
(188.108,630.196,cs),
(288.989,630.196,o),
(418.588,622.833,o),
(426.688,732.55,cs),
(434.052,833.431,o),
(333.17,845.213,o),
(302.243,839.322,cs),
(269.844,832.695,o),
(241.862,778.941,o),
(313.289,742.123,cs),
(350.107,722.977,o),
(326.543,655.969,o),
(272.789,662.596,cs),
(118.89,681.741,o),
(118.89,933.576,o),
(333.17,901.176,cs)
);
}
);
width = 476;
}
);
unicode = 3270;
},
{
color = (255, 153, 254, 255);
glyphname = kn_ma_e.extra2;
layers = (
{
layerId = "CC7AEE9D-2AED-49C0-8074-4E98D62561AB";
shapes = (
{
closed = 1;
nodes = (
(666.741,889.394,o),
(733.013,809.131,o),
(733.013,736.232,cs),
(733.013,622.833,o),
(665.268,530.052,o),
(568.805,530.052,cs),
(378.825,530.052,o),
(213.88,530.052,o),
(24.636,530.052,cs),
(-7.027,530.052,o),
(-7.027,630.196,o),
(24.636,630.196,cs),
(180.744,630.196,o),
(424.479,630.196,o),
(445.833,630.196,cs),
(546.714,630.196,o),
(676.313,622.833,o),
(684.413,732.55,cs),
(691.777,833.431,o),
(590.896,845.213,o),
(559.969,839.322,cs),
(527.569,832.695,o),
(499.587,778.941,o),
(571.014,742.123,cs),
(607.832,722.977,o),
(584.269,655.969,o),
(530.514,662.596,cs),
(376.616,681.741,o),
(376.616,933.576,o),
(590.896,901.176,cs)
);
}
);
width = 734;
}
);
},
{
color = (255, 153, 254, 255);
glyphname = kn_ma_e.extra;
layers = (
{
layerId = "CC7AEE9D-2AED-49C0-8074-4E98D62561AB";
shapes = (
{
closed = 1;
nodes = (
(883.015,889.394,o),
(949.288,809.131,o),
(949.288,736.232,cs),
(949.288,622.833,o),
(881.543,530.052,o),
(785.08,530.052,cs),
(595.099,530.052,o),
(306.447,530.052,o),
(117.203,530.052,cs),
(85.539,530.052,o),
(85.539,630.196,o),
(117.203,630.196,cs),
(273.311,630.196,o),
(640.754,630.196,o),
(662.108,630.196,cs),
(762.989,630.196,o),
(892.588,622.833,o),
(900.688,732.55,cs),
(908.052,833.431,o),
(807.17,845.213,o),
(776.243,839.322,cs),
(743.844,832.695,o),
(715.862,778.941,o),
(787.289,742.123,cs),
(824.107,722.977,o),
(800.543,655.969,o),
(746.789,662.596,cs),
(592.89,681.741,o),
(592.89,933.576,o),
(807.17,901.176,cs)
);
}
);
width = 950;
}
);
},
{
color = (255, 153, 254, 255);
glyphname = kn_ma_u;
layers = (
{
layerId = "CC7AEE9D-2AED-49C0-8074-4E98D62561AB";
shapes = (
{
closed = 1;
nodes = (
(206.769,504.149,o),
(242.029,559.899,o),
(295.903,543.571,cs),
(369.333,522.808,o),
(433.895,462.931,o),
(477.046,381.177,cs),
(538.708,254.099,o),
(506.2,29.111,o),
(308.353,-0.054,cs),
(167.745,-21.635,o),
(46.91,53.058,o),
(0.473,129.388,cs),
(-39.915,196.122,o),
(-28.851,290.259,o),
(5.749,243.344,cs),
(71.926,154.312,o),
(122.797,97.539,o),
(217.821,90.387,cs),
(403.513,75.014,o),
(528.566,272.849,o),
(358.088,436.938,cs),
(327.763,466.433,o),
(270.239,493.87,o),
(240.46,498.566,cs)
);
}
);
width = 506;
}
);
unicode = 3265;
},
{
color = (255, 153, 254, 255);
glyphname = kn_ma_u.under;
layers = (
{
layerId = "CC7AEE9D-2AED-49C0-8074-4E98D62561AB";
shapes = (
{
closed = 1;
nodes = (
(766.575,395.167,o),
(682.179,-120.589,o),
(297.706,-84.955,cs),
(95.155,-66.2,o),
(40.767,111.97,o),
(1.382,243.253,cs),
(-6.12,269.51,o),
(7.008,316.397,o),
(72.65,207.619,cs),
(113.91,140.102,o),
(162.672,23.823,o),
(297.706,6.944,cs),
(659.673,-36.192,o),
(665.299,410.171,o),
(592.156,642.729,cs),
(573.401,693.367,o),
(609.035,698.993,o),
(629.665,659.608,cs)
);
}
);
width = 692;
}
);
},
{
color = (255, 153, 254, 255);
glyphname = kn_ma_uu;
layers = (
{
layerId = "CC7AEE9D-2AED-49C0-8074-4E98D62561AB";
shapes = (
{
closed = 1;
nodes = (
(245.921,481.062,o),
(381.429,576.283,o),
(502.288,587.27,cs),
(685.406,601.92,o),
(910.642,523.179,o),
(908.811,246.67,cs),
(905.149,-59.139,o),
(478.482,-108.581,o),
(451.014,213.708,cs),
(441.858,323.579,o),
(518.768,363.866,o),
(590.185,352.878,cs),
(711.043,334.567,o),
(736.68,184.409,o),
(639.627,166.097,cs),
(577.366,153.279,o),
(526.093,204.552,o),
(529.755,151.448,cs),
(542.574,8.615,o),
(844.72,-0.541,o),
(844.72,255.825,cs),
(844.72,501.205,o),
(635.964,532.335,o),
(507.781,521.348,cs),
(408.897,514.023,o),
(302.688,448.1,o),
(326.494,340.06,cs),
(341.143,268.644,o),
(456.508,-55.476,o),
(170.843,21.433,cs),
(106.751,37.914,o),
(57.309,74.538,o),
(18.854,118.486,cs),
(-14.107,155.11,o),
(0.542,202.721,o),
(33.504,182.578,cs),
(90.27,145.954,o),
(143.375,111.162,o),
(190.986,107.499,cs),
(346.637,96.512,o),
(264.233,263.15,o),
(256.908,349.216,cs)
);
}
);
width = 915;
}
);
unicode = 3266;
},
{
color = (255, 153, 254, 255);
glyphname = kn_ma_uu.under;
layers = (
{
layerId = "CC7AEE9D-2AED-49C0-8074-4E98D62561AB";
shapes = (
{
closed = 1;
nodes = (
(905.458,624.539,o),
(1049.626,521.844,o),
(1023.952,318.43,cs),
(1008.153,197.962,o),
(931.132,89.342,o),
(784.99,89.342,cs),
(725.743,89.342,o),
(658.597,130.815,o),
(640.823,192.037,cs),
(617.124,273.008,o),
(650.697,377.677,o),
(743.517,377.677,cs),
(794.864,377.677,o),
(836.337,348.053,o),
(836.337,273.008,cs),
(836.337,219.685,o),
(784.99,205.861,o),
(757.341,205.861,cs),
(713.894,205.861,o),
(702.044,259.183,o),
(704.019,215.736,cs),
(705.994,184.137,o),
(735.618,154.514,o),
(767.216,146.614,cs),
(863.986,124.891,o),
(944.956,180.188,o),
(968.655,292.756,cs),
(1010.128,492.221,o),
(863.986,537.643,o),
(755.367,537.643,cs),
(506.53,537.643,o),
(561.827,259.183,o),
(548.003,63.669,cs),
(534.179,-119.996,o),
(388.036,-163.444,o),
(279.417,-167.394,cs),
(105.627,-173.318,o),
(20.706,-9.402,o),
(0.957,109.091,cs),
(-10.892,180.188,o),
(42.43,186.112,o),
(46.38,111.066,cs),
(50.33,34.045,o),
(105.627,-74.574,o),
(249.794,-74.574,cs),
(763.266,-74.574,o),
(287.317,624.539,o),
(721.793,624.539,cs)
);
}
);
width = 1057;
}
);
},
{
color = (255, 153, 254, 255);
glyphname = kn_ma_r;
layers = (
{
layerId = "CC7AEE9D-2AED-49C0-8074-4E98D62561AB";
shapes = (
{
closed = 1;
nodes = (
(-13.2,190.102,o),
(-37.554,219.676,o),
(2.457,219.676,cs),
(103.354,219.676,o),
(364.294,89.206,o),
(459.972,-37.785,cs),
(524.337,-124.765,o),
(526.077,-187.391,o),
(526.077,-208.266,cs),
(526.077,-382.226,o),
(418.221,-490.082,o),
(256.439,-490.082,cs),
(108.572,-490.082,o),
(-14.939,-429.195,o),
(-18.418,-276.111,cs),
(-21.898,-169.995,o),
(59.864,-70.838,o),
(176.417,-74.317,cs),
(282.533,-77.796,o),
(322.543,-182.172,o),
(322.543,-236.1,cs),
(322.543,-298.725,o),
(277.314,-366.57,o),
(199.032,-366.57,cs),
(108.572,-366.57,o),
(66.822,-310.903,o),
(59.864,-250.017,cs),
(52.905,-187.391,o),
(73.78,-149.12,o),
(45.947,-178.693,cs),
(16.374,-210.006,o),
(18.113,-269.152,o),
(18.113,-298.725,cs),
(18.113,-378.747,o),
(108.572,-453.55,o),
(199.032,-453.55,cs),
(317.325,-453.55,o),
(418.221,-382.226,o),
(433.878,-288.288,cs),
(458.232,-142.161,o),
(371.252,-37.785,o),
(270.355,42.236,cs),
(214.688,87.466,o),
(131.187,132.696,o),
(66.822,151.831,cs),
(54.645,155.31,o),
(26.811,165.748,o),
(5.936,179.665,cs)
);
},
{
closed = 1;
nodes = (
(103.354,-267.413,o),
(131.187,-295.246,o),
(176.417,-295.246,cs),
(233.824,-295.246,o),
(282.533,-256.975,o),
(263.397,-208.266,cs),
(251.22,-175.214,o),
(214.688,-156.078,o),
(179.896,-156.078,cs),
(136.406,-156.078,o),
(82.478,-185.651,o),
(94.656,-236.1,cs)
);
}
);
width = 527;
}
);
unicode = 3267;
},
{
color = (255, 153, 254, 255);
glyphname = "rrvocalsign-knda";
layers = (
{
layerId = "CC7AEE9D-2AED-49C0-8074-4E98D62561AB";
shapes = (
{
closed = 1;
nodes = (
(680.181,218.122,o),
(629.666,218.122,o),
(579.15,218.122,cs),
(418.893,218.122,o),
(181.992,218.122,o),
(23.477,218.122,cs),
(0.832,218.122,o),
(121.025,143.219,o),
(138.444,143.219,cs),
(356.184,143.219,o),
(542.57,151.929,o),
(756.826,151.929,cs),
(918.825,151.929,o),
(1075.598,82.252,o),
(1039.017,-126.779,cs),
(1025.082,-201.682,o),
(939.728,-260.907,o),
(871.793,-260.907,cs),
(779.471,-260.907,o),
(720.246,-191.23,o),
(737.665,-93.682,cs),
(741.149,-74.521,o),
(749.858,-72.779,o),
(758.568,-104.134,cs),
(769.019,-147.682,o),
(816.051,-184.262,o),
(875.277,-147.682,cs),
(957.147,-98.908,o),
(920.567,10.833,o),
(831.729,14.317,cs),
(737.665,17.801,o),
(692.375,-48.392,o),
(697.601,-144.198,cs),
(702.826,-231.294,o),
(775.987,-295.745,o),
(871.793,-306.197,cs),
(1005.921,-320.132,o),
(1106.952,-215.617,o),
(1106.952,-72.779,cs),
(1106.952,115.348,o),
(934.502,204.186,o),
(767.278,216.38,cs),
(755.084,218.122,o),
(741.149,218.122,o),
(728.955,218.122,cs)
);
},
{
alignment = -1;
pos = (20,0);
ref = kn_ma_r;
}
);
width = 1107;
}
);
unicode = 3268;
},
{
color = (255, 153, 254, 255);
glyphname = kn_ma_au;
layers = (
{
layerId = "CC7AEE9D-2AED-49C0-8074-4E98D62561AB";
shapes = (
{
closed = 1;
nodes = (
(277.699,786.729,o),
(218.395,786.729,o),
(44.075,786.729,cs),
(20.713,786.729,o),
(8.133,880.179,o),
(74.626,880.179,cs),
(328.019,880.179,o),
(534.686,880.179,o),
(788.079,880.179,cs),
(825.818,880.179,o),
(861.76,874.788,o),
(894.108,862.208,cs),
(969.587,835.251,o),
(1039.674,759.773,o),
(1077.413,687.888,cs),
(1194.225,461.453,o),
(1084.602,143.364,o),
(797.064,143.364,cs),
(674.861,143.364,o),
(599.382,235.017,o),
(599.382,353.626,cs),
(599.382,403.945,o),
(619.15,486.612,o),
(669.469,518.96,cs),
(757.528,574.671,o),
(890.514,536.931,o),
(890.514,420.119,cs),
(890.514,330.264,o),
(773.702,299.713,o),
(716.194,339.249,cs),
(651.498,384.177,o),
(664.078,448.873,o),
(658.687,443.482,cs),
(640.716,427.308,o),
(628.136,375.191,o),
(628.136,353.626,cs),
(628.136,276.35,o),
(707.209,209.857,o),
(800.658,209.857,cs),
(1140.312,209.857,o),
(1140.312,673.512,o),
(917.471,765.164,cs),
(834.803,799.309,o),
(608.368,786.729,o),
(523.903,786.729,cs),
(455.613,786.729,o),
(489.758,731.019,o),
(496.947,711.251,cs),
(529.295,616.004,o),
(439.439,502.786,o),
(387.323,502.786,cs),
(363.961,502.786,o),
(207.612,502.786,o),
(205.815,502.786,cs),
(164.482,502.786,o),
(164.482,603.424,o),
(202.221,603.424,cs),
(207.612,603.424,o),
(363.961,603.424,o),
(374.743,603.424,cs),
(514.918,603.424,o),
(443.034,786.729,o),
(403.497,786.729,cs)
);
}
);
width = 1124;
}
);
unicode = 3276;
},
{
color = (255, 153, 254, 255);
glyphname = kn_virama;
layers = (
{
layerId = "CC7AEE9D-2AED-49C0-8074-4E98D62561AB";
shapes = (
{
closed = 1;
nodes = (
(10,658.109,o),
(81.69,666.075,o),
(135.855,666.075,cs),
(215.51,666.075,o),
(449.696,664.482,o),
(565.993,664.482,cs),
(597.855,664.482,o),
(597.855,610.316,o),
(565.993,610.316,cs),
(449.696,610.316,o),
(225.069,610.316,o),
(103.993,610.316,cs),
(46.641,610.316,o),
(51.421,549.779,o),
(97.621,537.034,cs),
(142.227,524.289,o),
(213.917,524.289,o),
(256.931,524.289,cs),
(282.42,524.289,o),
(282.42,474.903,o),
(256.931,474.903,cs),
(213.917,474.903,o),
(51.421,487.648,o),
(48.234,433.482,cs),
(45.048,379.317,o),
(172.496,396.841,o),
(234.627,396.841,cs),
(284.013,396.841,o),
(284.013,352.234,o),
(234.627,352.234,cs),
(174.089,352.234,o),
(10,336.303,o),
(10,420.737,cs),
(10,474.903,o),
(33.897,495.613,o),
(83.283,506.765,cs),
(111.959,513.137,o),
(10,508.358,o),
(10,588.013,cs)
);
}
);
width = 600;
}
);
unicode = 3277;
},
{
color = (255, 153, 254, 255);
glyphname = kn_dherge_e;
layers = (
{
layerId = "CC7AEE9D-2AED-49C0-8074-4E98D62561AB";
shapes = (
{
closed = 1;
nodes = (
(20.144,539.646,o),
(74.686,666.909,o),
(172.199,666.909,cs),
(249.878,666.909,o),
(307.725,590.882,o),
(307.725,516.507,cs),
(307.725,422.3,o),
(258.142,352.884,o),
(154.018,380.981,cs),
(97.824,395.856,o),
(71.38,466.925,o),
(64.769,466.925,cs),
(51.547,466.925,o),
(53.2,420.647,o),
(53.2,412.383,cs),
(53.2,366.106,o),
(66.422,311.565,o),
(91.213,263.635,cs),
(132.532,185.955,o),
(215.17,136.372,o),
(271.364,66.956,cs),
(311.031,12.415,o),
(284.586,-18.988,o),
(230.045,12.415,cs),
(92.866,90.095,o),
(-7.952,306.607,o),
(6.922,458.661,cs)
);
},
{
closed = 1;
nodes = (
(104.435,471.883,o),
(130.88,445.439,o),
(172.199,445.439,cs),
(215.17,445.439,o),
(236.656,471.883,o),
(236.656,513.202,cs),
(236.656,557.827,o),
(213.518,580.965,o),
(172.199,580.965,cs),
(125.921,580.965,o),
(104.435,549.563,o),
(104.435,513.202,cs)
);
}
);
width = 308;
}
);
unicode = 3285;
},
{
color = (255, 153, 254, 255);
glyphname = kn_dherge_ai;
layers = (
{
layerId = "CC7AEE9D-2AED-49C0-8074-4E98D62561AB";
shapes = (
{
closed = 1;
nodes = (
(111.547,623.86,o),
(126.827,680.615,o),
(135.559,687.164,cs),
(146.473,695.896,o),
(159.571,676.25,o),
(170.485,658.786,cs),
(194.497,617.311,o),
(211.96,543.093,o),
(211.96,516.898,cs),
(211.96,388.108,o),
(74.438,322.621,o),
(74.438,198.196,cs),
(74.438,137.075,o),
(126.827,86.868,o),
(185.765,32.296,cs),
(253.435,-28.825,o),
(323.288,-105.226,o),
(323.288,-203.457,cs),
(323.288,-382.454,o),
(172.668,-437.026,o),
(24.231,-437.026,cs),
(-156.949,-437.026,o),
(-242.082,-242.749,o),
(-154.766,-103.044,cs),
(-111.108,-33.191,o),
(-63.084,1.735,o),
(6.768,-17.911,cs),
(83.169,-39.74,o),
(98.45,-111.775,o),
(89.718,-188.176,cs),
(83.169,-244.932,o),
(46.06,-268.944,o),
(-1.963,-268.944,cs),
(-56.536,-268.944,o),
(-87.096,-244.932,o),
(-124.205,-207.822,cs),
(-126.388,-205.64,o),
(-150.4,-225.286,o),
(-137.303,-292.955,cs),
(-128.571,-336.613,o),
(-69.633,-389.003,o),
(28.597,-389.003,cs),
(129.01,-389.003,o),
(246.886,-330.065,o),
(246.886,-188.176,cs),
(246.886,-70.3,o),
(170.485,-9.179,o),
(109.364,36.662,cs),
(46.06,84.685,o),
(11.134,121.795,o),
(11.134,209.11,cs),
(11.134,326.987,o),
(220.692,447.046,o),
(142.108,593.3,cs),
(137.742,599.848,o),
(129.01,604.214,o),
(124.644,608.58,cs)
);
},
{
closed = 1;
nodes = (
(-102.377,-166.348,o),
(-76.182,-214.371,o),
(-17.244,-207.822,cs),
(24.231,-203.457,o),
(41.694,-179.445,o),
(37.329,-135.787,cs),
(35.146,-103.044,o),
(6.768,-70.3,o),
(-28.158,-70.3,cs),
(-54.353,-70.3,o),
(-82.731,-85.58,o),
(-89.279,-116.141,cs)
);
}
);
width = 324;
}
);
unicode = 3286;
},
{
color = (153, 254, 255, 255);
glyphname = kn_0;
layers = (
{
layerId = "CC7AEE9D-2AED-49C0-8074-4E98D62561AB";
shapes = (
{
closed = 1;
nodes = (
(-52.41,397.252,o),
(125.006,683.205,o),
(415.132,683.205,cs),
(611.333,683.205,o),
(694.823,480.742,o),
(694.823,311.676,cs),
(694.823,125.911,o),
(571.676,11.113,o),
(385.911,0.676,cs),
(262.764,-7.673,o),
(141.704,59.119,o),
(91.61,146.783,cs)
);
},
{
closed = 1;
nodes = (
(83.261,159.307,o),
(214.757,75.817,o),
(352.515,88.341,cs),
(504.884,100.864,o),
(600.897,196.877,o),
(600.897,340.897,cs),
(600.897,457.783,o),
(546.629,545.447,o),
(415.132,557.97,cs),
(250.24,574.668,o),
(122.918,461.957,o),
(104.133,315.85,cs)
);
}
);
width = 735;
}
);
unicode = 3302;
},
{
color = (153, 254, 255, 255);
glyphname = kn_1;
layers = (
{
layerId = "CC7AEE9D-2AED-49C0-8074-4E98D62561AB";
shapes = (
{
closed = 1;
nodes = (
(52.426,570.711,o),
(289.277,685.873,o),
(470.382,673.421,cs),
(719.151,655.852,o),
(872.712,453.849,o),
(863.478,263.41,cs),
(858.151,153.542,o),
(766.46,3.81,o),
(643.774,9.759,cs),
(623.631,10.735,o),
(585.088,10.769,o),
(586.598,41.898,cs),
(592.28,159.091,o),
(768.07,150.568,o),
(773.752,267.761,cs),
(782.542,449.044,o),
(691.762,545.218,o),
(465.055,563.552,cs),
(351.702,572.719,o),
(133.463,500.705,o),
(125.117,328.578,cs),
(118.635,194.905,o),
(165.646,104.524,o),
(272.584,38.769,cs),
(315.466,14.664,o),
(261.298,-4.735,o),
(232.266,2.179,cs),
(90.413,29.247,o),
(34.58,202.651,o),
(40.884,332.662,cs)
);
}
);
width = 904;
}
);
unicode = 3303;
},
{
color = (153, 254, 255, 255);
glyphname = kn_2;
layers = (
{
layerId = "CC7AEE9D-2AED-49C0-8074-4E98D62561AB";
shapes = (
{
closed = 1;
nodes = (
(529.753,573.247,o),
(689.301,683.358,o),
(882.555,683.358,cs),
(1066.822,683.358,o),
(1147.719,526.057,o),
(1147.719,359.768,cs),
(1147.719,153.031,o),
(1010.643,6.966,o),
(799.411,6.966,cs),
(599.415,6.966,o),
(314.027,6.966,o),
(98.3,6.966,cs),
(26.392,6.966,o),
(17.403,126.065,o),
(98.3,126.065,cs),
(233.129,126.065,o),
(464.586,126.065,o),
(599.415,126.065,cs),
(646.605,126.065,o),
(529.753,202.468,o),
(529.753,359.768,cs)
);
},
{
closed = 1;
nodes = (
(617.392,195.726,o),
(729.749,126.065,o),
(853.342,126.065,cs),
(947.723,126.065,o),
(1024.126,191.232,o),
(1062.327,274.377,cs),
(1105.023,368.757,o),
(1075.81,555.27,o),
(936.487,586.73,cs),
(752.221,629.426,o),
(617.392,514.822,o),
(617.392,330.555,cs)
);
}
);
width = 1188;
}
);
unicode = 3304;
},
{
color = (153, 254, 255, 255);
glyphname = kn_3;
layers = (
{
layerId = "CC7AEE9D-2AED-49C0-8074-4E98D62561AB";
shapes = (
{
closed = 1;
nodes = (
(70.841,660.394,o),
(169.325,689.523,o),
(240.068,689.523,cs),
(342.714,689.523,o),
(457.844,646.523,o),
(457.844,525.845,cs),
(457.844,395.456,o),
(323.294,380.198,o),
(349.649,362.166,cs),
(381.553,339.972,o),
(457.844,288.649,o),
(457.844,198.487,cs),
(457.844,62.55,o),
(339.94,-1.257,o),
(228.971,-1.257,cs),
(158.228,-1.257,o),
(68.066,48.679,o),
(44.485,120.809,cs),
(23.679,184.616,o),
(79.163,259.52,o),
(131.873,183.229,cs),
(158.228,145.777,o),
(162.39,77.808,o),
(235.906,77.808,cs),
(301.101,77.808,o),
(403.747,122.196,o),
(403.747,198.487,cs),
(403.747,323.327,o),
(237.294,356.617,o),
(148.519,344.133,cs),
(90.26,335.811,o),
(98.583,385.747,o),
(134.647,407.94,cs),
(199.842,449.554,o),
(385.714,380.198,o),
(385.714,543.877,cs),
(385.714,621.555,o),
(323.294,635.426,o),
(258.1,635.426,cs),
(179.035,635.426,o),
(161.003,554.974,o),
(116.615,521.683,cs),
(65.292,482.844,o),
(52.808,538.328,o),
(58.357,579.942,cs)
);
}
);
width = 498;
}
);
unicode = 3305;
},
{
color = (153, 254, 255, 255);
glyphname = kn_4;
layers = (
{
layerId = "CC7AEE9D-2AED-49C0-8074-4E98D62561AB";
shapes = (
{
closed = 1;
nodes = (
(646.362,738.847,o),
(681.746,678.399,o),
(646.362,631.22,cs),
(621.298,597.311,o),
(432.582,426.287,o),
(388.352,387.954,cs),
(366.237,368.788,o),
(498.928,267.058,o),
(498.928,155.008,cs),
(498.928,70.971,o),
(413.416,-4.221,o),
(333.802,-4.221,cs),
(254.187,-4.221,o),
(183.419,76.868,o),
(183.419,155.008,cs),
(183.419,224.302,o),
(263.033,351.096,o),
(288.097,382.057,cs),
(304.315,401.223,o),
(81.689,532.44,o),
(49.254,573.721,cs),
(19.767,613.528,o),
(72.843,663.656,o),
(106.753,632.695,cs),
(162.778,579.618,o),
(285.148,470.517,o),
(341.173,417.441,cs),
(358.865,401.223,o),
(500.402,644.489,o),
(590.337,701.989,cs)
);
},
{
closed = 1;
nodes = (
(243.867,113.727,o),
(268.931,66.548,o),
(333.802,66.548,cs),
(386.878,66.548,o),
(425.211,121.098,o),
(425.211,174.175,cs),
(425.211,252.315,o),
(382.455,305.391,o),
(348.545,331.929,cs),
(314.635,358.467,o),
(255.662,267.058,o),
(248.29,174.175,cs)
);
}
);
width = 701;
}
);
unicode = 3306;
},
{
color = (153, 254, 255, 255);
glyphname = kn_5;
layers = (
{
layerId = "CC7AEE9D-2AED-49C0-8074-4E98D62561AB";
shapes = (
{
closed = 1;
nodes = (
(675.714,390.2,o),
(723.61,418.14,o),
(723.61,472.024,cs),
(723.61,537.882,o),
(701.658,569.813,o),
(635.8,559.834,cs),
(583.912,551.851,o),
(555.972,487.989,o),
(545.994,434.105,cs),
(538.011,390.2,o),
(569.942,356.273,o),
(629.813,376.23,cs)
);
},
{
closed = 1;
nodes = (
(565.95,182.648,o),
(565.95,58.915,o),
(565.95,-62.822,cs),
(565.95,-152.629,o),
(585.907,-132.672,o),
(659.748,-148.637,cs),
(713.632,-160.611,o),
(739.576,-214.495,o),
(625.821,-214.495,cs),
(577.925,-214.495,o),
(526.037,-206.512,o),
(520.05,-154.624,cs),
(504.084,-0.956,o),
(520.05,136.747,o),
(520.05,266.467,cs),
(520.05,290.415,o),
(486.123,294.407,o),
(464.17,294.407,cs),
(428.248,294.407,o),
(418.269,290.415,o),
(400.308,240.523,cs),
(370.372,152.713,o),
(328.463,60.911,o),
(212.713,60.911,cs),
(130.889,60.911,o),
(94.967,124.773,o),
(94.967,198.614,cs),
(94.967,314.364,o),
(244.644,372.239,o),
(342.433,374.235,cs),
(356.403,374.235,o),
(340.437,394.192,o),
(334.45,404.17,cs),
(250.631,539.877,o),
(186.769,499.963,o),
(84.988,559.834,cs),
(57.048,577.795,o),
(5.16,679.576,o),
(77.005,667.602,cs),
(208.721,647.645,o),
(300.523,525.907,o),
(362.39,418.14,cs),
(392.325,366.252,o),
(388.334,334.321,o),
(468.161,334.321,cs),
(488.118,334.321,o),
(504.084,344.299,o),
(504.084,372.239,cs),
(504.084,470.028,o),
(492.11,619.705,o),
(625.821,629.684,cs),
(723.61,637.666,o),
(781.485,569.813,o),
(781.485,472.024,cs),
(781.485,404.17,o),
(765.52,334.321,o),
(683.696,334.321,cs),
(649.77,334.321,o),
(565.95,348.291,o),
(565.95,304.385,cs)
);
},
{
closed = 1;
nodes = (
(154.837,158.7,o),
(176.79,126.769,o),
(212.713,118.786,cs),
(306.51,98.829,o),
(358.398,194.622,o),
(358.398,282.433,cs),
(358.398,322.347,o),
(320.48,316.36,o),
(292.54,316.36,cs),
(226.682,316.36,o),
(154.837,270.459,o),
(154.837,198.614,cs)
);
}
);
width = 822;
}
);
unicode = 3307;
},
{
color = (153, 254, 255, 255);
glyphname = kn_6;
layers = (
{
layerId = "CC7AEE9D-2AED-49C0-8074-4E98D62561AB";
shapes = (
{
closed = 1;
nodes = (
(231.567,262.989,o),
(378.596,253.188,o),
(480.535,241.425,cs),
(560.911,231.623,o),
(555.029,349.246,o),
(498.178,349.246,cs),
(402.12,349.246,o),
(129.628,319.84,o),
(139.43,500.195,cs),
(141.39,547.244,o),
(182.558,580.57,o),
(219.805,582.531,cs),
(409.962,592.333,o),
(594.237,560.967,o),
(782.433,560.967,cs),
(858.888,560.967,o),
(937.303,560.967,o),
(1013.757,560.967,cs),
(1084.331,560.967,o),
(1064.727,649.183,o),
(1003.955,649.183,cs),
(745.186,649.183,o),
(478.575,649.183,o),
(219.805,649.183,cs),
(92.381,649.183,o),
(33.569,555.085,o),
(41.411,425.701,cs),
(45.332,364.929,o),
(82.579,321.801,o),
(143.35,290.435,c),
(35.53,243.386,o),
(61.015,115.961,o),
(70.817,86.556,cs),
(113.945,-46.75,o),
(374.675,-33.027,o),
(486.416,-33.027,cs),
(556.99,-33.027,o),
(555.029,86.556,o),
(500.139,86.556,cs),
(335.467,86.556,o),
(300.181,82.635,o),
(196.281,102.239,cs),
(115.905,117.922,o),
(119.826,270.831,o),
(229.607,262.989,cs)
);
}
);
width = 1099;
}
);
unicode = 3308;
},
{
color = (153, 254, 255, 255);
glyphname = kn_7;
layers = (
{
layerId = "CC7AEE9D-2AED-49C0-8074-4E98D62561AB";
shapes = (
{
closed = 1;
nodes = (
(-1.683,69.074,o),
(287.77,-53.039,o),
(363.149,165.558,cs),
(375.209,201.74,o),
(411.391,185.157,o),
(397.823,126.362,cs),
(378.225,38.923,o),
(322.445,-30.426,o),
(228.975,-30.426,cs),
(96.309,-30.426,o),
(-19.774,82.642,o),
(75.203,230.384,cs),
(150.582,347.974,o),
(406.868,352.497,o),
(372.194,492.701,cs),
(334.505,643.458,o),
(162.642,614.814,o),
(124.953,450.489,cs),
(112.892,399.232,o),
(54.097,458.027,o),
(67.665,509.284,cs),
(85.756,572.602,o),
(138.521,625.367,o),
(198.824,643.458,cs),
(319.429,678.132,o),
(415.914,604.261,o),
(415.914,474.61,cs),
(415.914,323.853,o),
(188.271,308.778,o),
(114.4,215.308,cs)
);
}
);
width = 456;
}
);
unicode = 3309;
},
{
color = (153, 254, 255, 255);
glyphname = kn_8;
layers = (
{
layerId = "CC7AEE9D-2AED-49C0-8074-4E98D62561AB";
shapes = (
{
closed = 1;
nodes = (
(587.872,542.671,o),
(768.324,544.213,o),
(933.353,544.213,cs),
(995.046,544.213,o),
(982.707,445.504,o),
(927.183,445.504,cs),
(799.17,445.504,o),
(649.565,445.504,o),
(521.552,445.504,cs),
(503.044,445.504,o),
(507.671,448.589,o),
(518.467,433.166,cs),
(566.279,365.303,o),
(607.922,314.407,o),
(607.922,223.409,cs),
(607.922,95.396,o),
(492.248,-0.228,o),
(336.473,-0.228,cs),
(143.682,-0.228,o),
(48.058,232.663,o),
(40.346,400.777,cs),
(40.346,434.708,o),
(89.701,437.793,o),
(89.701,400.777,cs),
(97.412,252.714,o),
(180.698,75.346,o),
(345.727,75.346,cs),
(476.824,75.346,o),
(543.144,155.547,o),
(533.89,272.764,cs),
(526.179,371.473,o),
(422.843,417.742,o),
(375.031,487.147,cs),
(358.065,513.367,o),
(358.065,536.501,o),
(422.843,538.044,cs)
);
}
);
width = 1015;
}
);
unicode = 3310;
},
{
color = (153, 254, 255, 255);
glyphname = kn_9;
layers = (
{
layerId = "CC7AEE9D-2AED-49C0-8074-4E98D62561AB";
shapes = (
{
closed = 1;
nodes = (
(33.289,322.972,o),
(-11.717,528.435,o),
(158.523,540.175,cs),
(348.331,553.873,o),
(542.053,559.743,o),
(733.818,559.743,cs),
(827.743,559.743,o),
(831.657,463.861,o),
(733.818,459.947,cs),
(559.664,454.077,o),
(387.467,452.12,o),
(209.4,454.077,cs),
(99.82,456.034,o),
(78.295,358.194,o),
(205.486,336.67,cs),
(272.017,324.929,o),
(320.936,328.843,o),
(430.516,332.756,cs),
(481.393,334.713,o),
(500.96,234.917,o),
(432.473,231.004,cs),
(334.634,227.09,o),
(268.103,238.831,o),
(174.178,238.831,cs),
(127.215,238.831,o),
(109.604,197.738,o),
(123.301,156.646,cs),
(148.739,74.461,o),
(303.325,72.504,o),
(408.992,80.331,cs),
(453.998,84.245,o),
(487.263,0.103,o),
(393.337,0.103,cs),
(268.103,0.103,o),
(43.073,11.844,o),
(46.987,182.084,cs),
(48.944,248.615,o),
(129.172,287.75,o),
(101.777,297.534,cs)
);
}
);
width = 846;
}
);
unicode = 3311;
},
{
color = (153, 254, 255, 255);
glyphname = zero;
layers = (
{
layerId = "CC7AEE9D-2AED-49C0-8074-4E98D62561AB";
shapes = (
{
closed = 1;
nodes = (
(437.301,684.518,o),
(501.627,458.591,o),
(501.627,347.196,cs),
(501.627,188.734,o),
(437.301,0.461,o),
(274.131,0.461,cs),
(96.841,0.461,o),
(40.36,188.734,o),
(40.36,347.196,cs),
(40.36,458.591,o),
(96.841,684.518,o),
(274.131,684.518,cs)
);
},
{
closed = 1;
nodes = (
(140.772,317.387,o),
(140.772,33.409,o),
(274.131,33.409,cs),
(394.94,33.409,o),
(409.06,304.835,o),
(409.06,347.196,cs),
(409.06,398.971,o),
(394.94,651.57,o),
(274.131,651.57,cs),
(139.203,651.57,o),
(140.772,387.989,o),
(140.772,347.196,cs)
);
}
);
width = 542;
}
);
unicode = 48;
},
{
color = (153, 254, 255, 255);
glyphname = one;
layers = (
{
layerId = "CC7AEE9D-2AED-49C0-8074-4E98D62561AB";
shapes = (
{
closed = 1;
nodes = (
(113.736,682.579,o),
(119.364,682.579,o),
(245.058,682.579,cs),
(271.322,682.579,o),
(275.074,676.95,o),
(275.074,654.438,cs),
(275.074,466.835,o),
(275.074,266.099,o),
(275.074,78.496,cs),
(275.074,35.347,o),
(365.124,1.579,o),
(316.347,1.579,cs),
(245.058,1.579,o),
(171.893,1.579,o),
(100.603,1.579,cs),
(53.702,1.579,o),
(147.504,35.347,o),
(147.504,74.744,cs),
(147.504,241.711,o),
(147.504,434.942,o),
(147.504,601.909,cs),
(147.504,628.174,o),
(-41.975,682.579,o),
(109.983,682.579,cs)
);
}
);
width = 381;
}
);
unicode = 49;
},
{
color = (153, 254, 255, 255);
glyphname = two;
layers = (
{
layerId = "CC7AEE9D-2AED-49C0-8074-4E98D62561AB";
shapes = (
{
closed = 1;
nodes = (
(81.399,502.507,o),
(174.71,534.63,o),
(183.889,432.141,cs),
(186.948,395.428,o),
(139.527,370.953,o),
(107.404,381.661,cs),
(64.572,396.958,o),
(40.097,465.794,o),
(40.097,510.155,cs),
(40.097,634.061,o),
(174.71,683.011,o),
(274.141,683.011,cs),
(416.403,683.011,o),
(558.664,577.462,o),
(466.883,427.552,cs),
(433.229,374.012,o),
(323.091,245.518,o),
(203.775,152.206,cs),
(141.057,103.256,o),
(165.532,101.726,o),
(199.186,101.726,cs),
(254.255,101.726,o),
(352.155,101.726,o),
(410.284,101.726,cs),
(440.878,101.726,o),
(471.472,219.513,o),
(506.655,231.75,cs),
(523.481,237.869,o),
(526.541,234.81,o),
(523.481,217.983,cs),
(511.244,153.736,o),
(476.061,0.766,o),
(468.412,0.766,cs),
(333.799,0.766,o),
(185.418,0.766,o),
(50.805,0.766,cs),
(7.973,0.766,o),
(104.344,123.142,o),
(190.007,188.919,cs),
(323.091,291.409,o),
(401.106,444.378,o),
(381.22,539.22,cs),
(349.096,689.13,o),
(102.815,644.769,o),
(92.107,571.343,cs)
);
}
);
width = 565;
}
);
unicode = 50;
},
{
color = (153, 254, 255, 255);
glyphname = three;
layers = (
{
layerId = "CC7AEE9D-2AED-49C0-8074-4E98D62561AB";
shapes = (
{
closed = 1;
nodes = (
(40.711,255.946,o),
(173.182,244.208,o),
(168.152,167.073,cs),
(164.798,120.121,o),
(131.261,111.737,o),
(131.261,58.078,cs),
(131.261,42.986,o),
(178.213,12.803,o),
(230.195,12.803,cs),
(305.653,12.803,o),
(419.679,83.23,o),
(399.557,220.732,cs),
(377.758,363.264,o),
(275.47,338.112,o),
(188.274,349.85,cs),
(171.505,351.526,o),
(168.152,363.264,o),
(181.566,368.295,cs),
(265.409,405.186,o),
(384.465,442.076,o),
(384.465,546.041,cs),
(384.465,686.897,o),
(238.579,670.128,o),
(171.505,639.945,cs),
(166.475,638.268,o),
(208.396,629.884,o),
(203.365,564.487,cs),
(196.658,470.583,o),
(77.602,465.552,o),
(77.602,546.041,cs),
(77.602,733.849,o),
(491.784,742.233,o),
(491.784,564.487,cs),
(491.784,401.832,o),
(312.361,386.74,o),
(330.806,383.387,cs),
(357.636,378.356,o),
(496.814,378.356,o),
(510.229,220.732,cs),
(533.705,-54.271,o),
(40.711,-69.363,o),
(40.711,130.182,cs)
);
}
);
width = 552;
}
);
unicode = 51;
},
{
color = (153, 254, 255, 255);
glyphname = four;
layers = (
{
layerId = "CC7AEE9D-2AED-49C0-8074-4E98D62561AB";
shapes = (
{
closed = 1;
nodes = (
(412.922,725.286,o),
(403.247,628.531,o),
(403.247,578.541,cs),
(403.247,473.723,o),
(403.247,368.906,o),
(403.247,264.088,cs),
(403.247,264.088,o),
(445.174,264.088,o),
(458.074,264.088,cs),
(467.75,264.088,o),
(467.75,223.774,o),
(458.074,223.774,cs),
(440.336,223.774,o),
(400.021,225.386,o),
(400.021,220.549,cs),
(400.021,188.297,o),
(403.247,127.019,o),
(403.247,72.191,cs),
(403.247,36.715,o),
(503.227,1.238,o),
(469.362,1.238,cs),
(462.912,1.238,o),
(419.372,1.238,o),
(225.863,1.238,cs),
(190.386,1.238,o),
(298.429,36.715,o),
(298.429,72.191,cs),
(298.429,127.019,o),
(298.429,152.82,o),
(298.429,191.522,cs),
(296.816,233.449,o),
(304.879,225.386,o),
(245.214,225.386,cs),
(195.224,225.386,o),
(146.847,225.386,o),
(96.857,225.386,cs),
(66.218,225.386,o),
(40.416,223.774,o),
(40.416,262.476,cs),
(40.416,291.502,o),
(296.816,612.405,o),
(346.806,660.783,cs)
);
},
{
closed = 1;
nodes = (
(79.118,272.151,o),
(88.794,260.863,o),
(112.982,260.863,cs),
(167.81,260.863,o),
(222.638,260.863,o),
(275.853,260.863,cs),
(300.042,260.863,o),
(301.654,270.538,o),
(301.654,317.303,cs),
(301.654,372.131,o),
(301.654,430.184,o),
(301.654,485.011,cs),
(301.654,504.362,o),
(293.591,512.425,o),
(282.303,504.362,cs),
(248.439,481.786,o),
(133.946,344.717,o),
(88.794,285.052,cs)
);
}
);
width = 546;
}
);
unicode = 52;
},
{
color = (153, 254, 255, 255);
glyphname = five;
layers = (
{
layerId = "CC7AEE9D-2AED-49C0-8074-4E98D62561AB";
shapes = (
{
closed = 1;
nodes = (
(148.766,-2.032,o),
(48.202,41.691,o),
(40.915,127.681,cs),
(32.17,220.957,o),
(144.394,232.617,o),
(151.681,146.628,cs),
(156.053,92.702,o),
(110.872,82.5,o),
(134.191,53.351,cs),
(163.34,16.915,o),
(247.872,21.287,o),
(301.798,51.894,cs),
(460.66,140.798,o),
(374.67,448.319,o),
(198.319,401.681,cs),
(164.798,392.936,o),
(148.766,368.16,o),
(141.479,333.181,cs),
(137.106,311.319,o),
(115.245,318.606,o),
(115.245,346.298,cs),
(115.245,417.713,o),
(115.245,591.149,o),
(115.245,662.564,cs),
(115.245,675.681,o),
(123.989,682.968,o),
(151.681,682.968,cs),
(163.34,682.968,o),
(208.521,682.968,o),
(424.223,682.968,cs),
(446.085,682.968,o),
(444.628,614.468,o),
(424.223,614.468,cs),
(373.213,614.468,o),
(242.043,614.468,o),
(191.032,614.468,cs),
(176.457,614.468,o),
(179.372,604.266,o),
(179.372,589.691,cs),
(179.372,559.085,o),
(177.915,478.926,o),
(177.915,442.489,cs),
(177.915,427.915,o),
(176.457,422.085,o),
(183.745,427.915,cs),
(256.617,486.213,o),
(479.606,442.489,o),
(478.149,220.957,cs),
(478.149,65.011,o),
(336.777,-2.032,o),
(220.181,-2.032,cs)
);
}
);
width = 529;
}
);
unicode = 53;
},
{
color = (153, 254, 255, 255);
glyphname = six;
layers = (
{
layerId = "CC7AEE9D-2AED-49C0-8074-4E98D62561AB";
shapes = (
{
closed = 1;
nodes = (
(40.601,442.692,o),
(102.002,609.758,o),
(270.496,666.875,cs),
(349.031,694.005,o),
(444.701,688.293,o),
(488.967,639.744,cs),
(527.52,598.335,o),
(483.255,529.795,o),
(421.855,545.502,cs),
(364.738,554.069,o),
(366.166,615.47,o),
(314.761,621.181,cs),
(211.951,634.033,o),
(151.979,476.962,o),
(163.402,399.855,cs),
(164.83,385.575,o),
(169.114,385.575,o),
(183.393,396.999,cs),
(293.342,476.962,o),
(503.246,418.417,o),
(503.246,228.505,cs),
(503.246,94.281,o),
(399.008,0.038,o),
(253.361,0.038,cs),
(73.443,0.038,o),
(40.601,139.974,o),
(40.601,298.473,cs)
);
},
{
closed = 1;
nodes = (
(303.338,17.173,o),
(374.733,75.718,o),
(387.585,169.96,cs),
(399.008,251.351,o),
(414.715,385.575,o),
(299.054,385.575,cs),
(220.519,385.575,o),
(157.69,307.04,o),
(146.267,194.235,cs),
(139.127,125.695,o),
(151.979,60.011,o),
(213.379,42.876,cs)
);
}
);
width = 544;
}
);
unicode = 54;
},
{
color = (153, 254, 255, 255);
glyphname = seven;
layers = (
{
layerId = "CC7AEE9D-2AED-49C0-8074-4E98D62561AB";
shapes = (
{
closed = 1;
nodes = (
(174.494,-17.004,o),
(61.061,-29.333,o),
(72.158,58.208,cs),
(83.254,143.283,o),
(190.523,190.136,o),
(338.48,527.971,cs),
(344.645,542.767,o),
(333.548,545.233,o),
(323.684,545.233,cs),
(302.724,545.233,o),
(95.584,563.727,o),
(78.322,546.466,cs),
(67.226,535.369,o),
(67.226,521.806,o),
(56.129,510.709,cs),
(49.964,505.778,o),
(38.867,497.147,o),
(41.333,508.243,cs),
(53.663,556.329,o),
(79.555,621.677,o),
(93.118,653.734,cs),
(99.283,668.53,o),
(162.165,646.337,o),
(342.179,646.337,cs),
(355.742,646.337,o),
(384.1,647.57,o),
(403.828,643.871,cs),
(419.856,640.172,o),
(428.487,634.007,o),
(428.487,616.745,cs),
(428.487,569.892,o),
(382.867,539.068,o),
(363.14,498.38,cs),
(238.609,245.62,o),
(243.541,156.846,o),
(206.552,64.373,cs)
);
}
);
width = 469;
}
);
unicode = 55;
},
{
color = (153, 254, 255, 255);
glyphname = eight;
layers = (
{
layerId = "CC7AEE9D-2AED-49C0-8074-4E98D62561AB";
shapes = (
{
closed = 1;
nodes = (
(135.838,3.53,o),
(35.04,52.062,o),
(41.262,190.192,cs),
(44.995,266.102,o),
(87.305,295.968,o),
(138.326,315.879,cs),
(149.526,319.612,o),
(68.639,345.745,o),
(61.173,495.075,cs),
(53.706,628.227,o),
(154.504,689.204,o),
(268.99,682.982,cs),
(369.788,679.248,o),
(490.496,649.382,o),
(490.496,529.918,cs),
(490.496,394.277,o),
(394.676,383.077,o),
(412.098,375.611,cs),
(505.429,337.034,o),
(512.896,257.391,o),
(507.918,181.481,cs),
(497.963,42.107,o),
(398.41,-8.914,o),
(257.79,-1.448,cs)
);
},
{
closed = 1;
nodes = (
(434.498,247.436,o),
(264.013,286.013,o),
(191.836,299.701,cs),
(165.704,304.679,o),
(104.727,239.969,o),
(120.905,150.371,cs),
(128.371,111.794,o),
(160.726,33.396,o),
(257.79,28.418,cs),
(346.144,24.685,o),
(434.498,68.24,o),
(434.498,135.438,cs)
);
},
{
closed = 1;
nodes = (
(390.943,400.499,o),
(422.054,437.831,o),
(422.054,529.918,cs),
(422.054,594.628,o),
(358.588,626.983,o),
(297.612,630.716,cs),
(224.191,635.694,o),
(128.371,624.494,o),
(137.082,529.918,cs),
(145.793,422.898,o),
(266.501,409.21,o),
(352.366,402.988,cs)
);
}
);
width = 550;
}
);
unicode = 56;
},
{
color = (153, 254, 255, 255);
glyphname = nine;
layers = (
{
layerId = "CC7AEE9D-2AED-49C0-8074-4E98D62561AB";
shapes = (
{
closed = 1;
nodes = (
(40.272,586.808,o),
(109.096,682.799,o),
(261.232,682.799,cs),
(404.313,682.799,o),
(484.003,530.663,o),
(484.003,391.204,cs),
(484.003,217.334,o),
(386.201,1.808,o),
(199.653,1.808,cs),
(141.697,1.808,o),
(56.573,-1.814,o),
(56.573,86.932,cs),
(56.573,119.533,o),
(78.307,153.944,o),
(119.963,153.944,cs),
(181.542,153.944,o),
(203.276,54.331,o),
(136.263,36.22,cs),
(127.207,34.409,o),
(168.864,34.409,o),
(188.786,36.22,cs),
(366.279,50.709,o),
(391.635,284.347,o),
(391.635,425.616,cs),
(391.635,517.985,o),
(377.146,646.576,o),
(261.232,646.576,cs),
(163.43,646.576,o),
(130.83,503.495,o),
(130.83,425.616,cs),
(130.83,327.814,o),
(168.864,248.124,o),
(284.777,268.046,cs),
(302.889,271.669,o),
(340.923,268.046,o),
(301.077,258.991,cs),
(185.164,231.824,o),
(40.272,268.046,o),
(40.272,425.616,cs)
);
}
);
width = 525;
}
);
unicode = 57;
},
{
glyphname = kn_k_ottu;
layers = (
{
layerId = "CC7AEE9D-2AED-49C0-8074-4E98D62561AB";
shapes = (
{
closed = 1;
nodes = (
(-41.616,-179.712,o),
(-9.78,-147.876,o),
(29.403,-147.876,cs),
(66.136,-147.876,o),
(97.972,-179.712,o),
(97.972,-216.446,cs),
(97.972,-253.18,o),
(66.136,-285.016,o),
(29.403,-285.016,cs),
(-9.78,-285.016,o),
(-41.616,-253.18,o),
(-41.616,-216.446,cs)
);
},
{
closed = 1;
nodes = (
(-78.35,-285.016,o),
(-31.82,-331.545,o),
(29.403,-331.545,cs),
(88.177,-331.545,o),
(134.706,-285.016,o),
(134.706,-226.242,cs),
(134.706,-165.019,o),
(88.177,-118.489,o),
(29.403,-118.489,cs),
(-31.82,-118.489,o),
(-78.35,-165.019,o),
(-78.35,-226.242,cs)
);
},
{
closed = 1;
nodes = (
(-119.981,-118.489,ls),
(-119.981,-131.615,o),
(-113.518,-138.081,o),
(-100.394,-138.081,cs),
(156.751,-138.081,ls),
(169.874,-138.081,o),
(176.338,-131.615,o),
(176.338,-118.489,cs),
(176.338,-113.592,ls),
(176.338,-100.465,o),
(169.874,-94,o),
(156.751,-94,cs),
(-100.394,-94,ls),
(-113.518,-94,o),
(-119.981,-100.465,o),
(-119.981,-113.592,cs)
);
},
{
closed = 1;
nodes = (
(-24.474,60.282,o),
(-41.616,-79.306,o),
(48.994,-113.591,c),
(71.034,-113.591,o),
(80.83,-108.694,o),
(97.972,-103.796,c),
(7.362,-81.755,o),
(-7.331,-5.839,o),
(19.607,82.322,cs),
(24.505,94.567,o),
(-9.78,106.811,o),
(-14.678,92.118,cs)
);
}
);
width = 177;
}
);
leftKerningGroup = "-77";
},
{
glyphname = kn_kh_ottu;
layers = (
{
layerId = "CC7AEE9D-2AED-49C0-8074-4E98D62561AB";
shapes = (
{
closed = 1;
nodes = (
(-13,-8,o),
(3,10,o),
(30,1,cs),
(59,-8,o),
(64,-31,o),
(64,-48,cs),
(64,-75,o),
(49,-91,o),
(21,-91,cs),
(-33,-91,o),
(-68,-61,o),
(-61,-7,cs),
(-43,131,o),
(239,117,o),
(237,-101,cs),
(236,-175,o),
(198,-219,o),
(198,-235,cs),
(198,-258,o),
(261,-282,o),
(299,-285,cs),
(381,-291,o),
(450,-203,o),
(450,-124,cs),
(450,-16,o),
(372,29,o),
(310,62,cs),
(306,64,o),
(293,70,o),
(293,76,cs),
(293,80,o),
(297,86,o),
(306,86,cs),
(552,86,o),
(554,-356,o),
(309,-330,cs),
(226,-321,o),
(208,-262,o),
(172,-262,cs),
(152,-262,o),
(113,-324,o),
(28,-324,cs),
(-32,-324,o),
(-100,-301,o),
(-100,-239,cs),
(-100,-184,o),
(-32,-167,o),
(12,-167,cs),
(114,-167,o),
(126,-220,o),
(155,-220,cs),
(178,-220,o),
(208,-172,o),
(211,-129,cs),
(229,135,o),
(-28,69,o),
(-28,-16,c)
);
},
{
closed = 1;
nodes = (
(-72,-268,o),
(-21,-275,o),
(14,-275,cs),
(41,-275,o),
(126,-266,o),
(126,-227,cs),
(126,-207,o),
(75,-198,o),
(60,-196,cs),
(19,-191,o),
(-79,-209,o),
(-75,-244,cs)
);
}
);
width = 492;
}
);
},
{
glyphname = kn_g_ottu;
layers = (
{
layerId = "CC7AEE9D-2AED-49C0-8074-4E98D62561AB";
shapes = (
{
closed = 1;
nodes = (
(110,89,o),
(136,25,o),
(160,-13,cs),
(210,-91,o),
(238,-180,o),
(273,-265,cs),
(289,-305,o),
(229,-328,o),
(224,-309,cs),
(215,-275,o),
(132,-39,o),
(83,19,cs),
(78,25,o),
(71,33,o),
(63,19,cs),
(37,-29,o),
(-55,-221,o),
(-101,-307,cs),
(-115,-333,o),
(-161,-302,o),
(-147,-268,cs),
(-117,-197,o),
(-39,-30,o),
(1,52,cs),
(12,74,o),
(31,89,o),
(58,89,cs)
);
}
);
width = 276;
}
);
},
{
glyphname = kn_gh_ottu;
layers = (
{
layerId = "CC7AEE9D-2AED-49C0-8074-4E98D62561AB";
shapes = (
{
closed = 1;
nodes = (
(293,51,o),
(309,66,o),
(332,57,cs),
(430,17,o),
(529,-90,o),
(529,-200,cs),
(529,-254,o),
(477,-310,o),
(420,-315,cs),
(328,-323,o),
(276,-233,o),
(249,-195,c),
(243,-248,o),
(203,-306,o),
(148,-312,cs),
(35,-323,o),
(-11,-221,o),
(-62,-195,c),
(-57,-226,o),
(-79,-315,o),
(-142,-315,cs),
(-208,-315,o),
(-253,-260,o),
(-253,-192,cs),
(-253,-136,o),
(-212,-109,o),
(-157,-109,cs),
(-57,-109,o),
(9,-266,o),
(81,-272,cs),
(227,-284,o),
(207,-108,o),
(111,-30,cs),
(82,-6,o),
(9,6,o),
(9,36,cs),
(9,44,o),
(21,48,o),
(27,48,cs),
(184,43,o),
(243,-214,o),
(344,-257,cs),
(414,-287,o),
(471,-223,o),
(471,-148,cs),
(471,-61,o),
(386,-5,o),
(318,36,cs)
);
},
{
closed = 1;
nodes = (
(-215,-231,o),
(-195,-259,o),
(-168,-259,cs),
(-137,-259,o),
(-111,-247,o),
(-108,-214,cs),
(-106,-188,o),
(-116,-164,o),
(-151,-157,cs),
(-179,-152,o),
(-209,-174,o),
(-211,-195,cs)
);
},
{
closed = 1;
nodes = (
(-48,-276,o),
(-51,-258,o),
(-37,-257,cs),
(-21,-255,o),
(-25,-274,o),
(-25,-285,cs),
(-25,-320,o),
(11,-390,o),
(22,-458,cs),
(24,-477,o),
(30,-518,o),
(4,-520,cs),
(-42,-524,o),
(-36,-449,o),
(-34,-417,cs),
(-30,-364,o),
(-37,-334,o),
(-45,-291,cs)
);
}
);
width = 529;
}
);
},
{
glyphname = kn_ng_ottu;
layers = (
{
layerId = "CC7AEE9D-2AED-49C0-8074-4E98D62561AB";
shapes = (
{
closed = 1;
nodes = (
(-54.349,-66.229,o),
(-17.592,-16.025,o),
(50.543,-16.025,cs),
(92.679,-16.025,o),
(124.954,-34.851,o),
(149.16,-68.022,cs),
(167.09,-93.125,o),
(176.952,-120.917,o),
(180.538,-120.917,c),
(284.533,-124.503,o),
(240.604,-28.576,o),
(316.808,-28.576,cs),
(363.426,-28.576,o),
(415.424,-120.02,o),
(415.424,-161.26,cs),
(415.424,-176.5,o),
(410.942,-198.017,o),
(396.597,-189.052,cs),
(375.978,-176.5,o),
(355.358,-104.779,o),
(316.808,-93.125,cs),
(265.707,-77.884,o),
(263.914,-142.433,o),
(187.71,-142.433,cs),
(186.813,-142.433,o),
(184.124,-146.915,o),
(178.745,-151.398,cs),
(59.509,-256.29,o),
(-29.246,-215.05,o),
(-29.246,-297.53,cs),
(-29.246,-326.218,o),
(-14.006,-352.217,o),
(15.579,-355.803,cs),
(117.782,-366.561,o),
(138.402,-232.981,o),
(153.642,-259.876,cs),
(176.952,-301.116,o),
(208.33,-358.493,o),
(257.638,-358.493,cs),
(299.774,-358.493,o),
(334.738,-320.839,o),
(334.738,-278.703,cs),
(334.738,-256.29,o),
(306.946,-245.532,o),
(306.946,-223.119,cs),
(306.946,-214.154,o),
(315.911,-213.257,o),
(322.187,-213.257,cs),
(364.323,-213.257,o),
(372.392,-258.98,o),
(372.392,-293.944,cs),
(372.392,-375.526,o),
(324.876,-411.387,o),
(255.845,-411.387,cs),
(204.744,-411.387,o),
(185.917,-390.767,o),
(156.332,-326.218,cs),
(148.263,-309.184,o),
(115.092,-408.697,o),
(36.199,-408.697,cs),
(-24.764,-408.697,o),
(-79.451,-388.078,o),
(-79.451,-306.495,cs),
(-79.451,-182.776,o),
(133.919,-214.154,o),
(133.919,-127.192,cs),
(133.919,-33.955,o),
(-14.006,-45.609,o),
(-14.006,-96.711,cs),
(-14.006,-116.434,o),
(-3.247,-165.742,o),
(-20.281,-171.121,cs),
(-44.487,-179.19,o),
(-54.349,-153.191,o),
(-54.349,-130.778,cs)
);
}
);
width = 416;
}
);
},
{
glyphname = kn_c_ottu;
layers = (
{
layerId = "CC7AEE9D-2AED-49C0-8074-4E98D62561AB";
shapes = (
{
closed = 1;
nodes = (
(-149.568,-42.231,o),
(-103.748,-11.373,o),
(-55.124,-11.373,cs),
(9.398,-11.373,o),
(71.114,-45.971,o),
(71.114,-114.233,cs),
(71.114,-265.718,o),
(-122.45,-204.937,o),
(-122.45,-295.641,cs),
(-122.45,-381.669,o),
(44.931,-391.02,o),
(95.426,-331.174,cs),
(112.258,-311.537,o),
(127.219,-251.691,o),
(132.83,-276.939,cs),
(143.116,-319.953,o),
(165.558,-376.059,o),
(234.755,-376.059,cs),
(287.12,-376.059,o),
(371.278,-334.915,o),
(361.927,-248.886,cs),
(360.057,-228.314,o),
(346.966,-225.509,o),
(207.637,-225.509,cs),
(173.039,-225.509,o),
(188.,-165.663,o),
(234.755,-165.663,cs),
(316.108,-165.663,o),
(452.631,-161.923,o),
(527.439,-161.923,cs),
(546.141,-161.923,o),
(546.141,-225.509,o),
(528.374,-225.509,cs),
(506.867,-225.509,o),
(447.956,-225.509,o),
(431.124,-225.509,cs),
(418.033,-225.509,o),
(410.552,-227.379,o),
(408.682,-250.756,cs),
(403.071,-339.59,o),
(382.499,-409.722,o),
(274.029,-415.333,cs),
(197.351,-419.073,o),
(156.207,-394.761,o),
(131.895,-338.655,cs),
(127.219,-329.304,o),
(88.881,-426.554,o),
(-28.941,-419.073,cs),
(-86.917,-415.333,o),
(-145.827,-368.578,o),
(-145.827,-308.732,cs),
(-145.827,-157.247,o),
(41.191,-225.509,o),
(41.191,-119.843,cs),
(41.191,-23.529,o),
(-109.359,-13.243,o),
(-109.359,-104.882,cs),
(-109.359,-115.168,o),
(-99.073,-121.714,o),
(-99.073,-132.,cs),
(-99.073,-153.507,o),
(-111.229,-164.728,o),
(-126.191,-155.377,cs),
(-149.568,-140.416,o),
(-149.568,-107.687,o),
(-149.568,-91.791,cs)
);
}
);
width = 542;
}
);
},
{
glyphname = kn_ch_ottu;
layers = (
{
layerId = "CC7AEE9D-2AED-49C0-8074-4E98D62561AB";
shapes = (
{
closed = 1;
nodes = (
(207,-160,o),
(211,-138,o),
(218,-148,cs),
(246,-187,o),
(257,-256,o),
(334,-258,cs),
(407,-260,o),
(453,-212,o),
(453,-143,cs),
(453,5,o),
(290,-6,o),
(277,52,cs),
(274,65,o),
(283,74,o),
(296,71,cs),
(369,57,o),
(502,-29,o),
(515,-141,cs),
(524,-219,o),
(470,-299,o),
(380,-299,cs),
(317,-299,o),
(263,-258,o),
(229,-218,cs),
(225,-214,o),
(168,-312,o),
(74,-312,cs),
(-34,-312,o),
(-89,-197,o),
(-78,-106,cs),
(-65,5,o),
(76,104,o),
(139,71,cs),
(168,56,o),
(190,21,o),
(190,-13,cs),
(190,-57,o),
(152,-106,o),
(106,-106,cs),
(20,-106,o),
(37,0,o),
(28,-2,cs),
(-94,-37,o),
(-78,-264,o),
(70,-274,cs),
(128,-278,o),
(185,-237,o),
(199,-187,cs)
);
},
{
closed = 1;
nodes = (
(64,-37,o),
(100,-47,o),
(128,-47,cs),
(148,-47,o),
(165,-37,o),
(153,-11,cs),
(145,7,o),
(93,15,o),
(77,5,cs),
(70,1,o),
(64,-8,o),
(64,-13,cs)
);
},
{
closed = 1;
nodes = (
(252,-289,o),
(254,-362,o),
(252,-405,cs),
(252,-425,o),
(252,-447,o),
(228,-447,cs),
(206,-447,o),
(188,-438,o),
(191,-411,cs),
(193,-383,o),
(227,-242,o),
(235,-257,cs)
);
}
);
width = 516;
}
);
},
{
glyphname = kn_j_ottu;
layers = (
{
layerId = "CC7AEE9D-2AED-49C0-8074-4E98D62561AB";
shapes = (
{
closed = 1;
nodes = (
(-136.222,-448.535,o),
(-189.507,-412.377,o),
(-189.507,-332.448,cs),
(-189.507,-211.604,o),
(19.83,-232.537,o),
(19.83,-155.463,cs),
(19.83,-48.891,o),
(-128.609,-81.244,o),
(-128.609,-125.966,cs),
(-128.609,-136.432,o),
(-122.9,-144.996,o),
(-122.9,-155.463,cs),
(-122.9,-168.785,o),
(-130.512,-180.203,o),
(-144.785,-180.203,cs),
(-166.671,-180.203,o),
(-185.701,-161.172,o),
(-185.701,-139.287,cs),
(-185.701,-87.904,o),
(-112.433,-43.182,o),
(-65.808,-41.279,cs),
(19.83,-37.473,o),
(57.891,-67.922,o),
(57.891,-158.318,cs),
(57.891,-164.978,o),
(56.94,-184.009,o),
(64.552,-186.864,cs),
(114.031,-207.797,o),
(258.664,-214.458,o),
(268.18,-126.917,cs),
(270.083,-105.983,o),
(256.761,-69.825,o),
(254.858,-48.891,cs),
(254.858,-44.134,o),
(253.907,-27.958,o),
(263.422,-37.473,cs),
(280.55,-51.746,o),
(305.29,-92.662,o),
(305.29,-132.626,cs),
(305.29,-191.621,o),
(271.986,-223.973,o),
(230.118,-232.537,cs),
(157.802,-247.762,o),
(114.983,-243.004,o),
(23.636,-228.731,cs),
(-23.941,-221.119,o),
(-141.931,-245.859,o),
(-141.931,-329.594,cs),
(-141.931,-396.201,o),
(-98.16,-416.183,o),
(-46.778,-409.522,cs),
(15.072,-401.91,o),
(41.715,-277.259,o),
(57.891,-298.193,cs),
(69.309,-312.466,o),
(69.309,-325.787,o),
(74.067,-339.109,cs),
(101.662,-417.135,o),
(216.797,-412.377,o),
(229.167,-358.14,cs),
(233.925,-338.157,o),
(218.7,-298.193,o),
(252.004,-298.193,cs),
(274.841,-298.193,o),
(273.889,-348.624,o),
(273.889,-364.8,cs),
(273.889,-415.232,o),
(226.312,-459.954,o),
(182.542,-459.954,cs),
(114.983,-459.954,o),
(67.406,-400.959,o),
(51.23,-352.43,cs),
(46.473,-338.157,o),
(20.781,-448.535,o),
(-61.051,-448.535,cs)
);
}
);
width = 306;
}
);
},
{
glyphname = kn_jh_ottu;
layers = (
{
layerId = "CC7AEE9D-2AED-49C0-8074-4E98D62561AB";
shapes = (
{
closed = 1;
nodes = (
(702.176,63.304,o),
(709.717,71.788,o),
(718.201,71.788,cs),
(852.998,71.788,o),
(895.416,-95.058,o),
(886.933,-187.437,cs),
(881.277,-244.938,o),
(826.604,-309.98,o),
(767.218,-318.463,cs),
(693.692,-328.832,o),
(610.74,-260.963,o),
(557.01,-173.297,c),
(542.87,-247.766,o),
(478.771,-318.463,o),
(396.762,-318.463,cs),
(323.236,-318.463,o),
(284.588,-265.676,o),
(248.768,-210.06,c),
(232.743,-231.741,o),
(204.464,-292.07,o),
(146.02,-314.693,cs),
(46.101,-352.398,o),
(-79.27,-276.987,o),
(-79.27,-159.158,cs),
(-79.27,-65.837,o),
(3.682,20.886,o),
(97.946,20.886,cs),
(295.9,20.886,o),
(211.062,-204.404,o),
(328.892,-255.307,cs),
(414.672,-292.07,o),
(530.616,-240.224,o),
(530.616,-129.936,cs),
(530.616,-23.418,o),
(492.911,-5.508,o),
(437.295,27.484,cs),
(403.36,47.28,o),
(460.861,53.878,o),
(478.771,47.28,cs),
(521.19,32.197,o),
(552.297,-38.5,o),
(559.838,-87.517,cs),
(572.092,-164.814,o),
(623.937,-266.618,o),
(713.488,-266.618,cs),
(873.736,-266.618,o),
(877.506,-57.353,o),
(793.612,3.918,cs),
(761.562,27.484,o),
(702.176,37.853,o),
(702.176,54.821,cs)
);
},
{
closed = 1;
nodes = (
(-56.646,-211.003,o),
(-11.4,-275.102,o),
(75.323,-275.102,cs),
(162.988,-275.102,o),
(216.718,-213.831,o),
(215.776,-125.223,cs),
(214.833,-62.066,o),
(157.332,-16.82,o),
(90.405,-13.992,cs),
(28.191,-12.106,o),
(-43.45,-61.124,o),
(-50.048,-135.592,cs)
);
},
{
closed = 1;
nodes = (
(576.805,-251.536,o),
(584.346,-276.045,o),
(586.232,-280.758,cs),
(590.002,-293.012,o),
(617.339,-362.767,o),
(622.052,-391.989,cs),
(626.765,-423.096,o),
(610.74,-457.974,o),
(573.977,-457.974,cs),
(542.87,-457.974,o),
(541.928,-437.236,o),
(541.928,-412.727,cs),
(541.928,-382.563,o),
(555.125,-233.626,o),
(571.149,-246.823,cs)
);
}
);
width = 888;
}
);
},
{
glyphname = kn_ny_ottu;
layers = (
{
layerId = "CC7AEE9D-2AED-49C0-8074-4E98D62561AB";
shapes = (
{
closed = 1;
nodes = (
(-266.265,-66.515,o),
(-81.372,28.143,o),
(32.748,-108.094,cs),
(37.172,-113.402,o),
(44.249,-83.324,o),
(66.365,-61.208,cs),
(113.252,-15.206,o),
(223.834,-28.475,o),
(282.221,-64.746,c),
(295.491,-28.475,o),
(317.607,25.489,o),
(386.61,25.489,cs),
(456.498,25.489,o),
(504.269,-42.63,o),
(504.269,-108.094,cs),
(504.269,-146.134,o),
(462.69,-176.213,o),
(426.419,-176.213,cs),
(401.649,-176.213,o),
(376.879,-151.442,o),
(376.879,-126.672,cs),
(376.879,-91.286,o),
(454.728,-86.863,o),
(454.728,-55.015,cs),
(454.728,-24.937,o),
(416.688,-14.321,o),
(392.803,-14.321,cs),
(357.416,-14.321,o),
(299.029,-45.284,o),
(299.029,-85.978,cs),
(299.029,-90.401,o),
(328.223,-138.172,o),
(330.877,-147.904,cs),
(349.454,-205.406,o),
(323.8,-242.562,o),
(323.8,-266.447,cs),
(323.8,-292.102,o),
(364.494,-307.141,o),
(364.494,-368.183,cs),
(364.494,-425.685,o),
(336.185,-464.61,o),
(305.222,-486.726,cs),
(295.491,-493.803,o),
(268.066,-484.957,o),
(268.066,-476.995,cs),
(268.066,-470.802,o),
(279.567,-467.264,o),
(283.99,-464.61,cs),
(336.185,-435.416,o),
(340.608,-357.567,o),
(308.76,-312.449,c),
(298.145,-330.142,o),
(230.911,-399.145,o),
(168.985,-399.145,cs),
(127.406,-399.145,o),
(84.943,-373.49,o),
(84.943,-328.373,cs),
(84.943,-275.294,o),
(139.791,-232.83,o),
(191.101,-232.83,cs),
(230.026,-232.83,o),
(270.72,-262.909,o),
(290.183,-262.909,cs),
(304.337,-262.909,o),
(314.953,-223.099,o),
(314.953,-194.79,cs),
(314.953,-119.595,o),
(252.143,-77.131,o),
(181.37,-77.131,cs),
(105.29,-77.131,o),
(53.095,-108.094,o),
(56.634,-184.174,cs),
(57.519,-194.79,o),
(53.095,-202.752,o),
(44.249,-202.752,cs),
(26.556,-202.752,o),
(35.402,-172.674,o),
(27.44,-155.866,cs),
(-40.678,-13.436,o),
(-299.882,-94.824,o),
(-207.878,-269.101,cs),
(-184.877,-312.449,o),
(-128.259,-292.102,o),
(-107.027,-328.373,cs),
(-103.488,-333.681,o),
(-119.412,-334.566,o),
(-123.835,-334.566,cs),
(-205.224,-334.566,o),
(-254.764,-254.947,o),
(-259.188,-182.405,cs)
);
},
{
closed = 1;
nodes = (
(119.444,-354.028,o),
(158.369,-367.298,o),
(187.563,-365.529,cs),
(226.488,-362.875,o),
(268.066,-330.142,o),
(286.644,-297.41,cs),
(298.145,-277.948,o),
(230.026,-262.909,o),
(194.64,-262.909,cs),
(164.562,-262.909,o),
(119.444,-284.14,o),
(119.444,-318.642,cs)
);
}
);
width = 505;
}
);
},
{
glyphname = kn_tt_ottu;
layers = (
{
layerId = "CC7AEE9D-2AED-49C0-8074-4E98D62561AB";
shapes = (
{
closed = 1;
nodes = (
(-136.022,-98.869,o),
(-136.823,-130.9,o),
(-115.202,-138.908,cs),
(-103.991,-142.912,o),
(-74.362,-142.912,o),
(-67.955,-126.095,cs),
(-61.549,-108.478,o),
(-82.369,-76.447,o),
(-115.202,-90.06,cs)
);
},
{
closed = 1;
nodes = (
(-136.022,-66.036,o),
(-109.596,-57.228,o),
(-88.776,-57.228,cs),
(-43.932,-57.228,o),
(-19.908,-111.681,o),
(-39.127,-150.119,cs),
(-49.537,-170.139,o),
(-91.979,-196.565,o),
(-128.815,-175.744,cs),
(-152.038,-162.932,o),
(-146.432,-126.095,o),
(-168.854,-126.095,cs),
(-184.069,-126.095,o),
(-200.085,-175.744,o),
(-193.679,-226.995,cs),
(-180.065,-337.503,o),
(-68.756,-291.858,o),
(-47.936,-210.178,cs),
(-45.533,-200.569,o),
(-19.107,-197.366,o),
(-19.107,-212.58,cs),
(-19.107,-330.296,o),
(115.425,-271.839,o),
(115.425,-190.158,cs),
(115.425,-150.92,o),
(74.585,-106.076,o),
(35.346,-106.076,cs),
(24.936,-106.076,o),
(18.53,-108.478,o),
(0.912,-105.275,cs),
(-11.099,-102.873,o),
(-23.912,-94.865,o),
(-23.912,-80.451,cs),
(-23.912,-69.24,o),
(-17.506,-53.224,o),
(3.315,-57.228,cs),
(49.76,-66.036,o),
(100.21,-33.204,o),
(86.597,7.636,cs),
(79.389,29.257,o),
(59.37,32.46,o),
(48.96,60.488,cs),
(44.155,71.699,o),
(58.569,87.715,o),
(76.186,81.308,cs),
(106.616,70.097,o),
(126.636,36.464,o),
(126.636,-5.977,cs),
(126.636,-45.216,o),
(80.991,-70.841,o),
(66.577,-80.451,cs),
(64.175,-82.052,o),
(63.374,-84.455,o),
(66.577,-86.056,cs),
(86.597,-94.865,o),
(144.253,-126.095,o),
(144.253,-182.951,cs),
(144.253,-263.831,o),
(101.812,-305.472,o),
(28.94,-305.472,cs),
(3.315,-305.472,o),
(-15.103,-301.468,o),
(-42.33,-269.436,c),
(-71.158,-303.069,o),
(-107.194,-316.683,o),
(-150.436,-316.683,cs),
(-198.484,-316.683,o),
(-219.304,-277.444,o),
(-219.304,-234.202,cs),
(-219.304,-176.545,o),
(-209.695,-138.908,o),
(-177.663,-107.677,cs),
(-170.456,-101.271,o),
(-152.038,-84.455,o),
(-144.831,-75.646,cs)
);
}
);
width = 145;
}
);
},
{
glyphname = kn_tth_ottu;
layers = (
{
layerId = "CC7AEE9D-2AED-49C0-8074-4E98D62561AB";
shapes = (
{
closed = 1;
nodes = (
(177,8,o),
(231,-85,o),
(224,-165,cs),
(221,-195,o),
(197,-299,o),
(93,-299,cs),
(0,-299,o),
(-65,-247,o),
(-78,-171,cs),
(-88,-112,o),
(-51,33,o),
(91,17,cs)
);
},
{
closed = 1;
nodes = (
(-50,-210,o),
(9,-248,o),
(65,-248,cs),
(138,-248,o),
(187,-200,o),
(187,-133,cs),
(187,-64,o),
(126,-8,o),
(57,-8,cs),
(-4,-8,o),
(-50,-63,o),
(-50,-129,cs)
);
},
{
closed = 1;
nodes = (
(31,-96,o),
(44,-79,o),
(65,-79,cs),
(88,-79,o),
(107,-95,o),
(107,-119,cs),
(107,-139,o),
(94,-158,o),
(72,-158,cs),
(50,-158,o),
(31,-143,o),
(31,-117,cs)
);
}
);
width = 225;
}
);
},
{
glyphname = kn_dd_ottu;
layers = (
{
layerId = "CC7AEE9D-2AED-49C0-8074-4E98D62561AB";
shapes = (
{
closed = 1;
nodes = (
(-79.984,-115.763,o),
(26.211,44.387,o),
(135.832,44.387,cs),
(220.617,44.387,o),
(262.581,-59.239,o),
(281.423,-81.506,cs),
(294.269,-96.921,o),
(351.648,-137.173,o),
(351.648,-184.276,cs),
(351.648,-239.943,o),
(318.248,-301.604,o),
(256.587,-301.604,cs),
(183.791,-301.604,o),
(143.54,-243.368,o),
(138.401,-250.22,cs),
(110.996,-286.189,o),
(72.458,-308.456,o),
(27.924,-307.599,cs),
(-20.035,-306.743,o),
(-79.984,-291.327,o),
(-79.984,-215.963,cs)
);
},
{
closed = 1;
nodes = (
(-45.727,-236.517,o),
(56.186,-302.461,o),
(102.432,-262.209,cs),
(123.842,-243.368,o),
(129.837,-190.271,o),
(143.54,-204.83,cs),
(158.955,-221.958,o),
(162.381,-249.363,o),
(186.361,-259.64,cs),
(243.74,-283.62,o),
(342.228,-199.691,o),
(301.12,-138.886,cs),
(299.407,-136.316,o),
(293.412,-126.896,o),
(292.556,-127.752,cs),
(256.587,-160.296,o),
(177.796,-162.865,o),
(177.796,-98.634,cs),
(177.796,-64.378,o),
(216.335,-62.665,o),
(225.756,-66.091,cs),
(243.74,-72.085,o),
(180.366,8.417,o),
(129.837,8.417,cs),
(58.755,8.417,o),
(-8.045,-93.496,o),
(-23.461,-151.732,cs)
);
}
);
width = 352;
}
);
},
{
glyphname = kn_ddh_ottu;
layers = (
{
layerId = "CC7AEE9D-2AED-49C0-8074-4E98D62561AB";
shapes = (
{
closed = 1;
nodes = (
(53.741,-308.675,o),
(-61.907,-331.372,o),
(-75.957,-269.766,cs),
(-99.735,-168.169,o),
(8.346,20.974,o),
(133.721,20.974,cs),
(174.792,20.974,o),
(226.671,-25.501,o),
(242.884,-64.41,cs),
(254.773,-93.592,o),
(252.611,-110.885,o),
(277.47,-123.855,cs),
(301.248,-135.744,o),
(336.915,-155.199,o),
(336.915,-210.321,cs),
(336.915,-275.17,o),
(278.551,-323.806,o),
(221.267,-316.241,cs),
(186.681,-311.917,o),
(168.307,-281.655,o),
(152.095,-281.655,cs),
(140.206,-281.655,o),
(141.287,-301.109,o),
(140.206,-309.756,cs),
(136.964,-344.342,o),
(133.721,-350.827,o),
(133.721,-386.494,cs),
(133.721,-408.11,o),
(161.822,-415.676,o),
(161.822,-437.292,cs),
(161.822,-453.504,o),
(148.853,-474.04,o),
(130.479,-474.04,cs),
(112.105,-474.04,o),
(95.893,-455.666,o),
(95.893,-437.292,cs),
(95.893,-384.332,o),
(118.59,-368.12,o),
(118.59,-312.998,cs),
(118.59,-300.028,o),
(119.67,-276.25,o),
(89.408,-291.382,cs)
);
},
{
closed = 1;
nodes = (
(147.772,-243.826,o),
(159.661,-274.089,o),
(186.681,-281.655,cs),
(238.56,-295.705,o),
(310.975,-245.988,o),
(303.409,-193.028,cs),
(299.086,-163.845,o),
(278.551,-134.663,o),
(265.581,-135.744,cs),
(236.399,-137.906,o),
(229.914,-175.734,o),
(216.944,-175.734,cs),
(186.681,-175.734,o),
(162.903,-141.148,o),
(166.146,-118.451,cs),
(167.226,-110.885,o),
(171.55,-104.401,o),
(178.035,-103.32,cs),
(194.247,-100.077,o),
(224.51,-107.643,o),
(221.267,-75.219,cs),
(218.025,-40.632,o),
(172.631,-15.774,o),
(143.448,-10.369,cs),
(63.468,4.762,o),
(-50.018,-121.694,o),
(-50.018,-197.351,cs),
(-50.018,-258.957,o),
(23.478,-285.978,o),
(73.195,-274.089,cs),
(101.297,-267.604,o),
(125.075,-226.533,o),
(139.125,-237.341,cs)
);
}
);
width = 337;
}
);
},
{
glyphname = kn_nn_ottu;
layers = (
{
layerId = "CC7AEE9D-2AED-49C0-8074-4E98D62561AB";
shapes = (
{
closed = 1;
nodes = (
(456.532,-22.461,o),
(481.232,-123.507,o),
(481.232,-197.607,cs),
(481.232,-289.67,o),
(410.875,-354.04,o),
(334.529,-354.04,cs),
(282.135,-354.04,o),
(227.496,-314.37,o),
(227.496,-259.731,cs),
(227.496,-219.313,o),
(243.214,-154.943,o),
(293.363,-154.943,cs),
(325.547,-154.943,o),
(358.481,-170.661,o),
(378.69,-201.349,cs),
(383.929,-208.834,o),
(386.175,-236.528,o),
(374.199,-226.797,cs),
(346.505,-204.343,o),
(256.687,-144.464,o),
(254.442,-253.743,cs),
(253.693,-300.149,o),
(308.332,-326.346,o),
(347.254,-325.597,cs),
(495.453,-322.603,o),
(510.423,-40.425,o),
(305.338,-40.425,cs),
(151.151,-40.425,o),
(184.833,-184.134,o),
(145.911,-196.858,cs),
(132.439,-201.349,o),
(127.948,-180.391,o),
(130.942,-165.422,cs),
(134.684,-143.716,o),
(154.893,-122.758,o),
(142.917,-104.046,cs),
(115.224,-60.634,o),
(83.039,-34.437,o),
(17.172,-34.437,cs),
(-25.491,-34.437,o),
(-81.628,-60.634,o),
(-81.628,-110.034,cs),
(-81.628,-190.87,o),
(-35.97,-225.3,o),
(17.172,-253.743,cs),
(28.4,-259.731,o),
(4.448,-288.173,o),
(-4.534,-285.179,cs),
(-23.994,-279.94,o),
(-47.197,-244.013,o),
(-54.682,-229.791,cs),
(-56.179,-227.546,o),
(-55.431,-226.797,o),
(-60.67,-226.797,cs),
(-107.076,-226.049,o),
(-147.494,-234.282,o),
(-139.261,-298.652,cs),
(-134.77,-337.573,o),
(-59.922,-349.549,o),
(-63.664,-362.273,cs),
(-65.909,-370.506,o),
(-82.376,-369.009,o),
(-90.609,-368.261,cs),
(-133.273,-364.518,o),
(-178.182,-316.615,o),
(-178.182,-274.7,cs),
(-178.182,-240.27,o),
(-160.967,-208.085,o),
(-130.279,-205.84,cs),
(-110.07,-204.343,o),
(-72.646,-215.57,o),
(-74.143,-210.331,cs),
(-83.125,-178.894,o),
(-107.825,-148.955,o),
(-107.825,-118.267,cs),
(-107.825,-54.646,o),
(-74.143,-1.504,o),
(8.19,-1.504,cs),
(79.296,-1.504,o),
(118.218,-34.437,o),
(160.881,-86.083,c),
(191.569,-22.461,o),
(261.178,11.22,o),
(332.284,-1.504,cs)
);
}
);
width = 482;
}
);
},
{
glyphname = kn_t_ottu;
layers = (
{
layerId = "CC7AEE9D-2AED-49C0-8074-4E98D62561AB";
shapes = (
{
closed = 1;
nodes = (
(-28.308,-17.432,o),
(16.642,39.917,o),
(72.441,46.117,cs),
(156.139,56.192,o),
(197.988,-15.107,o),
(197.988,-79.431,cs),
(197.988,-175.53,o),
(142.189,-198.779,o),
(49.191,-198.779,cs),
(-110.456,-198.779,o),
(-269.329,-198.779,o),
(-428.976,-194.904,cs),
(-508.8,-193.354,o),
(-457.65,-142.205,o),
(-403.401,-142.205,cs),
(-269.329,-142.205,o),
(-131.381,-158.48,o),
(1.917,-158.48,c),
(-15.908,-142.205,o),
(-28.308,-98.806,o),
(-28.308,-70.131,cs)
);
},
{
closed = 1;
nodes = (
(21.291,-101.906,o),
(42.991,-147.63,o),
(80.19,-147.63,cs),
(135.99,-147.63,o),
(157.689,-125.155,o),
(157.689,-70.131,cs),
(157.689,-36.032,o),
(142.964,-8.132,o),
(104.99,-5.032,cs),
(58.491,-1.932,o),
(21.291,-32.157,o),
(21.291,-73.231,cs)
);
}
);
width = 198;
}
);
},
{
glyphname = kn_th_ottu;
layers = (
{
layerId = "CC7AEE9D-2AED-49C0-8074-4E98D62561AB";
shapes = (
{
closed = 1;
nodes = (
(143.31,-265.186,o),
(143.31,-292.163,o),
(143.31,-305.216,cs),
(143.31,-345.247,o),
(166.806,-390.498,o),
(166.806,-431.398,cs),
(166.806,-454.894,o),
(158.103,-473.169,o),
(129.386,-473.169,cs),
(104.15,-473.169,o),
(78.043,-466.207,o),
(82.394,-435.75,cs),
(91.096,-380.926,o),
(112.852,-339.155,o),
(112.852,-286.942,cs),
(112.852,-281.721,o),
(110.241,-274.759,o),
(105.89,-279.11,cs),
(82.394,-306.957,o),
(63.249,-337.415,o),
(10.166,-337.415,cs),
(-67.284,-337.415,o),
(-88.169,-218.194,o),
(-75.986,-163.37,cs),
(-60.322,-94.623,o),
(58.028,19.376,o),
(134.607,19.376,cs),
(225.981,19.376,o),
(289.507,-45.02,o),
(328.667,-116.379,cs),
(365.216,-181.645,o),
(345.201,-328.712,o),
(247.736,-328.712,cs),
(204.225,-328.712,o),
(164.195,-282.591,o),
(150.271,-271.278,cs)
);
},
{
closed = 1;
nodes = (
(297.339,-55.463,o),
(199.874,-4.12,o),
(134.607,-4.12,cs),
(91.096,-4.12,o),
(31.051,-35.448,o),
(-20.292,-111.157,cs),
(-55.971,-163.37,o),
(-33.345,-294.774,o),
(45.845,-294.774,cs),
(88.486,-294.774,o),
(121.554,-216.454,o),
(134.607,-230.377,cs),
(212.057,-316.529,o),
(322.575,-320.88,o),
(308.652,-172.943,cs)
);
},
{
closed = 1;
nodes = (
(91.096,-135.523,o),
(103.279,-116.379,o),
(129.386,-116.379,cs),
(152.012,-116.379,o),
(160.714,-133.783,o),
(160.714,-152.928,cs),
(160.714,-170.332,o),
(146.791,-189.477,o),
(125.035,-189.477,cs),
(103.279,-189.477,o),
(91.096,-171.202,o),
(91.096,-159.019,cs)
);
}
);
width = 346;
}
);
},
{
glyphname = kn_d_ottu;
layers = (
{
layerId = "CC7AEE9D-2AED-49C0-8074-4E98D62561AB";
shapes = (
{
closed = 1;
nodes = (
(235.622,18.965,o),
(350.874,-108.377,o),
(350.874,-199.451,cs),
(350.874,-265.54,o),
(301.71,-327.599,o),
(231.592,-327.599,cs),
(175.175,-327.599,o),
(147.772,-294.554,o),
(133.265,-269.569,cs),
(130.847,-266.346,o),
(131.653,-263.928,o),
(126.817,-269.569,cs),
(105.862,-293.748,o),
(85.713,-319.539,o),
(28.49,-318.733,cs),
(-11.002,-317.927,o),
(-85.151,-267.957,o),
(-79.509,-184.137,cs),
(-73.867,-104.347,o),
(65.564,18.965,o),
(150.996,18.965,cs)
);
},
{
closed = 1;
nodes = (
(48.639,-19.721,o),
(-63.39,-133.362,o),
(-28.734,-238.137,cs),
(-16.644,-274.405,o),
(15.594,-296.972,o),
(51.863,-288.912,cs),
(118.757,-274.405,o),
(126.817,-193.809,o),
(138.906,-210.734,cs),
(160.667,-239.749,o),
(185.652,-300.196,o),
(235.622,-292.942,cs),
(283.173,-285.689,o),
(311.382,-237.331,o),
(310.576,-186.555,cs),
(309.77,-116.437,o),
(203.383,5.263,o),
(126.817,-7.632,cs)
);
}
);
width = 351;
}
);
},
{
glyphname = kn_dh_ottu;
layers = (
{
layerId = "CC7AEE9D-2AED-49C0-8074-4E98D62561AB";
shapes = (
{
closed = 1;
nodes = (
(212.734,0.435,o),
(312.104,-134.841,o),
(312.104,-225.86,cs),
(312.104,-285.147,o),
(262.837,-346.105,o),
(201.044,-346.105,cs),
(153.447,-346.105,o),
(145.096,-331.074,o),
(129.231,-316.044,cs),
(93.324,-282.642,o),
(167.642,-429.609,o),
(110.86,-429.609,cs),
(44.892,-429.609,o),
(145.096,-258.426,o),
(89.984,-325.229,cs),
(70.778,-347.775,o),
(41.552,-358.631,o),
(8.985,-358.631,cs),
(-188.083,-358.631,o),
(-13.561,0.435,o),
(123.386,0.435,cs)
);
},
{
closed = 1;
nodes = (
(-40.282,-296.838,o),
(-6.88,-322.724,o),
(41.552,-316.044,cs),
(93.324,-309.363,o),
(101.675,-215.839,o),
(115.87,-240.89,cs),
(130.066,-266.777,o),
(144.261,-301.013,o),
(176.828,-308.528,cs),
(247.806,-324.394,o),
(283.713,-275.127,o),
(277.867,-200.809,cs),
(273.692,-140.686,o),
(186.848,-38.812,o),
(123.386,-38.812,cs),
(42.387,-38.812,o),
(-40.282,-145.696,o),
(-40.282,-223.355,cs)
);
}
);
width = 313;
}
);
},
{
glyphname = kn_n_ottu;
layers = (
{
layerId = "CC7AEE9D-2AED-49C0-8074-4E98D62561AB";
shapes = (
{
closed = 1;
nodes = (
(69.271,178.377,o),
(81.026,181.171,o),
(94.766,178.481,cs),
(219.4,154.084,o),
(316.356,40.341,o),
(290.806,-90.182,cs),
(282.161,-134.344,o),
(245.441,-170.972,o),
(195.687,-185.689,c),
(205.434,-219.185,o),
(176.535,-345.995,o),
(100.518,-364.741,cs),
(91.899,-367.13,o),
(67.728,-355.266,o),
(83.772,-346.179,cs),
(128.962,-318.341,o),
(152.093,-267.844,o),
(163.619,-208.962,cs),
(164.58,-204.055,o),
(161.018,-196.225,o),
(153.956,-195.861,cs),
(138.851,-194.943,o),
(112.972,-197.01,o),
(93.344,-193.168,cs),
(55.071,-185.676,o),
(2.762,-150.981,o),
(11.406,-106.819,cs),
(15.248,-87.191,o),
(32.362,-51.82,o),
(73.964,-57.926,cs),
(175.025,-72.613,o),
(184.128,-140.629,o),
(196.886,-143.126,cs),
(227.309,-149.081,o),
(252.19,-94.851,o),
(257.184,-69.335,cs),
(280.621,50.393,o),
(142.485,115.135,o),
(95.358,129.454,cs),
(85.737,132.357,o),
(61.971,141.085,o),
(66.389,163.656,cs)
);
},
{
closed = 1;
nodes = (
(42.042,-116.892,o),
(55.439,-131.742,o),
(72.932,-141.28,cs),
(99.663,-155.683,o),
(165.01,-165.418,o),
(163.945,-144.83,cs),
(163.285,-127.378,o),
(131.606,-101.816,o),
(98.026,-91.167,cs),
(84.671,-86.515,o),
(48.573,-83.525,o),
(44.731,-103.152,cs)
);
}
);
width = 295;
}
);
},
{
glyphname = kn_p_ottu;
layers = (
{
layerId = "CC7AEE9D-2AED-49C0-8074-4E98D62561AB";
shapes = (
{
closed = 1;
nodes = (
(163.786,-165.975,o),
(201.428,-107.801,o),
(201.428,-52.193,cs),
(201.428,137.729,o),
(87.646,211.302,o),
(87.646,247.233,cs),
(87.646,255.788,o),
(86.791,290.008,o),
(104.756,268.621,cs),
(173.197,184.781,o),
(228.804,57.311,o),
(228.804,-47.06,cs),
(228.804,-124.911,o),
(202.284,-178.808,o),
(158.653,-197.629,cs),
(119.3,-214.739,o),
(60.27,-208.75,o),
(19.206,-171.108,cs),
(14.073,-166.831,o),
(11.506,-164.264,o),
(8.94,-170.253,cs),
(-9.026,-208.75,o),
(-58.645,-232.704,o),
(-103.131,-214.739,cs),
(-142.484,-198.484,o),
(-149.328,-149.72,o),
(-149.328,-106.945,cs),
(-149.328,-66.737,o),
(-117.675,-30.806,o),
(-80.888,-30.806,cs),
(-37.257,-30.806,o),
(-13.303,-67.592,o),
(-1.326,-106.945,cs),
(12.362,-153.998,o),
(50.004,-165.975,o),
(104.756,-165.975,cs)
);
},
{
closed = 1;
nodes = (
(-32.124,-94.968,o),
(-45.812,-73.581,o),
(-73.188,-73.581,cs),
(-114.253,-73.581,o),
(-119.386,-104.379,o),
(-117.675,-126.622,cs),
(-115.108,-165.975,o),
(-91.154,-186.507,o),
(-56.078,-181.374,cs),
(-29.558,-177.952,o),
(-13.303,-153.998,o),
(-23.569,-121.489,cs)
);
}
);
width = 229;
}
);
},
{
glyphname = kn_ph_ottu;
layers = (
{
layerId = "CC7AEE9D-2AED-49C0-8074-4E98D62561AB";
shapes = (
{
closed = 1;
nodes = (
(72.592,-75.032,o),
(33.663,-77.322,o),
(19.924,-83.047,cs),
(2.749,-89.917,o),
(-9.845,-110.526,o),
(-6.411,-128.845,cs),
(-1.831,-151.745,o),
(15.344,-171.209,o),
(35.953,-176.934,cs),
(73.737,-187.239,o),
(122.97,-159.759,o),
(94.346,-111.671,cs)
);
},
{
closed = 1;
nodes = (
(119.535,-191.818,o),
(69.157,-221.587,o),
(26.793,-214.718,cs),
(-28.165,-205.558,o),
(-33.89,-149.455,o),
(-33.89,-111.671,cs),
(-33.89,-76.177,o),
(2.749,-46.408,o),
(35.953,-46.408,cs),
(66.867,-46.408,o),
(87.476,-65.873,o),
(104.651,-87.627,cs),
(124.115,-112.816,o),
(125.26,-133.425,o),
(152.739,-159.759,cs),
(201.973,-206.703,o),
(294.714,-146.02,o),
(294.714,-69.307,cs),
(294.714,104.727,o),
(190.523,243.267,o),
(42.823,324.56,cs),
(34.808,329.139,o),
(24.503,378.373,o),
(73.737,345.169,cs),
(201.973,260.442,o),
(318.759,88.697,o),
(318.759,-71.597,cs),
(318.759,-138.005,o),
(275.25,-212.428,o),
(212.277,-205.558,cs),
(184.798,-202.123,o),
(160.754,-188.384,o),
(144.724,-172.354,cs),
(142.434,-170.064,o),
(139.,-168.919,o),
(135.565,-172.354,cs)
);
},
{
closed = 1;
nodes = (
(98.926,-262.806,o),
(110.376,-210.138,o),
(129.84,-210.138,cs),
(152.739,-210.138,o),
(140.145,-276.546,o),
(141.29,-292.575,cs),
(142.434,-309.749,o),
(143.579,-333.794,o),
(124.115,-333.794,cs),
(93.201,-333.794,o),
(98.926,-305.17,o),
(98.926,-283.415,cs)
);
}
);
width = 319;
}
);
},
{
glyphname = kn_b_ottu;
layers = (
{
layerId = "CC7AEE9D-2AED-49C0-8074-4E98D62561AB";
shapes = (
{
closed = 1;
nodes = (
(264.248,106.58,o),
(311.306,-4.202,o),
(311.306,-176.749,cs),
(307.385,-258.12,o),
(282.875,-345.374,o),
(180.916,-337.531,cs),
(132.878,-333.61,o),
(101.505,-281.65,o),
(88.76,-258.12,cs),
(83.859,-248.317,o),
(34.84,-345.374,o),
(-24.963,-345.374,cs),
(-105.355,-345.374,o),
(-160.256,-239.493,o),
(-81.825,-174.788,c),
(-103.394,-174.788,o),
(-149.472,-175.769,o),
(-149.472,-113.024,cs),
(-149.472,-24.79,o),
(-60.257,-10.085,o),
(-17.12,-22.83,cs),
(31.898,-37.535,o),
(57.388,-76.75,o),
(56.408,-123.809,cs),
(54.447,-200.278,o),
(-71.041,-163.024,o),
(-81.825,-236.552,cs),
(-81.825,-315.963,o),
(-10.258,-317.924,o),
(33.859,-273.807,cs),
(45.624,-263.022,o),
(60.329,-243.415,o),
(54.447,-225.768,cs),
(51.506,-217.925,o),
(88.76,-152.24,o),
(93.662,-175.769,cs),
(98.564,-200.278,o),
(98.564,-210.082,o),
(98.564,-226.748,cs),
(98.564,-255.179,o),
(154.446,-276.748,o),
(177.975,-276.748,cs),
(255.425,-276.748,o),
(288.758,-242.434,o),
(288.758,-167.926,cs),
(288.758,-10.085,o),
(257.386,59.522,o),
(125.034,191.873,cs),
(109.348,207.559,o),
(126.015,268.343,o),
(152.485,241.873,cs)
);
},
{
closed = 1;
nodes = (
(-101.433,-121.848,o),
(-94.57,-144.397,o),
(-74.963,-151.259,cs),
(-35.748,-164.984,o),
(25.036,-156.161,o),
(27.977,-113.024,cs),
(29.938,-82.633,o),
(-9.277,-64.986,o),
(-26.924,-64.005,cs),
(-60.257,-62.045,o),
(-101.433,-70.868,o),
(-101.433,-108.122,cs)
);
}
);
width = 312;
}
);
},
{
glyphname = kn_bh_ottu;
layers = (
{
layerId = "CC7AEE9D-2AED-49C0-8074-4E98D62561AB";
shapes = (
{
closed = 1;
nodes = (
(122.077,245.379,o),
(137.83,228.314,o),
(150.956,217.812,cs),
(294.039,97.045,o),
(342.609,-72.291,o),
(309.791,-232.439,cs),
(297.977,-291.51,o),
(263.847,-345.33,o),
(196.9,-345.33,cs),
(156.207,-345.33,o),
(127.328,-305.949,o),
(99.762,-281.008,cs),
(98.449,-279.696,o),
(94.511,-290.197,o),
(94.511,-291.51,cs),
(82.697,-332.203,o),
(72.195,-476.599,o),
(68.257,-485.787,cs),
(60.381,-501.54,o),
(30.189,-477.911,o),
(30.189,-466.097,cs),
(30.189,-407.026,o),
(76.133,-359.77,o),
(76.133,-300.699,cs),
(76.133,-294.135,o),
(74.821,-275.758,o),
(70.883,-281.008,cs),
(51.192,-304.637,o),
(-1.315,-350.581,o),
(-59.073,-345.33,cs),
(-140.46,-337.454,o),
(-157.525,-219.312,o),
(-86.64,-170.743,cs),
(-82.702,-168.117,o),
(-103.705,-165.492,o),
(-112.893,-162.867,cs),
(-140.46,-156.303,o),
(-149.649,-123.486,o),
(-149.649,-101.17,cs),
(-149.649,-43.412,o),
(-84.014,-13.22,o),
(-34.132,-13.22,cs),
(43.316,-13.22,o),
(89.26,-90.669,o),
(35.44,-149.74,cs),
(-1.315,-189.12,o),
(-93.203,-169.43,o),
(-93.203,-239.002,cs),
(-93.203,-271.82,o),
(-57.761,-300.699,o),
(-26.256,-300.699,cs),
(-2.628,-300.699,o),
(40.691,-283.634,o),
(55.13,-248.191,cs),
(60.381,-236.377,o),
(57.756,-236.377,o),
(53.818,-228.501,cs),
(47.254,-215.374,o),
(87.948,-179.932,o),
(91.886,-191.746,cs),
(99.762,-212.749,o),
(102.387,-237.69,o),
(108.951,-248.191,cs),
(127.328,-278.383,o),
(161.458,-286.259,o),
(194.275,-286.259,cs),
(328.169,-286.259,o),
(300.603,-72.291,o),
(265.16,20.909,cs),
(241.532,85.231,o),
(199.526,148.24,o),
(161.458,175.806,cs),
(147.018,186.308,o),
(122.077,192.871,o),
(122.077,215.187,cs)
);
},
{
closed = 1;
nodes = (
(-119.457,-115.61,o),
(-108.955,-160.241,o),
(-66.949,-160.241,cs),
(-34.132,-160.241,o),
(32.815,-137.926,o),
(32.815,-98.545,cs),
(32.815,-72.291,o),
(-0.002,-49.976,o),
(-23.631,-49.976,cs),
(-48.572,-49.976,o),
(-84.014,-59.164,o),
(-103.705,-90.669,cs)
);
}
);
width = 320;
}
);
},
{
glyphname = kn_m_ottu;
layers = (
{
layerId = "CC7AEE9D-2AED-49C0-8074-4E98D62561AB";
shapes = (
{
closed = 1;
nodes = (
(-390,-123,o),
(-423,-123,o),
(-422,-115,cs),
(-419,-101,o),
(-398,-75,o),
(-383,-76,cs),
(-265,-85,o),
(-89,-86,o),
(57,-76,cs),
(79,-75,o),
(118,-39,o),
(142,-12,cs),
(171,21,o),
(168,69,o),
(139,92,cs),
(130,99,o),
(106,102,o),
(95,105,cs),
(89,106,o),
(79,170,o),
(105,167,cs),
(141,162,o),
(192,114,o),
(194,77,cs),
(201,-27,o),
(92,-78,o),
(107,-80,cs),
(149,-86,o),
(197,-117,o),
(207,-167,cs),
(218,-218,o),
(197,-291,o),
(136,-302,cs),
(60,-316,o),
(14,-285,o),
(1,-214,cs),
(-3,-189,o),
(4,-161,o),
(19,-140,cs),
(24,-134,o),
(30,-121,o),
(18,-122,cs),
(-114,-131,o),
(-299,-127,o),
(-385,-123,cs)
);
},
{
closed = 1;
nodes = (
(46,-256,o),
(76,-270,o),
(120,-267,cs),
(163,-264,o),
(179,-220,o),
(177,-189,cs),
(173,-134,o),
(127,-117,o),
(91,-119,cs),
(38,-123,o),
(12,-179,o),
(32,-223,cs)
);
}
);
width = 210;
}
);
},
{
glyphname = kn_y_ottu;
layers = (
{
layerId = "CC7AEE9D-2AED-49C0-8074-4E98D62561AB";
shapes = (
{
closed = 1;
nodes = (
(12,150,o),
(43,228,o),
(117,228,cs),
(234,228,o),
(281,65,o),
(185,-1,cs),
(160,-16,o),
(144,3,o),
(164,18,cs),
(195,40,o),
(227,171,o),
(119,177,cs),
(73,179,o),
(41,138,o),
(41,95,cs),
(41,28,o),
(77,-26,o),
(117,-72,cs),
(208,-176,o),
(196,-372,o),
(28,-372,cs),
(-39,-372,o),
(-110,-348,o),
(-110,-278,cs),
(-110,-199,o),
(-44,-166,o),
(-44,-119,cs),
(-44,-72,o),
(-130,-84,o),
(-126,-124,cs),
(-120,-176,o),
(-167,-167,o),
(-164,-128,cs),
(-161,-89,o),
(-146,-39,o),
(-74,-44,cs),
(-21,-48,o),
(-11,-98,o),
(-11,-119,cs),
(-11,-166,o),
(-74,-210,o),
(-77,-247,cs),
(-86,-358,o),
(129,-323,o),
(135,-231,cs),
(144,-81,o),
(12,-26,o),
(12,87,cs)
);
}
);
width = 237;
}
);
},
{
glyphname = kn_r_ottu;
layers = (
{
layerId = "CC7AEE9D-2AED-49C0-8074-4E98D62561AB";
shapes = (
{
closed = 1;
nodes = (
(-147,-216,o),
(-296,-240,o),
(-406,-224,cs),
(-444,-219,o),
(-429,-168,o),
(-410,-175,cs),
(-353,-196,o),
(-161,-181,o),
(-71,-86,cs),
(32,23,o),
(47,165,o),
(47,348,cs),
(47,359,o),
(84,351,o),
(83,335,cs),
(76,179,o),
(72,9,o),
(-44,-111,cs)
);
}
);
width = 84;
}
);
},
{
glyphname = kn_l_ottu;
layers = (
{
layerId = "CC7AEE9D-2AED-49C0-8074-4E98D62561AB";
shapes = (
{
closed = 1;
nodes = (
(30.451,-68.298,o),
(72.723,-34.002,o),
(130.15,-38.788,cs),
(210.706,-45.168,o),
(289.668,-125.725,o),
(280.895,-219.841,cs),
(274.514,-290.029,o),
(201.933,-346.658,o),
(147.697,-346.658,cs),
(134.935,-346.658,o),
(94.258,-341.075,o),
(114.198,-321.135,cs),
(130.947,-303.588,o),
(189.172,-298.802,o),
(203.528,-287.636,cs),
(257.764,-244.566,o),
(239.42,-195.115,o),
(213.897,-160.819,cs),
(173.22,-105.785,o),
(104.627,-96.214,o),
(47.2,-133.701,cs),
(-4.643,-167.2,o),
(-4.643,-236.59,o),
(-11.024,-286.838,cs),
(-15.012,-317.147,o),
(-57.284,-298.005,o),
(-50.903,-282.053,cs),
(-20.595,-206.282,o),
(-51.701,-105.785,o),
(-157.781,-101.797,cs),
(-209.624,-99.405,o),
(-278.217,-113.761,o),
(-278.217,-201.496,cs),
(-278.217,-317.147,o),
(-153.793,-284.446,o),
(-153.793,-325.92,cs),
(-153.793,-340.277,o),
(-180.113,-344.265,o),
(-195.267,-343.467,cs),
(-286.99,-340.277,o),
(-318.894,-266.899,o),
(-318.894,-183.949,cs),
(-318.894,-112.166,o),
(-243.92,-45.168,o),
(-168.947,-45.168,cs),
(-105.937,-45.168,o),
(-70.843,-73.882,o),
(-40.535,-123.332,cs),
(-29.368,-141.677,o),
(-28.571,-141.677,o),
(-13.417,-122.535,cs)
);
}
);
width = 282;
}
);
},
{
glyphname = kn_ll_ottu;
layers = (
{
layerId = "CC7AEE9D-2AED-49C0-8074-4E98D62561AB";
shapes = (
{
closed = 1;
nodes = (
(119,-378,o),
(144,-395,o),
(141,-450,cs),
(138,-508,o),
(99,-541,o),
(70,-541,cs),
(19,-541,o),
(1,-491,o),
(4,-446,cs),
(8,-387,o),
(64,-363,o),
(48,-355,cs),
(33,-348,o),
(3,-331,o),
(-12,-321,cs),
(-94,-267,o),
(-121,-16,o),
(18,-17,cs),
(68,-17,o),
(94,-55,o),
(94,-102,cs),
(94,-176,o),
(2,-182,o),
(-20,-131,cs),
(-30,-108,o),
(-34,-147,o),
(-34,-158,cs),
(-34,-255,o),
(21,-334,o),
(81,-334,cs),
(133,-334,o),
(199,-239,o),
(202,-187,cs),
(206,-112,o),
(181,-91,o),
(118,-63,cs),
(98,-54,o),
(112,-17,o),
(127,-21,cs),
(299,-65,o),
(252,-262,o),
(108,-350,cs),
(100,-355,o),
(100,-359,o),
(104,-363,cs)
);
},
{
closed = 1;
nodes = (
(6,-113,o),
(22,-120,o),
(34,-120,cs),
(49,-120,o),
(62,-112,o),
(62,-96,cs),
(62,-71,o),
(48,-57,o),
(26,-63,cs),
(12,-67,o),
(6,-81,o),
(6,-96,cs)
);
},
{
closed = 1;
nodes = (
(30,-492,o),
(47,-512,o),
(71,-509,cs),
(92,-507,o),
(102,-483,o),
(104,-456,cs),
(107,-424,o),
(97,-388,o),
(76,-388,cs),
(44,-388,o),
(28,-419,o),
(29,-455,cs)
);
}
);
width = 238;
}
);
},
{
glyphname = kn_v_ottu;
layers = (
{
layerId = "CC7AEE9D-2AED-49C0-8074-4E98D62561AB";
shapes = (
{
closed = 1;
nodes = (
(49,262,o),
(86,326,o),
(140,326,cs),
(213,326,o),
(259,211,o),
(230,156,cs),
(222,141,o),
(199,130,o),
(207,164,cs),
(216,204,o),
(196,268,o),
(145,282,cs),
(115,290,o),
(73,259,o),
(75,218,cs),
(83,57,o),
(277,16,o),
(291,-147,cs),
(296,-207,o),
(277,-254,o),
(207,-254,cs),
(152,-254,o),
(122,-220,o),
(83,-188,cs),
(78,-183,o),
(76,-188,o),
(76,-193,cs),
(70,-223,o),
(51,-250,o),
(16,-254,cs),
(-43,-260,o),
(-80,-219,o),
(-79,-160,cs),
(-78,-109,o),
(-43,-89,o),
(-8,-90,cs),
(52,-92,o),
(57,-148,o),
(126,-190,cs),
(173,-219,o),
(277,-190,o),
(274,-142,cs),
(264,3,o),
(49,37,o),
(49,213,cs)
);
},
{
closed = 1;
nodes = (
(-44,-198,o),
(-21,-206,o),
(4,-206,cs),
(27,-206,o),
(43,-195,o),
(46,-175,cs),
(53,-135,o),
(22,-108,o),
(-19,-124,cs),
(-41,-133,o),
(-44,-153,o),
(-44,-168,cs)
);
}
);
width = 292;
}
);
},
{
glyphname = kn_sh_ottu;
layers = (
{
layerId = "CC7AEE9D-2AED-49C0-8074-4E98D62561AB";
shapes = (
{
closed = 1;
nodes = (
(65,263,o),
(90,285,o),
(98,275,cs),
(192,165,o),
(136,9,o),
(103,-36,cs),
(98,-43,o),
(144,-63,o),
(174,-100,cs),
(192,-122,o),
(205,-158,o),
(196,-186,cs),
(177,-244,o),
(101,-296,o),
(39,-296,cs),
(2,-296,o),
(-29,-260,o),
(-25,-232,cs),
(-17,-171,o),
(76,-113,o),
(76,-68,cs),
(76,-25,o),
(-39,-46,o),
(-39,-63,cs),
(-39,-89,o),
(-17,-89,o),
(-17,-115,cs),
(-17,-140,o),
(-62,-150,o),
(-76,-109,cs),
(-102,-21,o),
(22,-13,o),
(79,-26,cs),
(85,-27,o),
(89,-16,o),
(91,-11,cs),
(157,188,o),
(87,219,o),
(71,251,cs)
);
},
{
closed = 1;
nodes = (
(27,-247,o),
(32,-264,o),
(61,-264,cs),
(91,-264,o),
(155,-219,o),
(164,-156,cs),
(169,-119,o),
(121,-79,o),
(91,-94,cs),
(68,-105,o),
(27,-195,o),
(27,-220,cs)
);
}
);
width = 199;
}
);
},
{
glyphname = kn_ss_ottu;
layers = (
{
layerId = "CC7AEE9D-2AED-49C0-8074-4E98D62561AB";
shapes = (
{
closed = 1;
nodes = (
(-1,69,o),
(53,96,o),
(58,80,cs),
(66,51,o),
(108,-38,o),
(119,-89,cs),
(133,-153,o),
(208,-273,o),
(224,-331,cs),
(229,-349,o),
(204,-336,o),
(199,-325,cs),
(176,-277,o),
(142,-203,o),
(124,-162,cs),
(122,-158,o),
(119,-152,o),
(116,-158,cs),
(104,-182,o),
(58,-242,o),
(10,-252,cs),
(-71,-269,o),
(-95,-226,o),
(-130,-197,cs),
(-145,-185,o),
(-145,-256,o),
(-211,-256,cs),
(-252,-256,o),
(-282,-210,o),
(-282,-167,cs),
(-282,-127,o),
(-254,-84,o),
(-211,-84,cs),
(-141,-84,o),
(-135,-203,o),
(-48,-203,cs),
(5,-203,o),
(67,-160,o),
(67,-104,cs),
(67,-48,o),
(44,2,o),
(9,54,cs)
);
},
{
closed = 1;
nodes = (
(-264,-199,o),
(-240,-213,o),
(-211,-213,cs),
(-187,-213,o),
(-161,-192,o),
(-161,-167,cs),
(-161,-142,o),
(-190,-132,o),
(-211,-132,cs),
(-235,-132,o),
(-264,-136,o),
(-264,-167,cs)
);
}
);
width = 225;
}
);
},
{
glyphname = kn_s_ottu;
layers = (
{
layerId = "CC7AEE9D-2AED-49C0-8074-4E98D62561AB";
shapes = (
{
closed = 1;
nodes = (
(50,333,o),
(88,344,o),
(93,313,cs),
(111,200,o),
(55,131,o),
(50,81,cs),
(46,34,o),
(108,-2,o),
(130,-63,cs),
(148,-112,o),
(143,-202,o),
(70,-202,cs),
(2,-202,o),
(17,-74,o),
(-66,-74,cs),
(-108,-74,o),
(-155,-132,o),
(-126,-193,cs),
(-103,-242,o),
(-154,-217,o),
(-161,-187,cs),
(-180,-108,o),
(-111,-38,o),
(-50,-42,cs),
(9,-46,o),
(18,-153,o),
(77,-161,cs),
(104,-164,o),
(117,-139,o),
(117,-109,cs),
(117,-17,o),
(12,16,o),
(12,76,cs),
(12,139,o),
(66,166,o),
(66,238,cs),
(66,277,o),
(63,266,o),
(56,300,cs)
);
}
);
width = 139;
}
);
},
{
glyphname = kn_h_ottu;
layers = (
{
layerId = "CC7AEE9D-2AED-49C0-8074-4E98D62561AB";
shapes = (
{
closed = 1;
nodes = (
(241.799,-83.917,o),
(291.967,-78.296,o),
(351.374,-86.657,cs),
(446.854,-99.537,o),
(465.65,-198.071,o),
(457.738,-268.526,cs),
(449.938,-338.079,o),
(383.296,-394.763,o),
(317.35,-387.415,cs),
(238.778,-378.486,o),
(206.435,-344.205,o),
(183.448,-308.349,cs),
(177.364,-298.427,o),
(179.843,-300.57,o),
(175.332,-307.332,cs),
(143.413,-357.375,o),
(90.079,-395.575,o),
(26.839,-388.566,cs),
(-60.864,-379.408,o),
(-124.988,-313.666,o),
(-115.265,-221.454,cs),
(-107.352,-150.999,o),
(-51.865,-73.682,o),
(38.207,-78.557,cs),
(100.998,-81.845,o),
(137.624,-118.494,o),
(156.664,-156.604,cs),
(161.058,-165.398,o),
(163.425,-168.443,o),
(169.74,-161.906,cs)
);
},
{
closed = 1;
nodes = (
(175.786,-296.397,o),
(235.526,-324.035,o),
(298.316,-327.323,cs),
(355.583,-330.836,o),
(401.924,-304.583,o),
(410.176,-231.423,cs),
(418.089,-160.967,o),
(360.381,-124.425,o),
(317.883,-120.015,cs),
(270.875,-115.04,o),
(197.027,-141.51,o),
(186.068,-221.659,cs)
);
},
{
closed = 1;
nodes = (
(-97.364,-297.892,o),
(-19.821,-351.576,o),
(34.517,-349.225,cs),
(88.854,-346.875,o),
(132.835,-295.595,o),
(140.852,-253.548,cs),
(156.66,-171.259,o),
(110.237,-95.827,o),
(12.156,-111.016,cs),
(-56.05,-121.704,o),
(-83.347,-171.411,o),
(-88.208,-217.517,cs)
);
}
);
width = 460;
}
);
},
{
glyphname = kn_arka_ottu;
layers = (
{
layerId = "CC7AEE9D-2AED-49C0-8074-4E98D62561AB";
shapes = (
{
closed = 1;
nodes = (
(13,495,o),
(121,507,o),
(194,507,cs),
(304,507,o),
(504,515,o),
(663,504,cs),
(734,499,o),
(707,441,o),
(663,439,cs),
(503,430,o),
(317,446,o),
(151,449,cs),
(121,449,o),
(75,439,o),
(84,397,cs),
(90,370,o),
(114,341,o),
(143,330,cs),
(204,307,o),
(302,315,o),
(361,311,cs),
(410,307,o),
(414,234,o),
(378,234,cs),
(341,234,o),
(302,240,o),
(264,240,cs),
(220,240,o),
(89,261,o),
(89,195,cs),
(89,115,o),
(264,124,o),
(350,118,cs),
(419,113,o),
(405,41,o),
(330,41,cs),
(248,41,o),
(34,45,o),
(22,170,cs),
(14,253,o),
(55,272,o),
(122,287,cs),
(163,296,o),
(9,312,o),
(11,400,cs)
);
}
);
width = 727;
}
);
},
{
glyphname = kn_k_ottu2;
layers = (
{
layerId = "CC7AEE9D-2AED-49C0-8074-4E98D62561AB";
shapes = (
{
closed = 1;
nodes = (
(88.384,-179.712,o),
(120.22,-147.876,o),
(159.403,-147.876,cs),
(196.136,-147.876,o),
(227.972,-179.712,o),
(227.972,-216.446,cs),
(227.972,-253.18,o),
(196.136,-285.016,o),
(159.403,-285.016,cs),
(120.22,-285.016,o),
(88.384,-253.18,o),
(88.384,-216.446,cs)
);
},
{
closed = 1;
nodes = (
(51.65,-285.016,o),
(98.18,-331.545,o),
(159.403,-331.545,cs),
(218.177,-331.545,o),
(264.706,-285.016,o),
(264.706,-226.242,cs),
(264.706,-165.019,o),
(218.177,-118.489,o),
(159.403,-118.489,cs),
(98.18,-118.489,o),
(51.65,-165.019,o),
(51.65,-226.242,cs)
);
},
{
closed = 1;
nodes = (
(10.019,-118.489,ls),
(10.019,-131.615,o),
(16.482,-138.081,o),
(29.606,-138.081,cs),
(286.751,-138.081,ls),
(299.874,-138.081,o),
(306.338,-131.615,o),
(306.338,-118.489,cs),
(306.338,-113.592,ls),
(306.338,-100.465,o),
(299.874,-94,o),
(286.751,-94,cs),
(29.606,-94,ls),
(16.482,-94,o),
(10.019,-100.465,o),
(10.019,-113.592,cs)
);
},
{
closed = 1;
nodes = (
(105.526,60.282,o),
(88.384,-79.306,o),
(178.994,-113.591,c),
(201.034,-113.591,o),
(210.83,-108.694,o),
(227.972,-103.796,c),
(137.362,-81.755,o),
(122.669,-5.839,o),
(149.607,82.322,cs),
(154.505,94.567,o),
(120.22,106.811,o),
(115.322,92.118,cs)
);
}
);
width = 317;
}
);
leftKerningGroup = "-77";
},
{
glyphname = kn_kh_ottu2;
layers = (
{
layerId = "CC7AEE9D-2AED-49C0-8074-4E98D62561AB";
shapes = (
{
closed = 1;
nodes = (
(97,-8,o),
(113,10,o),
(140,1,cs),
(169,-8,o),
(174,-31,o),
(174,-48,cs),
(174,-75,o),
(159,-91,o),
(131,-91,cs),
(77,-91,o),
(42,-61,o),
(49,-7,cs),
(67,131,o),
(349,117,o),
(347,-101,cs),
(346,-175,o),
(308,-219,o),
(308,-235,cs),
(308,-258,o),
(371,-282,o),
(409,-285,cs),
(491,-291,o),
(560,-203,o),
(560,-124,cs),
(560,-16,o),
(482,29,o),
(420,62,cs),
(416,64,o),
(403,70,o),
(403,76,cs),
(403,80,o),
(407,86,o),
(416,86,cs),
(662,86,o),
(664,-356,o),
(419,-330,cs),
(336,-321,o),
(318,-262,o),
(282,-262,cs),
(262,-262,o),
(223,-324,o),
(138,-324,cs),
(78,-324,o),
(10,-301,o),
(10,-239,cs),
(10,-184,o),
(78,-167,o),
(122,-167,cs),
(224,-167,o),
(236,-220,o),
(265,-220,cs),
(288,-220,o),
(318,-172,o),
(321,-129,cs),
(339,135,o),
(82,69,o),
(82,-16,c)
);
},
{
closed = 1;
nodes = (
(38,-268,o),
(89,-275,o),
(124,-275,cs),
(151,-275,o),
(236,-266,o),
(236,-227,cs),
(236,-207,o),
(185,-198,o),
(170,-196,cs),
(129,-191,o),
(31,-209,o),
(35,-244,cs)
);
}
);
width = 612;
}
);
},
{
glyphname = kn_g_ottu2;
layers = (
{
layerId = "CC7AEE9D-2AED-49C0-8074-4E98D62561AB";
shapes = (
{
closed = 1;
nodes = (
(270,89,o),
(296,25,o),
(320,-13,cs),
(370,-91,o),
(398,-180,o),
(433,-265,cs),
(449,-305,o),
(389,-328,o),
(384,-309,cs),
(375,-275,o),
(292,-39,o),
(243,19,cs),
(238,25,o),
(231,33,o),
(223,19,cs),
(197,-29,o),
(105,-221,o),
(59,-307,cs),
(45,-333,o),
(-1,-302,o),
(13,-268,cs),
(43,-197,o),
(121,-30,o),
(161,52,cs),
(172,74,o),
(191,89,o),
(218,89,cs)
);
}
);
width = 446;
}
);
},
{
glyphname = kn_gh_ottu2;
layers = (
{
layerId = "CC7AEE9D-2AED-49C0-8074-4E98D62561AB";
shapes = (
{
closed = 1;
nodes = (
(556,51,o),
(572,66,o),
(595,57,cs),
(693,17,o),
(792,-90,o),
(792,-200,cs),
(792,-254,o),
(740,-310,o),
(683,-315,cs),
(591,-323,o),
(539,-233,o),
(512,-195,c),
(506,-248,o),
(466,-306,o),
(411,-312,cs),
(298,-323,o),
(252,-221,o),
(201,-195,c),
(206,-226,o),
(184,-315,o),
(121,-315,cs),
(55,-315,o),
(10,-260,o),
(10,-192,cs),
(10,-136,o),
(51,-109,o),
(106,-109,cs),
(206,-109,o),
(272,-266,o),
(344,-272,cs),
(490,-284,o),
(470,-108,o),
(374,-30,cs),
(345,-6,o),
(272,6,o),
(272,36,cs),
(272,44,o),
(284,48,o),
(290,48,cs),
(447,43,o),
(506,-214,o),
(607,-257,cs),
(677,-287,o),
(734,-223,o),
(734,-148,cs),
(734,-61,o),
(649,-5,o),
(581,36,cs)
);
},
{
closed = 1;
nodes = (
(48,-231,o),
(68,-259,o),
(95,-259,cs),
(126,-259,o),
(152,-247,o),
(155,-214,cs),
(157,-188,o),
(147,-164,o),
(112,-157,cs),
(84,-152,o),
(54,-174,o),
(52,-195,cs)
);
},
{
closed = 1;
nodes = (
(215,-276,o),
(212,-258,o),
(226,-257,cs),
(242,-255,o),
(238,-274,o),
(238,-285,cs),
(238,-320,o),
(274,-390,o),
(285,-458,cs),
(287,-477,o),
(293,-518,o),
(267,-520,cs),
(221,-524,o),
(227,-449,o),
(229,-417,cs),
(233,-364,o),
(226,-334,o),
(218,-291,cs)
);
}
);
width = 802;
}
);
},
{
glyphname = kn_ng_ottu2;
layers = (
{
layerId = "CC7AEE9D-2AED-49C0-8074-4E98D62561AB";
shapes = (
{
closed = 1;
nodes = (
(35.651,23.771,o),
(72.408,73.975,o),
(140.543,73.975,cs),
(182.679,73.975,o),
(214.954,55.149,o),
(239.16,21.978,cs),
(257.09,-3.125,o),
(266.952,-30.917,o),
(270.538,-30.917,c),
(374.533,-34.503,o),
(330.604,61.424,o),
(406.808,61.424,cs),
(453.426,61.424,o),
(505.424,-30.02,o),
(505.424,-71.26,cs),
(505.424,-86.5,o),
(500.942,-108.017,o),
(486.597,-99.052,cs),
(465.978,-86.5,o),
(445.358,-14.779,o),
(406.808,-3.125,cs),
(355.707,12.116,o),
(353.914,-52.433,o),
(277.71,-52.433,cs),
(276.813,-52.433,o),
(274.124,-56.915,o),
(268.745,-61.398,cs),
(149.509,-166.29,o),
(60.754,-125.05,o),
(60.754,-207.53,cs),
(60.754,-236.218,o),
(75.994,-262.217,o),
(105.579,-265.803,cs),
(207.782,-276.561,o),
(228.402,-142.981,o),
(243.642,-169.876,cs),
(266.952,-211.116,o),
(298.33,-268.493,o),
(347.638,-268.493,cs),
(389.774,-268.493,o),
(424.738,-230.839,o),
(424.738,-188.703,cs),
(424.738,-166.29,o),
(396.946,-155.532,o),
(396.946,-133.119,cs),
(396.946,-124.154,o),
(405.911,-123.257,o),
(412.187,-123.257,cs),
(454.323,-123.257,o),
(462.392,-168.98,o),
(462.392,-203.944,cs),
(462.392,-285.526,o),
(414.876,-321.387,o),
(345.845,-321.387,cs),
(294.744,-321.387,o),
(275.917,-300.767,o),
(246.332,-236.218,cs),
(238.263,-219.184,o),
(205.092,-318.697,o),
(126.199,-318.697,cs),
(65.236,-318.697,o),
(10.549,-298.078,o),
(10.549,-216.495,cs),
(10.549,-92.776,o),
(223.919,-124.154,o),
(223.919,-37.192,cs),
(223.919,56.045,o),
(75.994,44.391,o),
(75.994,-6.711,cs),
(75.994,-26.434,o),
(86.753,-75.742,o),
(69.719,-81.121,cs),
(45.513,-89.19,o),
(35.651,-63.191,o),
(35.651,-40.778,cs)
);
}
);
width = 516;
}
);
},
{
glyphname = kn_c_ottu2;
layers = (
{
layerId = "CC7AEE9D-2AED-49C0-8074-4E98D62561AB";
shapes = (
{
closed = 1;
nodes = (
(10.432,67.769,o),
(56.252,98.627,o),
(104.876,98.627,cs),
(169.398,98.627,o),
(231.114,64.029,o),
(231.114,-4.233,cs),
(231.114,-155.718,o),
(37.55,-94.937,o),
(37.55,-185.641,cs),
(37.55,-271.669,o),
(204.931,-281.02,o),
(255.426,-221.174,cs),
(272.258,-201.537,o),
(287.219,-141.691,o),
(292.83,-166.939,cs),
(303.116,-209.953,o),
(325.558,-266.059,o),
(394.755,-266.059,cs),
(447.12,-266.059,o),
(531.278,-224.915,o),
(521.927,-138.886,cs),
(520.057,-118.314,o),
(506.966,-115.509,o),
(367.637,-115.509,cs),
(333.039,-115.509,o),
(348.,-55.663,o),
(394.755,-55.663,cs),
(476.108,-55.663,o),
(612.631,-51.923,o),
(687.439,-51.923,cs),
(706.141,-51.923,o),
(706.141,-115.509,o),
(688.374,-115.509,cs),
(666.867,-115.509,o),
(607.956,-115.509,o),
(591.124,-115.509,cs),
(578.033,-115.509,o),
(570.552,-117.379,o),
(568.682,-140.756,cs),
(563.071,-229.59,o),
(542.499,-299.722,o),
(434.029,-305.333,cs),
(357.351,-309.073,o),
(316.207,-284.761,o),
(291.895,-228.655,cs),
(287.219,-219.304,o),
(248.881,-316.554,o),
(131.059,-309.073,cs),
(73.083,-305.333,o),
(14.173,-258.578,o),
(14.173,-198.732,cs),
(14.173,-47.247,o),
(201.191,-115.509,o),
(201.191,-9.843,cs),
(201.191,86.471,o),
(50.641,96.757,o),
(50.641,5.118,cs),
(50.641,-5.168,o),
(60.927,-11.714,o),
(60.927,-22.,cs),
(60.927,-43.507,o),
(48.771,-54.728,o),
(33.809,-45.377,cs),
(10.432,-30.416,o),
(10.432,2.313,o),
(10.432,18.209,cs)
);
}
);
width = 712;
}
);
},
{
glyphname = kn_ch_ottu2;
layers = (
{
layerId = "CC7AEE9D-2AED-49C0-8074-4E98D62561AB";
shapes = (
{
closed = 1;
nodes = (
(297,-160,o),
(301,-138,o),
(308,-148,cs),
(336,-187,o),
(347,-256,o),
(424,-258,cs),
(497,-260,o),
(543,-212,o),
(543,-143,cs),
(543,5,o),
(380,-6,o),
(367,52,cs),
(364,65,o),
(373,74,o),
(386,71,cs),
(459,57,o),
(592,-29,o),
(605,-141,cs),
(614,-219,o),
(560,-299,o),
(470,-299,cs),
(407,-299,o),
(353,-258,o),
(319,-218,cs),
(315,-214,o),
(258,-312,o),
(164,-312,cs),
(56,-312,o),
(1,-197,o),
(12,-106,cs),
(25,5,o),
(166,104,o),
(229,71,cs),
(258,56,o),
(280,21,o),
(280,-13,cs),
(280,-57,o),
(242,-106,o),
(196,-106,cs),
(110,-106,o),
(127,0,o),
(118,-2,cs),
(-4,-37,o),
(12,-264,o),
(160,-274,cs),
(218,-278,o),
(275,-237,o),
(289,-187,cs)
);
},
{
closed = 1;
nodes = (
(154,-37,o),
(190,-47,o),
(218,-47,cs),
(238,-47,o),
(255,-37,o),
(243,-11,cs),
(235,7,o),
(183,15,o),
(167,5,cs),
(160,1,o),
(154,-8,o),
(154,-13,cs)
);
},
{
closed = 1;
nodes = (
(342,-289,o),
(344,-362,o),
(342,-405,cs),
(342,-425,o),
(342,-447,o),
(318,-447,cs),
(296,-447,o),
(278,-438,o),
(281,-411,cs),
(283,-383,o),
(317,-242,o),
(325,-257,cs)
);
}
);
width = 616;
}
);
},
{
glyphname = kn_j_ottu2;
layers = (
{
layerId = "CC7AEE9D-2AED-49C0-8074-4E98D62561AB";
shapes = (
{
closed = 1;
nodes = (
(63.778,-308.535,o),
(10.493,-272.377,o),
(10.493,-192.448,cs),
(10.493,-71.604,o),
(219.83,-92.537,o),
(219.83,-15.463,cs),
(219.83,91.109,o),
(71.391,58.756,o),
(71.391,14.034,cs),
(71.391,3.568,o),
(77.1,-4.996,o),
(77.1,-15.463,cs),
(77.1,-28.785,o),
(69.488,-40.203,o),
(55.215,-40.203,cs),
(33.329,-40.203,o),
(14.299,-21.172,o),
(14.299,0.713,cs),
(14.299,52.096,o),
(87.567,96.818,o),
(134.192,98.721,cs),
(219.83,102.527,o),
(257.891,72.078,o),
(257.891,-18.318,cs),
(257.891,-24.978,o),
(256.94,-44.009,o),
(264.552,-46.864,cs),
(314.031,-67.797,o),
(458.664,-74.458,o),
(468.18,13.083,cs),
(470.083,34.017,o),
(456.761,70.175,o),
(454.858,91.109,cs),
(454.858,95.866,o),
(453.907,112.042,o),
(463.422,102.527,cs),
(480.55,88.254,o),
(505.29,47.338,o),
(505.29,7.374,cs),
(505.29,-51.621,o),
(471.986,-83.973,o),
(430.118,-92.537,cs),
(357.802,-107.762,o),
(314.983,-103.004,o),
(223.636,-88.731,cs),
(176.059,-81.119,o),
(58.069,-105.859,o),
(58.069,-189.594,cs),
(58.069,-256.201,o),
(101.84,-276.183,o),
(153.222,-269.522,cs),
(215.072,-261.91,o),
(241.715,-137.259,o),
(257.891,-158.193,cs),
(269.309,-172.466,o),
(269.309,-185.787,o),
(274.067,-199.109,cs),
(301.662,-277.135,o),
(416.797,-272.377,o),
(429.167,-218.14,cs),
(433.925,-198.157,o),
(418.7,-158.193,o),
(452.004,-158.193,cs),
(474.841,-158.193,o),
(473.889,-208.624,o),
(473.889,-224.8,cs),
(473.889,-275.232,o),
(426.312,-319.954,o),
(382.542,-319.954,cs),
(314.983,-319.954,o),
(267.406,-260.959,o),
(251.23,-212.43,cs),
(246.473,-198.157,o),
(220.781,-308.535,o),
(138.949,-308.535,cs)
);
}
);
width = 516;
}
);
},
{
glyphname = kn_jh_ottu2;
layers = (
{
layerId = "CC7AEE9D-2AED-49C0-8074-4E98D62561AB";
shapes = (
{
closed = 1;
nodes = (
(792.176,63.304,o),
(799.717,71.788,o),
(808.201,71.788,cs),
(942.998,71.788,o),
(985.416,-95.058,o),
(976.933,-187.437,cs),
(971.277,-244.938,o),
(916.604,-309.98,o),
(857.218,-318.463,cs),
(783.692,-328.832,o),
(700.74,-260.963,o),
(647.01,-173.297,c),
(632.87,-247.766,o),
(568.771,-318.463,o),
(486.762,-318.463,cs),
(413.236,-318.463,o),
(374.588,-265.676,o),
(338.768,-210.06,c),
(322.743,-231.741,o),
(294.464,-292.07,o),
(236.02,-314.693,cs),
(136.101,-352.398,o),
(10.73,-276.987,o),
(10.73,-159.158,cs),
(10.73,-65.837,o),
(93.682,20.886,o),
(187.946,20.886,cs),
(385.9,20.886,o),
(301.062,-204.404,o),
(418.892,-255.307,cs),
(504.672,-292.07,o),
(620.616,-240.224,o),
(620.616,-129.936,cs),
(620.616,-23.418,o),
(582.911,-5.508,o),
(527.295,27.484,cs),
(493.36,47.28,o),
(550.861,53.878,o),
(568.771,47.28,cs),
(611.19,32.197,o),
(642.297,-38.5,o),
(649.838,-87.517,cs),
(662.092,-164.814,o),
(713.937,-266.618,o),
(803.488,-266.618,cs),
(963.736,-266.618,o),
(967.506,-57.353,o),
(883.612,3.918,cs),
(851.562,27.484,o),
(792.176,37.853,o),
(792.176,54.821,cs)
);
},
{
closed = 1;
nodes = (
(33.354,-211.003,o),
(78.6,-275.102,o),
(165.323,-275.102,cs),
(252.988,-275.102,o),
(306.718,-213.831,o),
(305.776,-125.223,cs),
(304.833,-62.066,o),
(247.332,-16.82,o),
(180.405,-13.992,cs),
(118.191,-12.106,o),
(46.55,-61.124,o),
(39.952,-135.592,cs)
);
},
{
closed = 1;
nodes = (
(666.805,-251.536,o),
(674.346,-276.045,o),
(676.232,-280.758,cs),
(680.002,-293.012,o),
(707.339,-362.767,o),
(712.052,-391.989,cs),
(716.765,-423.096,o),
(700.74,-457.974,o),
(663.977,-457.974,cs),
(632.87,-457.974,o),
(631.928,-437.236,o),
(631.928,-412.727,cs),
(631.928,-382.563,o),
(645.125,-233.626,o),
(661.149,-246.823,cs)
);
}
);
width = 988;
}
);
},
{
glyphname = kn_ny_ottu2;
layers = (
{
layerId = "CC7AEE9D-2AED-49C0-8074-4E98D62561AB";
shapes = (
{
closed = 1;
nodes = (
(3.735,13.485,o),
(188.628,108.143,o),
(302.748,-28.094,cs),
(307.172,-33.402,o),
(314.249,-3.324,o),
(336.365,18.792,cs),
(383.252,64.794,o),
(493.834,51.525,o),
(552.221,15.254,c),
(565.491,51.525,o),
(587.607,105.489,o),
(656.61,105.489,cs),
(726.498,105.489,o),
(774.269,37.37,o),
(774.269,-28.094,cs),
(774.269,-66.134,o),
(732.69,-96.213,o),
(696.419,-96.213,cs),
(671.649,-96.213,o),
(646.879,-71.442,o),
(646.879,-46.672,cs),
(646.879,-11.286,o),
(724.728,-6.863,o),
(724.728,24.985,cs),
(724.728,55.063,o),
(686.688,65.679,o),
(662.803,65.679,cs),
(627.416,65.679,o),
(569.029,34.716,o),
(569.029,-5.978,cs),
(569.029,-10.401,o),
(598.223,-58.172,o),
(600.877,-67.904,cs),
(619.454,-125.406,o),
(593.8,-162.562,o),
(593.8,-186.447,cs),
(593.8,-212.102,o),
(634.494,-227.141,o),
(634.494,-288.183,cs),
(634.494,-345.685,o),
(606.185,-384.61,o),
(575.222,-406.726,cs),
(565.491,-413.803,o),
(538.066,-404.957,o),
(538.066,-396.995,cs),
(538.066,-390.802,o),
(549.567,-387.264,o),
(553.99,-384.61,cs),
(606.185,-355.416,o),
(610.608,-277.567,o),
(578.76,-232.449,c),
(568.145,-250.142,o),
(500.911,-319.145,o),
(438.985,-319.145,cs),
(397.406,-319.145,o),
(354.943,-293.49,o),
(354.943,-248.373,cs),
(354.943,-195.294,o),
(409.791,-152.83,o),
(461.101,-152.83,cs),
(500.026,-152.83,o),
(540.72,-182.909,o),
(560.183,-182.909,cs),
(574.337,-182.909,o),
(584.953,-143.099,o),
(584.953,-114.79,cs),
(584.953,-39.595,o),
(522.143,2.869,o),
(451.37,2.869,cs),
(375.29,2.869,o),
(323.095,-28.094,o),
(326.634,-104.174,cs),
(327.519,-114.79,o),
(323.095,-122.752,o),
(314.249,-122.752,cs),
(296.556,-122.752,o),
(305.402,-92.674,o),
(297.44,-75.866,cs),
(229.322,66.564,o),
(-29.882,-14.824,o),
(62.122,-189.101,cs),
(85.123,-232.449,o),
(141.741,-212.102,o),
(162.973,-248.373,cs),
(166.512,-253.681,o),
(150.588,-254.566,o),
(146.165,-254.566,cs),
(64.776,-254.566,o),
(15.236,-174.947,o),
(10.812,-102.405,cs)
);
},
{
closed = 1;
nodes = (
(389.444,-274.028,o),
(428.369,-287.298,o),
(457.563,-285.529,cs),
(496.488,-282.875,o),
(538.066,-250.142,o),
(556.644,-217.41,cs),
(568.145,-197.948,o),
(500.026,-182.909,o),
(464.64,-182.909,cs),
(434.562,-182.909,o),
(389.444,-204.14,o),
(389.444,-238.642,cs)
);
}
);
width = 785;
}
);
},
{
glyphname = kn_tt_ottu2;
layers = (
{
layerId = "CC7AEE9D-2AED-49C0-8074-4E98D62561AB";
shapes = (
{
closed = 1;
nodes = (
(93.978,-98.869,o),
(93.177,-130.9,o),
(114.798,-138.908,cs),
(126.009,-142.912,o),
(155.638,-142.912,o),
(162.045,-126.095,cs),
(168.451,-108.478,o),
(147.631,-76.447,o),
(114.798,-90.06,cs)
);
},
{
closed = 1;
nodes = (
(93.978,-66.036,o),
(120.404,-57.228,o),
(141.224,-57.228,cs),
(186.068,-57.228,o),
(210.092,-111.681,o),
(190.873,-150.119,cs),
(180.463,-170.139,o),
(138.021,-196.565,o),
(101.185,-175.744,cs),
(77.962,-162.932,o),
(83.568,-126.095,o),
(61.146,-126.095,cs),
(45.931,-126.095,o),
(29.915,-175.744,o),
(36.321,-226.995,cs),
(49.935,-337.503,o),
(161.244,-291.858,o),
(182.064,-210.178,cs),
(184.467,-200.569,o),
(210.893,-197.366,o),
(210.893,-212.58,cs),
(210.893,-330.296,o),
(345.425,-271.839,o),
(345.425,-190.158,cs),
(345.425,-150.92,o),
(304.585,-106.076,o),
(265.346,-106.076,cs),
(254.936,-106.076,o),
(248.53,-108.478,o),
(230.912,-105.275,cs),
(218.901,-102.873,o),
(206.088,-94.865,o),
(206.088,-80.451,cs),
(206.088,-69.24,o),
(212.494,-53.224,o),
(233.315,-57.228,cs),
(279.76,-66.036,o),
(330.21,-33.204,o),
(316.597,7.636,cs),
(309.389,29.257,o),
(289.37,32.46,o),
(278.96,60.488,cs),
(274.155,71.699,o),
(288.569,87.715,o),
(306.186,81.308,cs),
(336.616,70.097,o),
(356.636,36.464,o),
(356.636,-5.977,cs),
(356.636,-45.216,o),
(310.991,-70.841,o),
(296.577,-80.451,cs),
(294.175,-82.052,o),
(293.374,-84.455,o),
(296.577,-86.056,cs),
(316.597,-94.865,o),
(374.253,-126.095,o),
(374.253,-182.951,cs),
(374.253,-263.831,o),
(331.812,-305.472,o),
(258.94,-305.472,cs),
(233.315,-305.472,o),
(214.897,-301.468,o),
(187.67,-269.436,c),
(158.842,-303.069,o),
(122.806,-316.683,o),
(79.564,-316.683,cs),
(31.516,-316.683,o),
(10.696,-277.444,o),
(10.696,-234.202,cs),
(10.696,-176.545,o),
(20.305,-138.908,o),
(52.337,-107.677,cs),
(59.544,-101.271,o),
(77.962,-84.455,o),
(85.169,-75.646,cs)
);
}
);
width = 385;
}
);
},
{
glyphname = kn_tth_ottu2;
layers = (
{
layerId = "CC7AEE9D-2AED-49C0-8074-4E98D62561AB";
shapes = (
{
closed = 1;
nodes = (
(267,8,o),
(321,-85,o),
(314,-165,cs),
(311,-195,o),
(287,-299,o),
(183,-299,cs),
(90,-299,o),
(25,-247,o),
(12,-171,cs),
(2,-112,o),
(39,33,o),
(181,17,cs)
);
},
{
closed = 1;
nodes = (
(40,-210,o),
(99,-248,o),
(155,-248,cs),
(228,-248,o),
(277,-200,o),
(277,-133,cs),
(277,-64,o),
(216,-8,o),
(147,-8,cs),
(86,-8,o),
(40,-63,o),
(40,-129,cs)
);
},
{
closed = 1;
nodes = (
(121,-96,o),
(134,-79,o),
(155,-79,cs),
(178,-79,o),
(197,-95,o),
(197,-119,cs),
(197,-139,o),
(184,-158,o),
(162,-158,cs),
(140,-158,o),
(121,-143,o),
(121,-117,cs)
);
}
);
width = 325;
}
);
},
{
glyphname = kn_dd_ottu2;
layers = (
{
layerId = "CC7AEE9D-2AED-49C0-8074-4E98D62561AB";
shapes = (
{
closed = 1;
nodes = (
(10.016,-115.763,o),
(116.211,44.387,o),
(225.832,44.387,cs),
(310.617,44.387,o),
(352.581,-59.239,o),
(371.423,-81.506,cs),
(384.269,-96.921,o),
(441.648,-137.173,o),
(441.648,-184.276,cs),
(441.648,-239.943,o),
(408.248,-301.604,o),
(346.587,-301.604,cs),
(273.791,-301.604,o),
(233.54,-243.368,o),
(228.401,-250.22,cs),
(200.996,-286.189,o),
(162.458,-308.456,o),
(117.924,-307.599,cs),
(69.965,-306.743,o),
(10.016,-291.327,o),
(10.016,-215.963,cs)
);
},
{
closed = 1;
nodes = (
(44.273,-236.517,o),
(146.186,-302.461,o),
(192.432,-262.209,cs),
(213.842,-243.368,o),
(219.837,-190.271,o),
(233.54,-204.83,cs),
(248.955,-221.958,o),
(252.381,-249.363,o),
(276.361,-259.64,cs),
(333.74,-283.62,o),
(432.228,-199.691,o),
(391.12,-138.886,cs),
(389.407,-136.316,o),
(383.412,-126.896,o),
(382.556,-127.752,cs),
(346.587,-160.296,o),
(267.796,-162.865,o),
(267.796,-98.634,cs),
(267.796,-64.378,o),
(306.335,-62.665,o),
(315.756,-66.091,cs),
(333.74,-72.085,o),
(270.366,8.417,o),
(219.837,8.417,cs),
(148.755,8.417,o),
(81.955,-93.496,o),
(66.539,-151.732,cs)
);
}
);
width = 452;
}
);
},
{
glyphname = kn_ddh_ottu2;
layers = (
{
layerId = "CC7AEE9D-2AED-49C0-8074-4E98D62561AB";
shapes = (
{
closed = 1;
nodes = (
(144.821,-309.756,o),
(28.093,-331.372,o),
(14.043,-269.766,cs),
(-9.735,-168.169,o),
(98.346,20.974,o),
(223.721,20.974,cs),
(264.792,20.974,o),
(316.671,-25.501,o),
(332.884,-64.41,cs),
(344.773,-93.592,o),
(342.611,-110.885,o),
(367.47,-123.855,cs),
(391.248,-135.744,o),
(426.915,-155.199,o),
(426.915,-210.321,cs),
(426.915,-275.17,o),
(368.551,-323.806,o),
(311.267,-316.241,cs),
(276.681,-311.917,o),
(258.307,-281.655,o),
(242.095,-281.655,cs),
(230.206,-281.655,o),
(231.287,-301.109,o),
(230.206,-309.756,cs),
(226.964,-344.342,o),
(223.721,-350.827,o),
(223.721,-386.494,cs),
(223.721,-408.11,o),
(251.822,-415.676,o),
(251.822,-437.292,cs),
(251.822,-453.504,o),
(238.853,-474.04,o),
(220.479,-474.04,cs),
(202.105,-474.04,o),
(185.893,-455.666,o),
(185.893,-437.292,cs),
(185.893,-384.332,o),
(208.59,-368.12,o),
(208.59,-312.998,cs),
(208.59,-300.028,o),
(191.297,-284.897,o),
(179.408,-291.382,cs)
);
},
{
closed = 1;
nodes = (
(237.772,-243.826,o),
(248.58,-281.655,o),
(276.681,-281.655,cs),
(333.964,-281.655,o),
(400.975,-245.988,o),
(393.409,-193.028,cs),
(389.086,-163.845,o),
(368.551,-134.663,o),
(355.581,-135.744,cs),
(326.399,-137.906,o),
(319.914,-175.734,o),
(306.944,-175.734,cs),
(276.681,-175.734,o),
(252.903,-141.148,o),
(256.146,-118.451,cs),
(257.226,-110.885,o),
(261.55,-104.401,o),
(268.035,-103.32,cs),
(284.247,-100.077,o),
(314.51,-107.643,o),
(311.267,-75.219,cs),
(308.025,-40.632,o),
(262.631,-15.774,o),
(233.448,-10.369,cs),
(153.468,4.762,o),
(39.982,-121.694,o),
(39.982,-197.351,cs),
(39.982,-258.957,o),
(117.801,-300.028,o),
(167.519,-288.139,cs),
(195.62,-281.655,o),
(215.075,-226.533,o),
(229.125,-237.341,cs)
);
}
);
width = 437;
}
);
},
{
glyphname = kn_nn_ottu2;
layers = (
{
layerId = "CC7AEE9D-2AED-49C0-8074-4E98D62561AB";
shapes = (
{
closed = 1;
nodes = (
(645.532,-22.461,o),
(670.232,-123.507,o),
(670.232,-197.607,cs),
(670.232,-289.67,o),
(599.875,-354.04,o),
(523.529,-354.04,cs),
(471.135,-354.04,o),
(416.496,-314.37,o),
(416.496,-259.731,cs),
(416.496,-219.313,o),
(432.214,-154.943,o),
(482.363,-154.943,cs),
(514.547,-154.943,o),
(547.481,-170.661,o),
(567.69,-201.349,cs),
(572.929,-208.834,o),
(575.175,-236.528,o),
(563.199,-226.797,cs),
(535.505,-204.343,o),
(445.687,-144.464,o),
(443.442,-253.743,cs),
(442.693,-300.149,o),
(497.332,-326.346,o),
(536.254,-325.597,cs),
(684.453,-322.603,o),
(699.423,-40.425,o),
(494.338,-40.425,cs),
(340.151,-40.425,o),
(373.833,-184.134,o),
(334.911,-196.858,cs),
(321.439,-201.349,o),
(316.948,-180.391,o),
(319.942,-165.422,cs),
(323.684,-143.716,o),
(343.893,-122.758,o),
(331.917,-104.046,cs),
(304.224,-60.634,o),
(272.039,-34.437,o),
(206.172,-34.437,cs),
(163.509,-34.437,o),
(107.372,-60.634,o),
(107.372,-110.034,cs),
(107.372,-190.87,o),
(153.03,-225.3,o),
(206.172,-253.743,cs),
(217.4,-259.731,o),
(193.448,-288.173,o),
(184.466,-285.179,cs),
(165.006,-279.94,o),
(141.803,-244.013,o),
(134.318,-229.791,cs),
(132.821,-227.546,o),
(133.569,-226.797,o),
(128.33,-226.797,cs),
(81.924,-226.049,o),
(41.506,-234.282,o),
(49.739,-298.652,cs),
(54.23,-337.573,o),
(129.078,-349.549,o),
(125.336,-362.273,cs),
(123.091,-370.506,o),
(106.624,-369.009,o),
(98.391,-368.261,cs),
(55.727,-364.518,o),
(10.818,-316.615,o),
(10.818,-274.7,cs),
(10.818,-240.27,o),
(28.033,-208.085,o),
(58.721,-205.84,cs),
(78.93,-204.343,o),
(116.354,-215.57,o),
(114.857,-210.331,cs),
(105.875,-178.894,o),
(81.175,-148.955,o),
(81.175,-118.267,cs),
(81.175,-54.646,o),
(114.857,-1.504,o),
(197.19,-1.504,cs),
(268.296,-1.504,o),
(307.218,-34.437,o),
(349.881,-86.083,c),
(380.569,-22.461,o),
(450.178,11.22,o),
(521.284,-1.504,cs)
);
}
);
width = 681;
}
);
},
{
glyphname = kn_t_ottu2;
layers = (
{
layerId = "CC7AEE9D-2AED-49C0-8074-4E98D62561AB";
shapes = (
{
closed = 1;
nodes = (
(43.692,-243.432,o),
(88.642,-186.083,o),
(144.441,-179.883,cs),
(228.139,-169.808,o),
(269.988,-241.107,o),
(269.988,-305.431,cs),
(269.988,-401.53,o),
(214.189,-424.779,o),
(121.191,-424.779,cs),
(-38.456,-424.779,o),
(-197.329,-424.779,o),
(-356.976,-420.904,cs),
(-436.8,-419.354,o),
(-385.65,-368.205,o),
(-331.401,-368.205,cs),
(-197.329,-368.205,o),
(-59.381,-384.48,o),
(73.917,-384.48,c),
(56.092,-368.205,o),
(43.692,-324.806,o),
(43.692,-296.131,cs)
);
},
{
closed = 1;
nodes = (
(93.291,-327.906,o),
(114.991,-373.63,o),
(152.19,-373.63,cs),
(207.99,-373.63,o),
(229.689,-351.155,o),
(229.689,-296.131,cs),
(229.689,-262.032,o),
(214.964,-234.132,o),
(176.99,-231.032,cs),
(130.491,-227.932,o),
(93.291,-258.157,o),
(93.291,-299.231,cs)
);
}
);
width = 649;
}
);
},
{
glyphname = kn_th_ottu2;
layers = (
{
layerId = "CC7AEE9D-2AED-49C0-8074-4E98D62561AB";
shapes = (
{
closed = 1;
nodes = (
(233.31,-265.186,o),
(233.31,-292.163,o),
(233.31,-305.216,cs),
(233.31,-345.247,o),
(256.806,-390.498,o),
(256.806,-431.398,cs),
(256.806,-454.894,o),
(248.103,-473.169,o),
(219.386,-473.169,cs),
(194.15,-473.169,o),
(168.043,-466.207,o),
(172.394,-435.75,cs),
(181.096,-380.926,o),
(202.852,-339.155,o),
(202.852,-286.942,cs),
(202.852,-281.721,o),
(200.241,-274.759,o),
(195.89,-279.11,cs),
(172.394,-306.957,o),
(153.249,-337.415,o),
(100.166,-337.415,cs),
(22.716,-337.415,o),
(1.831,-218.194,o),
(14.014,-163.37,cs),
(29.678,-94.623,o),
(148.028,19.376,o),
(224.607,19.376,cs),
(315.981,19.376,o),
(379.507,-45.02,o),
(418.667,-116.379,cs),
(455.216,-181.645,o),
(435.201,-328.712,o),
(337.736,-328.712,cs),
(294.225,-328.712,o),
(254.195,-282.591,o),
(240.271,-271.278,cs)
);
},
{
closed = 1;
nodes = (
(387.339,-55.463,o),
(289.874,-4.12,o),
(224.607,-4.12,cs),
(181.096,-4.12,o),
(121.051,-35.448,o),
(69.708,-111.157,cs),
(34.029,-163.37,o),
(56.655,-294.774,o),
(135.845,-294.774,cs),
(178.486,-294.774,o),
(211.554,-216.454,o),
(224.607,-230.377,cs),
(302.057,-316.529,o),
(412.575,-320.88,o),
(398.652,-172.943,cs)
);
},
{
closed = 1;
nodes = (
(181.096,-135.523,o),
(193.279,-116.379,o),
(219.386,-116.379,cs),
(242.012,-116.379,o),
(250.714,-133.783,o),
(250.714,-152.928,cs),
(250.714,-170.332,o),
(236.791,-189.477,o),
(215.035,-189.477,cs),
(193.279,-189.477,o),
(181.096,-171.202,o),
(181.096,-159.019,cs)
);
}
);
width = 446;
}
);
},
{
glyphname = kn_d_ottu2;
layers = (
{
layerId = "CC7AEE9D-2AED-49C0-8074-4E98D62561AB";
shapes = (
{
closed = 1;
nodes = (
(325.622,18.965,o),
(440.874,-108.377,o),
(440.874,-199.451,cs),
(440.874,-265.54,o),
(391.71,-327.599,o),
(321.592,-327.599,cs),
(265.175,-327.599,o),
(237.772,-294.554,o),
(223.265,-269.569,cs),
(220.847,-266.346,o),
(221.653,-263.928,o),
(216.817,-269.569,cs),
(195.862,-293.748,o),
(175.713,-319.539,o),
(118.49,-318.733,cs),
(78.998,-317.927,o),
(4.849,-267.957,o),
(10.491,-184.137,cs),
(16.133,-104.347,o),
(155.564,18.965,o),
(240.996,18.965,cs)
);
},
{
closed = 1;
nodes = (
(138.639,-19.721,o),
(26.61,-133.362,o),
(61.266,-238.137,cs),
(73.356,-274.405,o),
(105.594,-296.972,o),
(141.863,-288.912,cs),
(208.757,-274.405,o),
(216.817,-193.809,o),
(228.906,-210.734,cs),
(250.667,-239.749,o),
(275.652,-300.196,o),
(325.622,-292.942,cs),
(373.173,-285.689,o),
(401.382,-237.331,o),
(400.576,-186.555,cs),
(399.77,-116.437,o),
(293.383,5.263,o),
(216.817,-7.632,cs)
);
}
);
width = 451;
}
);
},
{
glyphname = kn_dh_ottu2;
layers = (
{
layerId = "CC7AEE9D-2AED-49C0-8074-4E98D62561AB";
shapes = (
{
closed = 1;
nodes = (
(302.734,0.435,o),
(402.104,-134.841,o),
(402.104,-225.86,cs),
(402.104,-285.147,o),
(352.837,-346.105,o),
(291.044,-346.105,cs),
(243.447,-346.105,o),
(235.096,-331.074,o),
(219.231,-316.044,cs),
(183.324,-282.642,o),
(257.642,-429.609,o),
(200.86,-429.609,cs),
(134.892,-429.609,o),
(235.096,-258.426,o),
(179.984,-325.229,cs),
(160.778,-347.775,o),
(131.552,-358.631,o),
(98.985,-358.631,cs),
(-98.083,-358.631,o),
(76.439,0.435,o),
(213.386,0.435,cs)
);
},
{
closed = 1;
nodes = (
(49.718,-296.838,o),
(83.12,-322.724,o),
(131.552,-316.044,cs),
(183.324,-309.363,o),
(191.675,-215.839,o),
(205.87,-240.89,cs),
(220.066,-266.777,o),
(234.261,-301.013,o),
(266.828,-308.528,cs),
(337.806,-324.394,o),
(373.713,-275.127,o),
(367.867,-200.809,cs),
(363.692,-140.686,o),
(276.848,-38.812,o),
(213.386,-38.812,cs),
(132.387,-38.812,o),
(49.718,-145.696,o),
(49.718,-223.355,cs)
);
}
);
width = 413;
}
);
},
{
glyphname = kn_n_ottu2;
layers = (
{
layerId = "CC7AEE9D-2AED-49C0-8074-4E98D62561AB";
shapes = (
{
closed = 1;
nodes = (
(69.271,178.377,o),
(81.026,181.171,o),
(94.766,178.481,cs),
(219.4,154.084,o),
(316.356,40.341,o),
(290.806,-90.182,cs),
(282.161,-134.344,o),
(245.441,-170.972,o),
(195.687,-185.689,c),
(205.434,-219.185,o),
(176.535,-345.995,o),
(100.518,-364.741,cs),
(91.899,-367.13,o),
(67.728,-355.266,o),
(83.772,-346.179,cs),
(128.962,-318.341,o),
(152.093,-267.844,o),
(163.619,-208.962,cs),
(164.58,-204.055,o),
(161.018,-196.225,o),
(153.956,-195.861,cs),
(138.851,-194.943,o),
(112.972,-197.01,o),
(93.344,-193.168,cs),
(55.071,-185.676,o),
(2.762,-150.981,o),
(11.406,-106.819,cs),
(15.248,-87.191,o),
(32.362,-51.82,o),
(73.964,-57.926,cs),
(175.025,-72.613,o),
(184.128,-140.629,o),
(196.886,-143.126,cs),
(227.309,-149.081,o),
(252.19,-94.851,o),
(257.184,-69.335,cs),
(280.621,50.393,o),
(142.485,115.135,o),
(95.358,129.454,cs),
(85.737,132.357,o),
(61.971,141.085,o),
(66.389,163.656,cs)
);
},
{
closed = 1;
nodes = (
(42.042,-116.892,o),
(55.439,-131.742,o),
(72.932,-141.28,cs),
(99.663,-155.683,o),
(165.01,-165.418,o),
(163.945,-144.83,cs),
(163.285,-127.378,o),
(131.606,-101.816,o),
(98.026,-91.167,cs),
(84.671,-86.515,o),
(48.573,-83.525,o),
(44.731,-103.152,cs)
);
}
);
width = 305;
}
);
},
{
glyphname = kn_p_ottu2;
layers = (
{
layerId = "CC7AEE9D-2AED-49C0-8074-4E98D62561AB";
shapes = (
{
closed = 1;
nodes = (
(323.786,-165.975,o),
(361.428,-107.801,o),
(361.428,-52.193,cs),
(361.428,137.729,o),
(247.646,211.302,o),
(247.646,247.233,cs),
(247.646,255.788,o),
(246.791,290.008,o),
(264.756,268.621,cs),
(333.197,184.781,o),
(388.804,57.311,o),
(388.804,-47.06,cs),
(388.804,-124.911,o),
(362.284,-178.808,o),
(318.653,-197.629,cs),
(279.3,-214.739,o),
(220.27,-208.75,o),
(179.206,-171.108,cs),
(174.073,-166.831,o),
(171.506,-164.264,o),
(168.94,-170.253,cs),
(150.974,-208.75,o),
(101.355,-232.704,o),
(56.869,-214.739,cs),
(17.516,-198.484,o),
(10.672,-149.72,o),
(10.672,-106.945,cs),
(10.672,-66.737,o),
(42.325,-30.806,o),
(79.112,-30.806,cs),
(122.743,-30.806,o),
(146.697,-67.592,o),
(158.674,-106.945,cs),
(172.362,-153.998,o),
(210.004,-165.975,o),
(264.756,-165.975,cs)
);
},
{
closed = 1;
nodes = (
(127.876,-94.968,o),
(114.188,-73.581,o),
(86.812,-73.581,cs),
(45.747,-73.581,o),
(40.614,-104.379,o),
(42.325,-126.622,cs),
(44.892,-165.975,o),
(68.846,-186.507,o),
(103.922,-181.374,cs),
(130.442,-177.952,o),
(146.697,-153.998,o),
(136.431,-121.489,cs)
);
}
);
width = 399;
}
);
},
{
glyphname = kn_ph_ottu2;
layers = (
{
layerId = "CC7AEE9D-2AED-49C0-8074-4E98D62561AB";
shapes = (
{
closed = 1;
nodes = (
(116.592,-75.032,o),
(77.663,-77.322,o),
(63.924,-83.047,cs),
(46.749,-89.917,o),
(34.155,-110.526,o),
(37.589,-128.845,cs),
(42.169,-151.745,o),
(59.344,-171.209,o),
(79.953,-176.934,cs),
(117.737,-187.239,o),
(166.97,-159.759,o),
(138.346,-111.671,cs)
);
},
{
closed = 1;
nodes = (
(163.535,-191.818,o),
(113.157,-221.587,o),
(70.793,-214.718,cs),
(15.835,-205.558,o),
(10.11,-149.455,o),
(10.11,-111.671,cs),
(10.11,-76.177,o),
(46.749,-46.408,o),
(79.953,-46.408,cs),
(110.867,-46.408,o),
(131.476,-65.873,o),
(148.651,-87.627,cs),
(168.115,-112.816,o),
(169.26,-133.425,o),
(196.739,-159.759,cs),
(245.973,-206.703,o),
(338.714,-146.02,o),
(338.714,-69.307,cs),
(338.714,104.727,o),
(234.523,243.267,o),
(86.823,324.56,cs),
(78.808,329.139,o),
(68.503,378.373,o),
(117.737,345.169,cs),
(245.973,260.442,o),
(362.759,88.697,o),
(362.759,-71.597,cs),
(362.759,-138.005,o),
(319.25,-212.428,o),
(256.277,-205.558,cs),
(228.798,-202.123,o),
(204.754,-188.384,o),
(188.724,-172.354,cs),
(186.434,-170.064,o),
(183.,-168.919,o),
(179.565,-172.354,cs)
);
},
{
closed = 1;
nodes = (
(142.926,-262.806,o),
(154.376,-210.138,o),
(173.84,-210.138,cs),
(196.739,-210.138,o),
(184.145,-276.546,o),
(185.29,-292.575,cs),
(186.434,-309.749,o),
(187.579,-333.794,o),
(168.115,-333.794,cs),
(137.201,-333.794,o),
(142.926,-305.17,o),
(142.926,-283.415,cs)
);
}
);
width = 373;
}
);
},
{
glyphname = kn_b_ottu2;
layers = (
{
layerId = "CC7AEE9D-2AED-49C0-8074-4E98D62561AB";
shapes = (
{
closed = 1;
nodes = (
(424.248,216.58,o),
(471.306,105.798,o),
(471.306,-66.749,cs),
(467.385,-148.12,o),
(442.875,-235.374,o),
(340.916,-227.531,cs),
(292.878,-223.61,o),
(261.505,-171.65,o),
(248.76,-148.12,cs),
(243.859,-138.317,o),
(194.84,-235.374,o),
(135.037,-235.374,cs),
(54.645,-235.374,o),
(-0.256,-129.493,o),
(78.175,-64.788,c),
(56.606,-64.788,o),
(10.528,-65.769,o),
(10.528,-3.024,cs),
(10.528,85.21,o),
(99.743,99.915,o),
(142.88,87.17,cs),
(191.898,72.465,o),
(217.388,33.25,o),
(216.408,-13.809,cs),
(214.447,-90.278,o),
(88.959,-53.024,o),
(78.175,-126.552,cs),
(78.175,-205.963,o),
(149.742,-207.924,o),
(193.859,-163.807,cs),
(205.624,-153.022,o),
(220.329,-133.415,o),
(214.447,-115.768,cs),
(211.506,-107.925,o),
(248.76,-42.24,o),
(253.662,-65.769,cs),
(258.564,-90.278,o),
(258.564,-100.082,o),
(258.564,-116.748,cs),
(258.564,-145.179,o),
(314.446,-166.748,o),
(337.975,-166.748,cs),
(415.425,-166.748,o),
(448.758,-132.434,o),
(448.758,-57.926,cs),
(448.758,99.915,o),
(417.386,169.522,o),
(285.034,301.873,cs),
(269.348,317.559,o),
(286.015,378.343,o),
(312.485,351.873,cs)
);
},
{
closed = 1;
nodes = (
(58.567,-11.848,o),
(65.43,-34.397,o),
(85.037,-41.259,cs),
(124.252,-54.984,o),
(185.036,-46.161,o),
(187.977,-3.024,cs),
(189.938,27.367,o),
(150.723,45.014,o),
(133.076,45.995,cs),
(99.743,47.955,o),
(58.567,39.132,o),
(58.567,1.878,cs)
);
}
);
width = 482;
}
);
},
{
glyphname = kn_bh_ottu2;
layers = (
{
layerId = "CC7AEE9D-2AED-49C0-8074-4E98D62561AB";
shapes = (
{
closed = 1;
nodes = (
(282.077,365.379,o),
(297.83,348.314,o),
(310.956,337.812,cs),
(454.039,217.045,o),
(502.609,47.709,o),
(469.791,-112.439,cs),
(457.977,-171.51,o),
(423.847,-225.33,o),
(356.9,-225.33,cs),
(316.207,-225.33,o),
(287.328,-185.949,o),
(259.762,-161.008,cs),
(258.449,-159.696,o),
(254.511,-170.197,o),
(254.511,-171.51,cs),
(242.697,-212.203,o),
(232.195,-356.599,o),
(228.257,-365.787,cs),
(220.381,-381.54,o),
(190.189,-357.911,o),
(190.189,-346.097,cs),
(190.189,-287.026,o),
(236.133,-239.77,o),
(236.133,-180.699,cs),
(236.133,-174.135,o),
(234.821,-155.758,o),
(230.883,-161.008,cs),
(211.192,-184.637,o),
(158.685,-230.581,o),
(100.927,-225.33,cs),
(19.54,-217.454,o),
(2.475,-99.312,o),
(73.36,-50.743,cs),
(77.298,-48.117,o),
(56.295,-45.492,o),
(47.107,-42.867,cs),
(19.54,-36.303,o),
(10.351,-3.486,o),
(10.351,18.83,cs),
(10.351,76.588,o),
(75.986,106.78,o),
(125.868,106.78,cs),
(203.316,106.78,o),
(249.26,29.331,o),
(195.44,-29.74,cs),
(158.685,-69.12,o),
(66.797,-49.43,o),
(66.797,-119.002,cs),
(66.797,-151.82,o),
(102.239,-180.699,o),
(133.744,-180.699,cs),
(157.372,-180.699,o),
(200.691,-163.634,o),
(215.13,-128.191,cs),
(220.381,-116.377,o),
(217.756,-116.377,o),
(213.818,-108.501,cs),
(207.254,-95.374,o),
(247.948,-59.932,o),
(251.886,-71.746,cs),
(259.762,-92.749,o),
(262.387,-117.69,o),
(268.951,-128.191,cs),
(287.328,-158.383,o),
(321.458,-166.259,o),
(354.275,-166.259,cs),
(488.169,-166.259,o),
(460.603,47.709,o),
(425.16,140.909,cs),
(401.532,205.231,o),
(359.526,268.24,o),
(321.458,295.806,cs),
(307.018,306.308,o),
(282.077,312.871,o),
(282.077,335.187,cs)
);
},
{
closed = 1;
nodes = (
(40.543,4.39,o),
(51.045,-40.241,o),
(93.051,-40.241,cs),
(125.868,-40.241,o),
(192.815,-17.926,o),
(192.815,21.455,cs),
(192.815,47.709,o),
(159.998,70.024,o),
(136.369,70.024,cs),
(111.428,70.024,o),
(75.986,60.836,o),
(56.295,29.331,cs)
);
}
);
width = 490;
}
);
},
{
glyphname = kn_m_ottu2;
layers = (
{
layerId = "CC7AEE9D-2AED-49C0-8074-4E98D62561AB";
shapes = (
{
closed = 1;
nodes = (
(43,-123,o),
(10,-123,o),
(11,-115,cs),
(14,-101,o),
(35,-75,o),
(50,-76,cs),
(168,-85,o),
(344,-86,o),
(490,-76,cs),
(512,-75,o),
(551,-39,o),
(575,-12,cs),
(604,21,o),
(601,69,o),
(572,92,cs),
(563,99,o),
(539,102,o),
(528,105,cs),
(522,106,o),
(512,170,o),
(538,167,cs),
(574,162,o),
(625,114,o),
(627,77,cs),
(634,-27,o),
(525,-78,o),
(540,-80,cs),
(582,-86,o),
(630,-117,o),
(640,-167,cs),
(651,-218,o),
(630,-291,o),
(569,-302,cs),
(493,-316,o),
(447,-285,o),
(434,-214,cs),
(430,-189,o),
(437,-161,o),
(452,-140,cs),
(457,-134,o),
(463,-121,o),
(451,-122,cs),
(319,-131,o),
(134,-127,o),
(48,-123,cs)
);
},
{
closed = 1;
nodes = (
(479,-256,o),
(509,-270,o),
(553,-267,cs),
(596,-264,o),
(612,-220,o),
(610,-189,cs),
(606,-134,o),
(560,-117,o),
(524,-119,cs),
(471,-123,o),
(445,-179,o),
(465,-223,cs)
);
}
);
width = 653;
}
);
},
{
glyphname = kn_y_ottu2;
layers = (
{
layerId = "CC7AEE9D-2AED-49C0-8074-4E98D62561AB";
shapes = (
{
closed = 1;
nodes = (
(187,150,o),
(218,228,o),
(292,228,cs),
(409,228,o),
(456,65,o),
(360,-1,cs),
(335,-16,o),
(319,3,o),
(339,18,cs),
(370,40,o),
(402,171,o),
(294,177,cs),
(248,179,o),
(216,138,o),
(216,95,cs),
(216,28,o),
(252,-26,o),
(292,-72,cs),
(383,-176,o),
(371,-372,o),
(203,-372,cs),
(136,-372,o),
(65,-348,o),
(65,-278,cs),
(65,-199,o),
(131,-166,o),
(131,-119,cs),
(131,-72,o),
(45,-84,o),
(49,-124,cs),
(55,-176,o),
(8,-167,o),
(11,-128,cs),
(14,-89,o),
(29,-39,o),
(101,-44,cs),
(154,-48,o),
(164,-98,o),
(164,-119,cs),
(164,-166,o),
(101,-210,o),
(98,-247,cs),
(89,-358,o),
(304,-323,o),
(310,-231,cs),
(319,-81,o),
(187,-26,o),
(187,87,cs)
);
}
);
width = 422;
}
);
},
{
glyphname = kn_r_ottu2;
layers = (
{
layerId = "CC7AEE9D-2AED-49C0-8074-4E98D62561AB";
shapes = (
{
closed = 1;
nodes = (
(-62,-453,o),
(-211,-477,o),
(-321,-461,cs),
(-359,-456,o),
(-344,-405,o),
(-325,-412,cs),
(-268,-433,o),
(-76,-418,o),
(14,-323,cs),
(117,-214,o),
(132,-72,o),
(132,111,cs),
(132,122,o),
(169,114,o),
(168,98,cs),
(161,-58,o),
(157,-228,o),
(41,-348,cs)
);
}
);
width = 172;
}
);
},
{
glyphname = kn_l_ottu2;
layers = (
{
layerId = "CC7AEE9D-2AED-49C0-8074-4E98D62561AB";
shapes = (
{
closed = 1;
nodes = (
(359.451,-68.298,o),
(401.723,-34.002,o),
(459.15,-38.788,cs),
(539.706,-45.168,o),
(618.668,-125.725,o),
(609.895,-219.841,cs),
(603.514,-290.029,o),
(530.933,-346.658,o),
(476.697,-346.658,cs),
(463.935,-346.658,o),
(423.258,-341.075,o),
(443.198,-321.135,cs),
(459.947,-303.588,o),
(518.172,-298.802,o),
(532.528,-287.636,cs),
(586.764,-244.566,o),
(568.42,-195.115,o),
(542.897,-160.819,cs),
(502.22,-105.785,o),
(433.627,-96.214,o),
(376.2,-133.701,cs),
(324.357,-167.2,o),
(324.357,-236.59,o),
(317.976,-286.838,cs),
(313.988,-317.147,o),
(271.716,-298.005,o),
(278.097,-282.053,cs),
(308.405,-206.282,o),
(277.299,-105.785,o),
(171.219,-101.797,cs),
(119.376,-99.405,o),
(50.783,-113.761,o),
(50.783,-201.496,cs),
(50.783,-317.147,o),
(175.207,-284.446,o),
(175.207,-325.92,cs),
(175.207,-340.277,o),
(148.887,-344.265,o),
(133.733,-343.467,cs),
(42.01,-340.277,o),
(10.106,-266.899,o),
(10.106,-183.949,cs),
(10.106,-112.166,o),
(85.08,-45.168,o),
(160.053,-45.168,cs),
(223.063,-45.168,o),
(258.157,-73.882,o),
(288.465,-123.332,cs),
(299.632,-141.677,o),
(300.429,-141.677,o),
(315.583,-122.535,cs)
);
}
);
width = 621;
}
);
},
{
glyphname = kn_ll_ottu2;
layers = (
{
layerId = "CC7AEE9D-2AED-49C0-8074-4E98D62561AB";
shapes = (
{
closed = 1;
nodes = (
(209,-378,o),
(234,-395,o),
(231,-450,cs),
(228,-508,o),
(189,-541,o),
(160,-541,cs),
(109,-541,o),
(91,-491,o),
(94,-446,cs),
(98,-387,o),
(154,-363,o),
(138,-355,cs),
(123,-348,o),
(93,-331,o),
(78,-321,cs),
(-4,-267,o),
(-31,-16,o),
(108,-17,cs),
(158,-17,o),
(184,-55,o),
(184,-102,cs),
(184,-176,o),
(92,-182,o),
(70,-131,cs),
(60,-108,o),
(56,-147,o),
(56,-158,cs),
(56,-255,o),
(111,-334,o),
(171,-334,cs),
(223,-334,o),
(289,-239,o),
(292,-187,cs),
(296,-112,o),
(271,-91,o),
(208,-63,cs),
(188,-54,o),
(202,-17,o),
(217,-21,cs),
(389,-65,o),
(342,-262,o),
(198,-350,cs),
(190,-355,o),
(190,-359,o),
(194,-363,cs)
);
},
{
closed = 1;
nodes = (
(96,-113,o),
(112,-120,o),
(124,-120,cs),
(139,-120,o),
(152,-112,o),
(152,-96,cs),
(152,-71,o),
(138,-57,o),
(116,-63,cs),
(102,-67,o),
(96,-81,o),
(96,-96,cs)
);
},
{
closed = 1;
nodes = (
(120,-492,o),
(137,-512,o),
(161,-509,cs),
(182,-507,o),
(192,-483,o),
(194,-456,cs),
(197,-424,o),
(187,-388,o),
(166,-388,cs),
(134,-388,o),
(118,-419,o),
(119,-455,cs)
);
}
);
width = 338;
}
);
},
{
glyphname = kn_v_ottu2;
layers = (
{
layerId = "CC7AEE9D-2AED-49C0-8074-4E98D62561AB";
shapes = (
{
closed = 1;
nodes = (
(139,262,o),
(176,326,o),
(230,326,cs),
(303,326,o),
(349,211,o),
(320,156,cs),
(312,141,o),
(289,130,o),
(297,164,cs),
(306,204,o),
(286,268,o),
(235,282,cs),
(205,290,o),
(163,259,o),
(165,218,cs),
(173,57,o),
(367,16,o),
(381,-147,cs),
(386,-207,o),
(367,-254,o),
(297,-254,cs),
(242,-254,o),
(212,-220,o),
(173,-188,cs),
(168,-183,o),
(166,-188,o),
(166,-193,cs),
(160,-223,o),
(141,-250,o),
(106,-254,cs),
(47,-260,o),
(10,-219,o),
(11,-160,cs),
(12,-109,o),
(47,-89,o),
(82,-90,cs),
(142,-92,o),
(147,-148,o),
(216,-190,cs),
(263,-219,o),
(367,-190,o),
(364,-142,cs),
(354,3,o),
(139,37,o),
(139,213,cs)
);
},
{
closed = 1;
nodes = (
(46,-198,o),
(69,-206,o),
(94,-206,cs),
(117,-206,o),
(133,-195,o),
(136,-175,cs),
(143,-135,o),
(112,-108,o),
(71,-124,cs),
(49,-133,o),
(46,-153,o),
(46,-168,cs)
);
}
);
width = 392;
}
);
},
{
glyphname = kn_sh_ottu2;
layers = (
{
layerId = "CC7AEE9D-2AED-49C0-8074-4E98D62561AB";
shapes = (
{
closed = 1;
nodes = (
(155,263,o),
(180,285,o),
(188,275,cs),
(282,165,o),
(226,9,o),
(193,-36,cs),
(188,-43,o),
(234,-63,o),
(264,-100,cs),
(282,-122,o),
(295,-158,o),
(286,-186,cs),
(267,-244,o),
(191,-296,o),
(129,-296,cs),
(92,-296,o),
(61,-260,o),
(65,-232,cs),
(73,-171,o),
(166,-113,o),
(166,-68,cs),
(166,-25,o),
(51,-46,o),
(51,-63,cs),
(51,-89,o),
(73,-89,o),
(73,-115,cs),
(73,-140,o),
(28,-150,o),
(14,-109,cs),
(-12,-21,o),
(112,-13,o),
(169,-26,cs),
(175,-27,o),
(179,-16,o),
(181,-11,cs),
(247,188,o),
(177,219,o),
(161,251,cs)
);
},
{
closed = 1;
nodes = (
(117,-247,o),
(122,-264,o),
(151,-264,cs),
(181,-264,o),
(245,-219,o),
(254,-156,cs),
(259,-119,o),
(211,-79,o),
(181,-94,cs),
(158,-105,o),
(117,-195,o),
(117,-220,cs)
);
}
);
width = 299;
}
);
},
{
glyphname = kn_ss_ottu2;
layers = (
{
layerId = "CC7AEE9D-2AED-49C0-8074-4E98D62561AB";
shapes = (
{
closed = 1;
nodes = (
(291,69,o),
(345,96,o),
(350,80,cs),
(358,51,o),
(400,-38,o),
(411,-89,cs),
(425,-153,o),
(500,-273,o),
(516,-331,cs),
(521,-349,o),
(496,-336,o),
(491,-325,cs),
(468,-277,o),
(434,-203,o),
(416,-162,cs),
(414,-158,o),
(411,-152,o),
(408,-158,cs),
(396,-182,o),
(350,-242,o),
(302,-252,cs),
(221,-269,o),
(197,-226,o),
(162,-197,cs),
(147,-185,o),
(147,-256,o),
(81,-256,cs),
(40,-256,o),
(10,-210,o),
(10,-167,cs),
(10,-127,o),
(38,-84,o),
(81,-84,cs),
(151,-84,o),
(157,-203,o),
(244,-203,cs),
(297,-203,o),
(359,-160,o),
(359,-104,cs),
(359,-48,o),
(336,2,o),
(301,54,cs)
);
},
{
closed = 1;
nodes = (
(28,-199,o),
(52,-213,o),
(81,-213,cs),
(105,-213,o),
(131,-192,o),
(131,-167,cs),
(131,-142,o),
(102,-132,o),
(81,-132,cs),
(57,-132,o),
(28,-136,o),
(28,-167,cs)
);
}
);
width = 527;
}
);
},
